<?xml version="1.0" encoding="utf-8"?>
<!-- Generator: Adobe Illustrator 16.0.0, SVG Export Plug-In . SVG Version: 6.00 Build 0)  -->
<!DOCTYPE svg PUBLIC "-//W3C//DTD SVG 1.1//EN" "http://www.w3.org/Graphics/SVG/1.1/DTD/svg11.dtd">
<svg version="1.1" id="Layer_1_xA0_Image_1_" xmlns="http://www.w3.org/2000/svg" xmlns:xlink="http://www.w3.org/1999/xlink"
	 x="0px" y="0px" width="12px" height="12px" viewBox="0 0 12 12" enable-background="new 0 0 12 12" xml:space="preserve">
<g>
	<path fill-rule="evenodd" clip-rule="evenodd" fill="none" d="M6.478,3.777C6.481,4.989,7.296,5.989,8.467,6.22
		c0.3,0.06,0.549-0.168,0.49-0.45C8.917,5.575,8.771,5.496,8.591,5.45C7.867,5.265,7.406,4.822,7.276,4.072
		C7.248,3.909,7.259,3.739,7.25,3.574c-0.013-0.23-0.171-0.387-0.389-0.385C6.64,3.19,6.486,3.344,6.478,3.574
		C6.476,3.642,6.478,3.709,6.478,3.777z"/>
	<path fill-rule="evenodd" clip-rule="evenodd" d="M3,4.93c0.117-0.603,0.49-1.016,1.017-1.333C3.713,3.432,3.543,3.2,3.515,2.876
		C3.486,2.53,3.699,2.212,3.94,1.992C4.195,1.76,4.431,1.64,4.783,1.591C5.21,1.529,5.568,1.689,5.86,1.97
		c0.233,0.224,0.416,0.5,0.626,0.747C6.525,2.76,6.609,2.813,6.65,2.8c0.83-0.288,1.138,0.374,1.042,1.002
		C7.658,4.032,7.597,4.258,7.538,4.53C7.38,4.228,7.339,3.939,7.349,3.642c0.007-0.242-0.096-0.434-0.282-0.517
		C6.745,2.981,6.385,3.193,6.372,3.55C6.339,4.412,6.586,5.164,7.261,5.744c0.064,0.055,0.105,0.162,0.114,0.247
		C7.396,6.208,7.443,6.404,7.559,6.6C8.134,7.559,8.52,8.59,8.688,9.7c0.059,0.39,0.127,0.778,0.163,1.169
		c0.034,0.367-0.205,0.637-0.543,0.661c-0.354,0.025-0.611-0.206-0.646-0.583c-0.065-0.681-0.176-1.352-0.394-2.049
		c-0.049,0.146-0.084,0.254-0.12,0.36c-0.286,0.86-0.788,1.572-1.49,2.139c-0.361,0.291-0.869,0.108-0.972-0.341
		c-0.06-0.263,0.054-0.464,0.254-0.631c0.577-0.487,0.97-1.092,1.147-1.832C6.209,8.091,6.215,7.583,6.147,7.07
		C6.142,7.031,6.125,6.986,6.101,6.956C5.966,6.785,5.826,6.618,5.688,6.45C5.671,6.506,5.64,6.592,5.619,6.679
		C5.497,7.138,5.259,7.263,4.756,7.233c-0.699-0.061-1.047-0.407-1.42-0.947C3.127,5.982,2.925,5.528,3,4.93z M4.982,2.558
		C4.76,2.563,4.579,2.759,4.587,2.984c0.007,0.222,0.207,0.403,0.428,0.394c0.219-0.011,0.39-0.192,0.387-0.414
		C5.399,2.739,5.205,2.551,4.982,2.558z M4.596,3.403C4.237,3.06,4.286,2.627,4.583,2.441C4.705,2.366,4.872,2.32,5.014,2.33
		c0.243,0.016,0.396,0.19,0.497,0.441C5.542,2.43,5.29,2.132,4.957,2.076C4.591,2.014,4.214,2.259,4.145,2.613
		C4.067,3.01,4.295,3.353,4.596,3.403z"/>
	<path fill-rule="evenodd" clip-rule="evenodd" d="M8.81,2.037C8.626,2.5,8.091,2.792,7.608,2.692
		C7.081,2.583,6.723,2.142,6.728,1.609c0.005-0.527,0.628-1.186,1.323-1.026C8.876,0.772,9.005,1.549,8.81,2.037z"/>
	<path fill-rule="evenodd" clip-rule="evenodd" d="M6.478,3.777c0-0.068-0.002-0.136,0-0.203C6.486,3.344,6.64,3.19,6.861,3.189
		C7.079,3.188,7.237,3.344,7.25,3.574c0.009,0.165-0.002,0.335,0.026,0.498c0.13,0.75,0.591,1.192,1.314,1.378
		c0.18,0.046,0.326,0.125,0.366,0.319c0.059,0.282-0.19,0.51-0.49,0.45C7.296,5.989,6.481,4.989,6.478,3.777z"/>
	<path fill-rule="evenodd" clip-rule="evenodd" fill="none" d="M4.982,2.558c0.222-0.007,0.417,0.182,0.419,0.406
		c0.003,0.222-0.168,0.403-0.387,0.414c-0.222,0.01-0.421-0.172-0.428-0.394C4.579,2.759,4.76,2.563,4.982,2.558z"/>
	<path fill-rule="evenodd" clip-rule="evenodd" fill="none" d="M4.596,3.403c-0.3-0.051-0.528-0.394-0.451-0.79
		c0.069-0.354,0.446-0.6,0.812-0.537C5.29,2.132,5.542,2.43,5.51,2.771C5.409,2.521,5.256,2.346,5.014,2.33
		C4.872,2.32,4.705,2.366,4.583,2.441C4.286,2.627,4.296,2.984,4.596,3.403z"/>
</g>
</svg>
