<?xml version="1.0" encoding="utf-8"?>
<!-- Generator: Adobe Illustrator 16.0.0, SVG Export Plug-In . SVG Version: 6.00 Build 0)  -->
<!DOCTYPE svg PUBLIC "-//W3C//DTD SVG 1.1//EN" "http://www.w3.org/Graphics/SVG/1.1/DTD/svg11.dtd">
<svg version="1.1" id="Layer_1" xmlns="http://www.w3.org/2000/svg" xmlns:xlink="http://www.w3.org/1999/xlink" x="0px" y="0px"
	 width="144px" height="144px" viewBox="0 0 144 144" enable-background="new 0 0 144 144" xml:space="preserve">
<g>
	<path d="M39.037,56.142c0,0.14-0.07,0.21-0.21,0.21h-6c-0.82,0-1.55-0.07-2.19-0.21c0,0.14-0.08,0.21-0.24,0.21h-3.9
		c-0.82,0-1.525-0.07-2.115-0.21c-0.59-0.14-0.885-0.3-0.885-0.48c0-0.4,0.86-0.62,2.58-0.66c-0.14-0.74-0.29-1.9-0.45-3.48
		c0.16-0.24,0.3-0.57,0.42-0.99c0-0.06-0.09-0.11-0.27-0.15c-0.18-0.04-0.27-0.1-0.27-0.18c-0.18-1.94-0.25-3.85-0.21-5.73
		c0-0.08,0.084-0.14,0.255-0.18c0.169-0.04,0.255-0.09,0.255-0.15s-0.085-0.195-0.255-0.405c-0.17-0.21-0.255-0.354-0.255-0.435
		c0.02-0.98,0.1-2.46,0.24-4.44c0-0.1,0.05-0.15,0.15-0.15l7.11-0.81c0.14,0,0.22,0.03,0.24,0.09l1.5,4.17l0.45-3.87
		c0.02-0.1,0.09-0.15,0.21-0.15l3.18,0.24c0.1,0,0.15,0.06,0.15,0.18l0.21,5.82c0,0.081-0.01,0.12-0.03,0.12l-0.51,0.51l0.42,0.36
		c0.04,0.041,0.06,0.09,0.06,0.15L39.037,56.142z M38.647,55.932l-0.36-10.29l-0.51-0.45c-0.101-0.1-0.101-0.2,0-0.3l0.6-0.6
		l-0.24-5.52l-2.79-0.24l-0.54,4.53c-0.02,0.12-0.08,0.19-0.18,0.21c-0.101,0.02-0.17-0.03-0.21-0.15l-1.71-4.83l-6.81,0.78
		c-0.06,0.96-0.13,2.37-0.21,4.23c0,0.08,0.085,0.225,0.255,0.435c0.169,0.21,0.255,0.345,0.255,0.405s-0.085,0.11-0.255,0.15
		c-0.17,0.041-0.255,0.101-0.255,0.18c0,2.18,0.06,4.08,0.18,5.7c0,0.06,0.09,0.11,0.27,0.15s0.28,0.1,0.3,0.18
		c0,0.08-0.07,0.24-0.21,0.48c-0.14,0.24-0.21,0.4-0.21,0.48c0.18,2.081,0.4,3.57,0.66,4.47h3.54v-3.51c0-0.12,0.04-0.189,0.12-0.21
		c0.08-0.04,0.16-0.01,0.24,0.09l2.37,3.63H38.647z M28.897,43.542l-0.72-0.39l-0.87,0.3l0.69-0.6l0.12-0.84l0.12,0.81
		L28.897,43.542z M28.837,52.242l-1.26,0.12l0.15-1.26l0.18,0.9L28.837,52.242z M31.117,48.102c-0.6,0.1-0.99,0.08-1.17-0.06
		c-0.24-0.2-0.34-0.57-0.3-1.11c0.14,0.46,0.285,0.76,0.435,0.9C30.232,47.972,30.577,48.062,31.117,48.102z M31.927,41.231
		c-0.14-0.46-0.285-0.76-0.435-0.9c-0.15-0.14-0.495-0.229-1.035-0.27c0.74-0.12,1.19-0.03,1.35,0.27
		C31.927,40.552,31.967,40.852,31.927,41.231z M31.867,55.032l-1.23-1.89v2.1C30.836,55.162,31.247,55.092,31.867,55.032z
		 M35.227,45.401l-0.39,0.6l-0.03,1.02l-0.27-0.87l-0.9-0.42l0.99,0.12L35.227,45.401z M35.197,50.381
		c0.1,0.24,0.02,0.561-0.24,0.96c0.14-0.4,0.15-0.7,0.03-0.9c-0.08-0.16-0.34-0.41-0.78-0.75
		C34.807,49.912,35.137,50.142,35.197,50.381z M36.967,54.131l-1.29-0.15l0.96-0.18l0.21-0.9L36.967,54.131z M37.537,41.562
		l-0.15,1.32l-0.18-0.96l-0.9-0.21L37.537,41.562z"/>
	<path d="M54.486,44.682c0,0.06-0.08,0.155-0.24,0.285c-0.16,0.13-0.24,0.225-0.24,0.285c0,0.08,0.07,0.206,0.21,0.375
		c0.14,0.17,0.21,0.295,0.21,0.375c-0.101,1.5-0.311,3.46-0.63,5.88c-0.02,0.081-0.135,0.135-0.345,0.165
		c-0.21,0.03-0.315,0.085-0.315,0.165c0.34,0.5,0.5,0.81,0.48,0.93l-0.48,3.03c-0.041,0.12-0.11,0.18-0.21,0.18h-0.99v0.21
		c-0.041,0.16-0.11,0.24-0.21,0.24h-0.72l-0.12,0.36c-0.041,0.12-0.101,0.18-0.18,0.18h-1.11c-1.48,0-2.22-0.18-2.22-0.54
		c0-0.101,0.13-0.206,0.39-0.315c0.26-0.11,0.5-0.154,0.72-0.135h-2.64l0.27,0.27c0.1,0.2,0.109,0.39,0.03,0.57l-0.27,0.63
		c-0.04,0.1-0.11,0.15-0.21,0.15h-0.99c-1.14,0-1.71-0.13-1.71-0.39c0-0.2,0.46-0.33,1.38-0.39c0-0.08,0.01-0.13,0.03-0.15
		l0.42-0.69h-0.96c-0.82,0-1.525-0.07-2.115-0.21c-0.59-0.14-0.885-0.3-0.885-0.48c0-0.4,0.8-0.62,2.4-0.66
		c-0.8-2.54-1.2-5.51-1.2-8.91c0-0.98,0.04-1.98,0.12-3c0.18-0.1,0.36-0.26,0.54-0.48c0.02-0.08-0.045-0.195-0.195-0.345
		s-0.225-0.255-0.225-0.315c0.1-1.02,0.26-2.19,0.48-3.51c0-0.08,0.05-0.14,0.15-0.18c0.919-0.2,1.95-0.3,3.09-0.3
		c3.08,0,5.84,0.74,8.28,2.22c0.04,0.04,0.06,0.08,0.06,0.12C54.517,41.302,54.566,42.762,54.486,44.682z M54.097,44.682
		c0.06-2.08,0.02-3.49-0.12-4.23c-2.34-1.38-4.99-2.07-7.95-2.07c-1.04,0-2.01,0.081-2.91,0.24c-0.12,0.76-0.28,1.89-0.48,3.39
		c0,0.06,0.08,0.165,0.24,0.315s0.23,0.265,0.21,0.345c-0.16,0.101-0.34,0.26-0.54,0.48c-0.06,0.96-0.09,1.9-0.09,2.82
		c0,4.18,0.51,7.5,1.53,9.96h5.4l-0.18-0.42c-0.02-0.06-0.01-0.13,0.03-0.21c0.24-0.42,0.85-0.68,1.83-0.78
		c0.1,0,0.16,0.02,0.18,0.06l0.69,0.99v0.36h0.84c0.16-0.84,0.31-1.79,0.45-2.85c-0.22-0.36-0.44-0.77-0.66-1.23
		c0-0.04,0.04-0.06,0.12-0.06c0.06,0,0.165,0.015,0.315,0.045c0.15,0.03,0.255,0.045,0.315,0.045c0.08,0,0.12-0.02,0.12-0.06
		c0.3-2.32,0.5-4.27,0.6-5.85c0-0.1-0.075-0.225-0.225-0.375s-0.225-0.265-0.225-0.345c0-0.06,0.085-0.155,0.255-0.285
		S54.097,44.742,54.097,44.682z M44.646,46.392l-0.9,0.21l-0.21,0.96l-0.15-1.29L44.646,46.392z M45.907,53.981l-1.29,0.15
		l0.12-1.23l0.24,0.9L45.907,53.981z M46.356,41.472c-0.28-0.44-0.52-0.71-0.72-0.81c-0.26-0.1-0.561-0.09-0.9,0.03
		c0.4-0.26,0.71-0.34,0.93-0.24C45.926,40.532,46.156,40.872,46.356,41.472z M45.697,56.771c-0.101-0.22-0.23-0.36-0.39-0.42
		c-0.101,0.06-0.29,0.34-0.57,0.84l0.09,0.36h0.72L45.697,56.771z M48.667,48.702c0.1,0.08,0.09,0.18-0.03,0.3l-2.19,2.19
		c-0.161,0.161-0.27,0.13-0.33-0.09l-0.75-2.94c-0.021-0.06,0-0.12,0.06-0.18l1.41-1.32c0.1-0.1,0.2-0.1,0.3,0L48.667,48.702z
		 M48.247,48.852l-1.32-1.74l-1.14,1.05l0.63,2.52L48.247,48.852z M48.427,43.961l-0.45,0.6l0.09,0.99l-0.39-0.87l-0.87-0.27
		l1.02-0.03L48.427,43.961z M49.267,53.322c-0.54,0.04-0.9-0.06-1.08-0.3c-0.18-0.24-0.2-0.63-0.06-1.17
		c0.02,0.26,0.1,0.61,0.24,1.05C48.546,53.062,48.847,53.202,49.267,53.322z M51.606,55.722l-0.63-0.81
		c-0.66,0.06-1.12,0.23-1.38,0.51l0.21,0.45l0.36-0.15l0.87,0.143c0.14,0.02,0.19,0.096,0.15,0.229l-0.09,0.258l0.45,0.03
		L51.606,55.722z M50.736,56.202l-0.48-0.09l-0.63,0.27l0.15,0.54h0.75L50.736,56.202z M52.207,50.441l-0.87,0.09l-0.6,0.72
		l0.3-0.87l-0.36-0.75l0.69,0.66L52.207,50.441z M52.207,40.932l-0.15,1.26l-0.21-0.9l-0.96-0.18L52.207,40.932z M53.137,47.381
		c0-0.5-0.075-0.834-0.225-1.005c-0.15-0.169-0.465-0.325-0.945-0.465c0.56-0.04,0.93,0.05,1.11,0.27
		C53.256,46.402,53.276,46.802,53.137,47.381z"/>
	<path d="M69.997,40.932c0,0.08-0.04,0.18-0.12,0.3s-0.12,0.21-0.12,0.27s0.035,0.155,0.105,0.285
		c0.07,0.13,0.095,0.235,0.075,0.315c-0.06,2.561-0.32,5.37-0.78,8.43c-0.041,0.14-0.101,0.21-0.18,0.21h-2.01
		c0.04,0.32,0.09,0.81,0.15,1.47c0,0.06-0.06,0.17-0.18,0.33c-0.12,0.16-0.18,0.28-0.18,0.36c0,0.081,0.07,0.186,0.21,0.315
		c0.14,0.13,0.21,0.235,0.21,0.315l0.09,2.64c0,0.12-0.06,0.18-0.18,0.18h-6.15c-0.82,0-1.52-0.07-2.1-0.21s-0.87-0.301-0.87-0.482
		c0-0.181,0.274-0.336,0.825-0.466c0.55-0.13,1.215-0.195,1.995-0.195l0.15-4.305l-2.97-0.241c-0.06,0-0.11-0.05-0.15-0.15
		c-0.72-2.949-1.08-6.01-1.08-9.18c0-0.903,0.03-1.786,0.09-2.648c0-0.101,0.06-0.151,0.18-0.151c0.54-0.06,1.8-0.15,3.78-0.271
		c0.06,0,0.16,0.14,0.3,0.42c0.14,0.28,0.23,0.42,0.27,0.42c0.1,0,0.23-0.14,0.39-0.42c0.16-0.28,0.28-0.42,0.36-0.42
		c3.66-0.18,6.2-0.15,7.62,0.09c0.12,0.04,0.18,0.09,0.18,0.15C69.967,39.191,69.997,40.072,69.997,40.932z M69.606,40.932
		c0-1.1-0.03-1.91-0.09-2.43c-1.18-0.2-3.65-0.22-7.41-0.06c-0.08,0-0.2,0.146-0.36,0.435c-0.16,0.29-0.29,0.435-0.39,0.435
		c-0.04,0-0.13-0.135-0.27-0.405c-0.14-0.27-0.24-0.405-0.3-0.405c-1.7,0.08-2.89,0.17-3.57,0.27c-0.06,0.78-0.09,1.58-0.09,2.4
		c0,3.5,0.35,6.47,1.05,8.91l2.97,0.24c0.1,0,0.15,0.06,0.15,0.18l-0.15,5.46h5.76c-0.021-0.28-0.06-1.09-0.12-2.43
		c0-0.08-0.075-0.185-0.225-0.315s-0.225-0.235-0.225-0.315c0-0.08,0.065-0.189,0.195-0.33c0.13-0.14,0.195-0.24,0.195-0.3
		c-0.02-0.42-0.07-1-0.15-1.74c-0.041-0.14,0.02-0.21,0.18-0.21h2.04c0.44-2.94,0.7-5.69,0.78-8.25c0.02-0.08-0.015-0.18-0.105-0.3
		s-0.135-0.21-0.135-0.27s0.045-0.15,0.135-0.27S69.606,41.012,69.606,40.932z M59.887,41.262l-0.9,0.24l-0.18,0.93l-0.18-1.29
		L59.887,41.262z M60.487,47.771l-1.29,0.15l0.15-1.26l0.21,0.93L60.487,47.771z M63.187,40.901c-0.26-0.399-0.51-0.66-0.75-0.78
		c-0.2-0.1-0.5-0.09-0.9,0.03c0.42-0.259,0.74-0.34,0.96-0.24C62.737,39.972,62.966,40.302,63.187,40.901z M64.237,53.532
		l-0.87,0.12l-0.6,0.72l0.3-0.87l-0.36-0.75l0.69,0.66L64.237,53.532z M64.027,49.332c-0.54,0.041-0.9-0.06-1.08-0.3
		c-0.18-0.24-0.2-0.63-0.06-1.17c0.02,0.26,0.1,0.61,0.24,1.05C63.326,49.112,63.626,49.252,64.027,49.332z M65.257,43.421
		l-0.45,0.6l0.09,0.99l-0.39-0.87l-0.87-0.27l1.02-0.03L65.257,43.421z M68.077,48.312c-0.02-0.26-0.101-0.6-0.24-1.02
		c-0.22-0.22-0.53-0.37-0.93-0.45c0.56-0.06,0.93,0.04,1.11,0.3C68.156,47.322,68.176,47.711,68.077,48.312z M68.646,40.332
		l-0.15,1.26l-0.21-0.9l-0.96-0.18L68.646,40.332z"/>
	<path d="M86.286,47.981c-0.16,0.2-0.341,0.47-0.54,0.81c0,0.06,0.08,0.14,0.24,0.24s0.24,0.19,0.24,0.27
		c-0.121,2.58-0.48,4.88-1.08,6.9c-0.021,0.1-0.09,0.15-0.211,0.15h-3.689c-0.28,0-0.641,0-1.08,0c-0.02,0-0.061,0-0.12,0h-5.579
		c-0.801,0-1.496-0.07-2.085-0.21c-0.59-0.14-0.885-0.3-0.885-0.48c0-0.4,0.84-0.63,2.52-0.69c-0.24-0.86-0.47-2.01-0.689-3.45
		c0-0.06,0.085-0.155,0.255-0.285c0.17-0.129,0.245-0.225,0.226-0.285c-0.221-0.12-0.441-0.31-0.66-0.57
		c-0.201-1.54-0.3-3.06-0.3-4.56c0-2.56,0.28-4.98,0.839-7.26c0.02-0.06,0.07-0.1,0.15-0.12c1.801-0.34,3.35-0.51,4.65-0.51
		c0.72,0,1.289,0.06,1.71,0.18c0.1,0.021,0.149,0.081,0.149,0.18l0.211,3.81l0.629-0.18l0.061-3.72c0-0.12,0.07-0.18,0.21-0.18
		l3.81,0.24c0.121,0,0.181,0.05,0.181,0.15c0.12,0.5,0.319,1.77,0.6,3.81c0,0.06-0.035,0.17-0.104,0.33
		c-0.07,0.16-0.105,0.27-0.105,0.33c0.1,0.081,0.199,0.24,0.301,0.48C86.275,44.962,86.326,46.502,86.286,47.981z M85.896,47.981
		c0-1.92-0.051-3.439-0.15-4.56c0-0.08-0.051-0.165-0.15-0.255s-0.149-0.165-0.149-0.225s0.04-0.169,0.12-0.33
		c0.08-0.16,0.109-0.27,0.09-0.33c-0.041-0.28-0.221-1.49-0.54-3.63l-3.479-0.24l-0.091,3.69c0,0.1-0.04,0.16-0.12,0.18l-0.99,0.24
		c-0.16,0.041-0.239-0.02-0.239-0.18l-0.24-3.87c-0.4-0.08-0.91-0.12-1.53-0.12c-1.439,0-2.9,0.15-4.38,0.45
		c-0.521,2.26-0.78,4.64-0.78,7.14c0,1.46,0.09,2.92,0.271,4.38c0.22,0.12,0.439,0.31,0.66,0.57c0.02,0.08-0.056,0.18-0.226,0.3
		c-0.17,0.12-0.254,0.21-0.254,0.27c0.199,1.42,0.51,2.91,0.93,4.47h5.22l-0.149-3.42c0-0.14,0.079-0.21,0.239-0.21l1.71,0.42
		c0.1,0.02,0.15,0.09,0.15,0.21l-0.24,3h3.24c0.58-2.02,0.92-4.23,1.02-6.63c0-0.08-0.074-0.17-0.225-0.27s-0.225-0.19-0.225-0.27
		c0-0.06,0.084-0.185,0.254-0.375S85.896,48.062,85.896,47.981z M76.446,46.001c-0.44,0.08-0.74,0.215-0.9,0.405
		s-0.26,0.545-0.3,1.065c-0.1-0.6-0.064-1.005,0.105-1.215C75.521,46.046,75.886,45.962,76.446,46.001z M77.316,40.631l-0.961,0.21
		l-0.209,0.9l-0.15-1.26L77.316,40.631z M77.676,50.981l-0.359,0.72l0.3,0.9l-0.601-0.72l-0.869-0.12l0.84-0.12L77.676,50.981z
		 M81.006,45.312l-0.869,0.27l-0.391,0.87l0.09-0.99l-0.449-0.6l0.6,0.42L81.006,45.312z M81.396,53.082l-1.32-0.33l0.12,2.28
		c0.22-0.04,0.569-0.05,1.05-0.03L81.396,53.082z M83.616,46.961c0.12,0.74,0.03,1.19-0.271,1.35c-0.22,0.12-0.52,0.16-0.899,0.12
		c0.42-0.08,0.72-0.22,0.899-0.42C83.467,47.872,83.557,47.521,83.616,46.961z M84.516,41.532c-0.42-0.1-0.72-0.11-0.899-0.03
		c-0.22,0.12-0.47,0.39-0.75,0.81c0.2-0.6,0.43-0.94,0.69-1.02C83.816,41.212,84.136,41.292,84.516,41.532z M84.246,53.202
		l-1.29-0.18l0.931-0.15l0.209-0.93L84.246,53.202z"/>
	<path d="M97.206,56.651l-0.271,0.63c-0.04,0.08-0.109,0.12-0.21,0.12h-0.989c-1.141,0-1.71-0.12-1.71-0.36
		c0-0.08-0.03-0.09-0.091-0.03l-0.119,0.39c-0.041,0.1-0.101,0.15-0.181,0.15h-1.109c-1.481,0-2.22-0.17-2.22-0.51
		c0-0.3,0.609-0.48,1.829-0.54c-0.02-0.02-0.01-0.07,0.03-0.15h-1.439c-0.82,0-1.521-0.07-2.101-0.21c-0.58-0.14-0.87-0.3-0.87-0.48
		c0-0.4,0.87-0.62,2.609-0.66c-0.34-2.22-0.55-4.52-0.629-6.9c0-0.06,0.09-0.165,0.27-0.315s0.27-0.255,0.27-0.315
		c0-0.08-0.1-0.17-0.299-0.27c-0.201-0.1-0.301-0.18-0.301-0.24c-0.08-1.7-0.05-3.5,0.09-5.4c0.141-0.16,0.28-0.38,0.42-0.66
		c0.02-0.08-0.035-0.185-0.164-0.315c-0.131-0.13-0.195-0.225-0.195-0.285c0.06-0.54,0.14-1.16,0.24-1.86
		c0-0.08,0.049-0.14,0.149-0.18c1.38-0.22,2.66-0.33,3.84-0.33c1.1,0,1.97,0.11,2.61,0.33c0.1,0.04,0.15,0.1,0.15,0.18
		c0.119,1.24,0.18,2.79,0.18,4.65c0,2.98-0.131,6.11-0.391,9.39c-0.199,0.161-0.41,0.4-0.63,0.72c0.36,0.16,0.54,0.29,0.54,0.39
		c-0.1,1.1-0.149,1.83-0.149,2.19c0.18,0.04,0.45,0.27,0.81,0.69C97.236,56.511,97.246,56.571,97.206,56.651z M96.426,38.622
		c-0.62-0.18-1.45-0.27-2.49-0.27c-1.18,0-2.359,0.09-3.539,0.27c-0.021,0.22-0.08,0.8-0.181,1.74c0,0.081,0.06,0.18,0.181,0.3
		c0.119,0.12,0.18,0.21,0.18,0.27c-0.141,0.14-0.291,0.35-0.45,0.63c-0.06,2.14-0.08,3.94-0.06,5.4c0,0.06,0.1,0.14,0.299,0.24
		c0.2,0.1,0.301,0.19,0.301,0.27c0,0.06-0.096,0.165-0.285,0.315c-0.19,0.15-0.285,0.255-0.285,0.315
		c0.141,2.84,0.41,5.45,0.811,7.83h1.319l-0.09-0.21c-0.02-0.04-0.01-0.1,0.03-0.18c0.24-0.439,0.85-0.709,1.83-0.81
		c0.1,0,0.16,0.021,0.18,0.06l0.69,0.99v0.15h1.08c0.039-0.4,0.1-1.18,0.18-2.34c0-0.04-0.09-0.105-0.271-0.195
		c-0.18-0.09-0.27-0.165-0.27-0.225c0.02-0.08,0.13-0.21,0.33-0.39c0.199-0.18,0.3-0.3,0.3-0.36c0.24-3.76,0.36-6.939,0.36-9.54
		C96.576,41.182,96.525,39.762,96.426,38.622z M92.796,46.302c-0.561,0.06-0.93-0.04-1.11-0.3c-0.14-0.18-0.16-0.57-0.06-1.17
		c0.02,0.26,0.1,0.6,0.24,1.02C92.086,46.072,92.396,46.222,92.796,46.302z M93.186,51.162l-1.319,0.18l0.149-1.26l0.21,0.9
		L93.186,51.162z M93.456,41.651l-0.69-0.66l-0.84-0.12l0.84-0.12l0.601-0.72l-0.3,0.87L93.456,41.651z M94.536,55.932l-0.63-0.81
		c-0.641,0.06-1.101,0.23-1.38,0.51l0.21,0.45l0.359-0.15l0.87,0.15c0.16,0.02,0.21,0.1,0.15,0.24l-0.09,0.27h0.449L94.536,55.932z
		 M93.666,56.438l-0.48-0.087l-0.63,0.26l0.15,0.52h0.75L93.666,56.438z M94.716,53.501c-0.38,0.24-0.7,0.32-0.96,0.24
		c-0.26-0.08-0.49-0.42-0.689-1.02c0.159,0.22,0.409,0.48,0.75,0.78C94.016,53.602,94.315,53.602,94.716,53.501z M96.066,48.312
		l-1.021,0.03l-0.6,0.39l0.449-0.6l-0.09-0.96l0.391,0.87L96.066,48.312z M96.036,43.001l-0.15,1.23l-0.21-0.93l-0.93-0.15
		L96.036,43.001z M95.526,56.352h-0.66v0.36c0.239-0.04,0.42-0.06,0.54-0.06c0-0.1,0.01-0.155,0.029-0.165
		C95.456,56.476,95.485,56.431,95.526,56.352z M96.756,56.592c-0.08-0.12-0.21-0.25-0.39-0.39c-0.221,0.08-0.41,0.229-0.57,0.45
		l0.09,0.36h0.72L96.756,56.592z"/>
	<path d="M113.825,56.142c0,0.14-0.07,0.21-0.21,0.21h-6c-0.82,0-1.55-0.07-2.189-0.21c0,0.14-0.081,0.21-0.24,0.21h-3.9
		c-0.82,0-1.525-0.07-2.115-0.21c-0.589-0.14-0.885-0.3-0.885-0.48c0-0.4,0.859-0.62,2.58-0.66c-0.14-0.74-0.29-1.9-0.45-3.48
		c0.16-0.24,0.3-0.57,0.42-0.99c0-0.06-0.09-0.11-0.27-0.15c-0.18-0.04-0.271-0.1-0.271-0.18c-0.18-1.94-0.25-3.85-0.21-5.73
		c0-0.08,0.085-0.14,0.255-0.18c0.17-0.04,0.256-0.09,0.256-0.15s-0.086-0.195-0.256-0.405c-0.17-0.21-0.255-0.354-0.255-0.435
		c0.021-0.98,0.101-2.46,0.24-4.44c0-0.1,0.05-0.15,0.15-0.15l7.109-0.81c0.14,0,0.22,0.03,0.24,0.09l1.5,4.17l0.45-3.87
		c0.02-0.1,0.09-0.15,0.21-0.15l3.18,0.24c0.101,0,0.15,0.06,0.15,0.18l0.21,5.82c0,0.081-0.011,0.12-0.03,0.12l-0.51,0.51
		l0.42,0.36c0.04,0.041,0.06,0.09,0.06,0.15L113.825,56.142z M113.436,55.932l-0.36-10.29l-0.51-0.45c-0.101-0.1-0.101-0.2,0-0.3
		l0.6-0.6l-0.239-5.52l-2.79-0.24l-0.54,4.53c-0.021,0.12-0.08,0.19-0.181,0.21c-0.1,0.02-0.17-0.03-0.21-0.15l-1.71-4.83
		l-6.81,0.78c-0.061,0.96-0.131,2.37-0.21,4.23c0,0.08,0.085,0.225,0.255,0.435c0.17,0.21,0.255,0.345,0.255,0.405
		s-0.085,0.11-0.255,0.15c-0.17,0.041-0.255,0.101-0.255,0.18c0,2.18,0.06,4.08,0.18,5.7c0,0.06,0.09,0.11,0.271,0.15
		c0.18,0.04,0.279,0.1,0.3,0.18c0,0.08-0.07,0.24-0.21,0.48c-0.141,0.24-0.21,0.4-0.21,0.48c0.18,2.081,0.399,3.57,0.659,4.47h3.54
		v-3.51c0-0.12,0.04-0.189,0.12-0.21c0.08-0.04,0.16-0.01,0.24,0.09l2.37,3.63H113.436z M103.686,43.542l-0.721-0.39l-0.869,0.3
		l0.689-0.6l0.12-0.84l0.12,0.81L103.686,43.542z M103.625,52.242l-1.26,0.12l0.15-1.26l0.18,0.9L103.625,52.242z M105.905,48.102
		c-0.6,0.1-0.99,0.08-1.17-0.06c-0.24-0.2-0.341-0.57-0.3-1.11c0.14,0.46,0.285,0.76,0.435,0.9
		C105.021,47.972,105.365,48.062,105.905,48.102z M106.715,41.231c-0.14-0.46-0.284-0.76-0.435-0.9
		c-0.15-0.14-0.495-0.229-1.035-0.27c0.74-0.12,1.189-0.03,1.351,0.27C106.715,40.552,106.755,40.852,106.715,41.231z
		 M106.655,55.032l-1.229-1.89v2.1C105.625,55.162,106.035,55.092,106.655,55.032z M110.016,45.401l-0.391,0.6l-0.029,1.02
		l-0.271-0.87l-0.899-0.42l0.989,0.12L110.016,45.401z M109.985,50.381c0.1,0.24,0.02,0.561-0.24,0.96c0.14-0.4,0.15-0.7,0.03-0.9
		c-0.08-0.16-0.341-0.41-0.78-0.75C109.596,49.912,109.926,50.142,109.985,50.381z M111.755,54.131l-1.29-0.15l0.961-0.18l0.21-0.9
		L111.755,54.131z M112.325,41.562l-0.149,1.32l-0.181-0.96l-0.899-0.21L112.325,41.562z"/>
	<path d="M121.025,40.332c-0.12,1.18-0.62,2.67-1.5,4.47c-0.08,0.14-0.181,0.16-0.3,0.06l-1.591-0.93c-0.1-0.04-0.13-0.11-0.09-0.21
		l0.51-1.71h-1.17l-0.6-2.28c-0.04-0.08-0.011-0.15,0.09-0.21c0.38-0.26,0.71-0.45,0.99-0.57c0.06-0.04,0.175,0.01,0.345,0.15
		c0.17,0.14,0.274,0.2,0.315,0.18c0-0.22,0.04-0.45,0.12-0.69c0.379-0.14,0.72-0.26,1.02-0.36c0.061-0.04,0.13-0.02,0.21,0.06
		L121.025,40.332z M120.665,40.481l-1.53-1.83c-0.16,0.041-0.439,0.15-0.84,0.33c0,0.22-0.03,0.45-0.09,0.69
		c-0.16-0.14-0.39-0.25-0.69-0.33c-0.22,0.1-0.49,0.24-0.81,0.42l0.48,1.86h1.14c0.199,0,0.27,0.08,0.21,0.24l-0.54,1.83l1.23,0.75
		C120.024,42.902,120.505,41.582,120.665,40.481z M119.795,40.211l-0.54,0.66l-0.12,0.93l-0.18-0.81l-0.78-0.45l0.9,0.15
		L119.795,40.211z"/>
</g>
<g>
	<g>
		<path fill="#FFFFFF" d="M63.646,77.443c-1.166,0.134-1.986,0.605-2.652,1.318c-1.475,1.584-1.646,3.486-1.205,5.49
			c0.174,0.789,0.225,0.775-0.456,1.105c-0.666,0.324-0.715,0.393-0.488,0.995c0.018,0.049,0.022,0.104,0.023,0.153
			c0.009,0.433,0.207,0.623,0.654,0.703c0.385,0.068,0.877,0.015,1.026,0.625c0.292,1.19,0.658,2.364,1.011,3.539
			c0.069,0.231,0.173,0.58,0.338,0.635c0.54,0.175,1.028,0.66,1.674,0.379c0.029-0.014,0.079,0.025,0.12,0.035
			c1.022,0.258,2.046,0.512,3.067,0.772c0.626,0.16,1.248,0.337,1.874,0.502c0.609,0.16,1.221,0.313,1.832,0.47
			c0.678,0.172,1.362,0.318,2.033,0.514c0.746,0.218,1.491,0.451,2.218,0.729c0.466,0.179,0.788,0.052,1.07-0.306
			c0.188-0.236,0.328-0.523,0.554-0.717c0.825-0.703,1.404-1.653,2.383-2.225c0.493-0.287,0.758-0.882,0.85-1.507
			c0.131-0.89,0.315-1.772,0.467-2.659c0.07-0.419,0.179-0.8,0.559-1.063c0.327-0.227,0.629-0.49,0.935-0.745
			c0.061-0.05,0.111-0.136,0.124-0.21c0.061-0.333,0.107-0.666,0.15-1.001c0.101-0.806,0.099-0.813-0.7-0.905
			c-0.239-0.025-0.315-0.097-0.296-0.355c0.066-0.846,0.131-1.693,0.134-2.543c0.004-0.803-0.576-1.683-1.211-1.838
			c-0.568-0.143-1.156-0.244-1.738-0.272c-0.473-0.022-0.954,0.155-1.424,0.129c-1.063-0.062-2.125-0.185-3.184-0.3
			c-1.576-0.169-3.157-0.32-4.727-0.543c-1.049-0.149-2.125-0.047-3.146-0.547C64.918,77.512,64.169,77.534,63.646,77.443z"/>
		<path fill="#010101" d="M63.646,77.443c0.523,0.091,1.272,0.068,1.868,0.359c1.021,0.5,2.097,0.396,3.146,0.547
			c1.57,0.223,3.15,0.374,4.728,0.545c1.059,0.115,2.12,0.238,3.184,0.3c0.47,0.026,0.951-0.151,1.424-0.129
			c0.582,0.028,1.17,0.131,1.738,0.272c0.635,0.155,1.215,1.035,1.211,1.838c-0.003,0.85-0.066,1.697-0.134,2.543
			c-0.021,0.26,0.057,0.33,0.296,0.355c0.799,0.094,0.801,0.1,0.7,0.905c-0.043,0.335-0.091,0.668-0.15,1.001
			c-0.013,0.074-0.063,0.16-0.124,0.21c-0.306,0.255-0.606,0.519-0.935,0.745c-0.38,0.263-0.487,0.645-0.559,1.063
			c-0.15,0.887-0.336,1.771-0.467,2.659c-0.092,0.625-0.355,1.22-0.85,1.507c-0.979,0.57-1.558,1.521-2.383,2.225
			c-0.226,0.193-0.365,0.479-0.554,0.717c-0.282,0.355-0.604,0.484-1.07,0.306c-0.727-0.278-1.472-0.513-2.218-0.729
			c-0.671-0.195-1.354-0.343-2.033-0.515c-0.611-0.154-1.223-0.31-1.832-0.47c-0.626-0.165-1.248-0.342-1.874-0.502
			c-1.021-0.262-2.045-0.515-3.067-0.772c-0.041-0.01-0.091-0.049-0.12-0.035c-0.646,0.281-1.134-0.204-1.674-0.379
			c-0.165-0.055-0.269-0.402-0.338-0.635c-0.353-1.175-0.719-2.349-1.011-3.539c-0.149-0.61-0.642-0.557-1.026-0.625
			c-0.447-0.08-0.646-0.271-0.654-0.703c-0.001-0.051-0.006-0.104-0.023-0.153c-0.227-0.603-0.178-0.671,0.488-0.995
			c0.681-0.33,0.63-0.316,0.456-1.105c-0.441-2.004-0.27-3.906,1.205-5.49C61.66,78.049,62.48,77.577,63.646,77.443z M63.564,89.272
			c0.168,0.12,0.425,0.207,0.485,0.366c0.13,0.345,0.013,0.662-0.37,0.867c0.229,0.004,0.506,0.018,0.613-0.111
			c0.333-0.401,0.173-0.973-0.23-1.191c-0.105-0.058-0.396-0.339-0.491,0.076c-0.471,0.253-0.54,0.385-0.337,0.756
			c0.06,0.111,0.27,0.262,0.316,0.233c0.136-0.08,0.327-0.259,0.311-0.368C63.828,89.68,63.67,89.48,63.564,89.272z M61.583,84.104
			c0.099,0.515,0.207,1.104,0.331,1.688c0.011,0.051,0.119,0.103,0.189,0.115c0.551,0.104,1.105,0.192,1.656,0.301
			c1.052,0.205,2.1,0.426,3.151,0.629c0.855,0.164,1.717,0.305,2.572,0.471c1.295,0.254,2.588,0.521,3.884,0.783
			c0.282,0.058,0.544,0.104,0.451-0.351c-0.031-0.155,0.024-0.327,0.04-0.491c0.024-0.259,0.049-0.517,0.078-0.83
			c-0.432,0.34-0.802,0.635-1.175,0.928c-0.057,0.044-0.134,0.103-0.191,0.094c-0.57-0.086-1.141-0.176-1.707-0.285
			c-0.271-0.052-0.534-0.139-0.791-0.232c-0.068-0.024-0.154-0.135-0.151-0.203c0.02-0.402,0.087-0.805,0.087-1.209
			c-0.001-0.188-0.062-0.442-0.191-0.549c-0.735-0.599-1.497-1.166-2.26-1.73c-0.078-0.061-0.245-0.076-0.334-0.035
			c-0.523,0.247-1.019,0.561-1.555,0.77c-0.634,0.25-1.062,0.58-0.921,1.338c0.025,0.145,0.021,0.299-0.006,0.439
			c-0.014,0.07-0.12,0.182-0.173,0.176c-0.377-0.043-0.752-0.104-1.124-0.179c-0.25-0.05-0.576-0.055-0.727-0.213
			C62.291,85.08,61.938,84.561,61.583,84.104z M78.79,79.428c-0.466-0.047-0.866-0.102-1.268-0.123
			c-0.147-0.008-0.316,0.031-0.445,0.104c-1.27,0.712-1.941,1.896-2.366,3.212c-0.25,0.781-0.362,1.617-0.453,2.439
			c-0.109,0.988-0.134,1.986-0.183,2.982c-0.004,0.064,0.078,0.184,0.141,0.197c0.311,0.07,0.625,0.133,0.94,0.158
			c0.085,0.009,0.25-0.109,0.26-0.186c0.075-0.609,0.102-1.227,0.185-1.834c0.132-0.965,0.241-1.94,0.465-2.889
			c0.173-0.736,0.445-1.464,0.778-2.145C77.248,80.523,77.905,79.893,78.79,79.428z M64.596,77.846
			c-0.428-0.043-0.874-0.186-1.278-0.104c-1.701,0.333-2.764,1.612-3.16,3.089c-0.194,0.723-0.263,1.506-0.228,2.254
			c0.037,0.795,0.262,1.582,0.413,2.371c0.012,0.059,0.09,0.137,0.149,0.149c0.327,0.069,0.657,0.12,1.029,0.187
			c-0.056-0.363-0.083-0.701-0.16-1.025c-0.214-0.899-0.311-1.787-0.17-2.719c0.153-1.018,0.502-1.94,1.109-2.742
			C62.867,78.557,63.534,77.892,64.596,77.846z M73.803,92.461c-0.456,0.373-0.852,0.717-1.271,1.026
			c-0.107,0.081-0.3,0.116-0.433,0.084c-0.885-0.208-1.763-0.442-2.644-0.664c-0.458-0.114-0.921-0.209-1.378-0.325
			c-0.471-0.117-0.935-0.264-1.408-0.373c-0.685-0.158-1.37-0.308-2.062-0.433c-0.534-0.097-0.883-0.411-1.158-0.849
			c-0.084-0.131-0.202-0.239-0.381-0.448c0.158,0.584,0.28,1.05,0.416,1.513c0.019,0.061,0.101,0.129,0.166,0.146
			c0.4,0.107,0.805,0.201,1.206,0.303c0.856,0.215,1.712,0.432,2.568,0.648c0.806,0.203,1.611,0.408,2.417,0.61
			c0.882,0.222,1.763,0.442,2.646,0.659c0.438,0.107,0.88,0.205,1.313,0.305C73.803,93.938,73.803,93.233,73.803,92.461z
			 M64.896,88.443c0.084,0.354,0.063,0.729,0.239,0.928c0.587,0.668,1.235,1.284,1.883,1.897c0.101,0.095,0.337,0.128,0.478,0.084
			c0.427-0.13,0.848-0.29,1.251-0.479c0.487-0.229,1.22-0.24,1.079-1.095c-0.001-0.009,0.012-0.021,0.01-0.024
			c-0.038-0.065-0.065-0.179-0.117-0.19c-0.711-0.179-1.426-0.343-2.218-0.529c0,0.419,0.006,0.82-0.007,1.222
			c-0.002,0.06-0.102,0.172-0.143,0.166c-0.206-0.03-0.451-0.029-0.431-0.357c0.02-0.309,0.099-0.637-0.208-0.879
			c-0.04-0.032-0.018-0.137-0.045-0.196c-0.028-0.062-0.074-0.149-0.128-0.163C66.021,88.697,65.498,88.582,64.896,88.443z
			 M59.104,86.004c-0.021,0.354,0.281,0.364,0.526,0.418c0.757,0.162,1.515,0.314,2.271,0.475c0.57,0.12,1.138,0.25,1.709,0.367
			c0.556,0.115,1.115,0.218,1.672,0.33c0.599,0.123,1.195,0.254,1.794,0.377c0.557,0.115,1.115,0.219,1.671,0.338
			c0.749,0.158,1.495,0.338,2.245,0.49c0.809,0.166,1.622,0.311,2.433,0.47c0.784,0.155,1.565,0.317,2.35,0.478
			c0.051-0.294,0.032-0.504-0.331-0.557c-0.485-0.068-0.96-0.196-1.442-0.285c-0.86-0.158-1.726-0.304-2.589-0.46
			c-0.276-0.049-0.553-0.116-0.829-0.175c-0.593-0.123-1.186-0.251-1.78-0.368c-0.589-0.115-1.181-0.213-1.77-0.33
			c-0.589-0.116-1.174-0.253-1.764-0.369c-0.573-0.11-1.15-0.198-1.722-0.313c-0.813-0.165-1.621-0.357-2.435-0.521
			C60.453,86.233,59.787,86.127,59.104,86.004z M75.762,90.016c-5.502-1.145-11.021-2.291-16.537-3.438
			c0.044,0.168,0.145,0.309,0.272,0.34c0.891,0.217,1.786,0.416,2.682,0.611c1.36,0.298,2.724,0.579,4.082,0.885
			c1.544,0.348,3.083,0.717,4.627,1.068c1.46,0.334,2.924,0.65,4.384,0.988C75.65,90.56,75.927,90.588,75.762,90.016z
			 M81.688,84.402c-0.195,0-0.28,0.012-0.362-0.002c-0.318-0.051-0.687-0.229-0.731,0.335c-0.008,0.072-0.124,0.14-0.197,0.198
			c-1.458,1.174-2.914,2.35-4.379,3.515c-0.167,0.132-0.384,0.272-0.58,0.276c-0.313,0.006-0.627-0.1-0.939-0.16
			c-0.624-0.125-1.246-0.256-1.87-0.376c-0.582-0.114-1.169-0.213-1.751-0.326c-0.616-0.119-1.229-0.254-1.846-0.372
			c-0.583-0.111-1.17-0.201-1.753-0.314c-0.651-0.123-1.3-0.264-1.951-0.39c-0.567-0.11-1.137-0.204-1.705-0.313
			c-0.881-0.17-1.761-0.35-2.642-0.516c-0.4-0.076-0.857-0.058-0.922-0.666c-0.32,0.146-0.609,0.277-0.899,0.41
			c0.002,0.039,0.003,0.078,0.004,0.117c0.432,0.07,0.867,0.124,1.295,0.212c0.825,0.167,1.644,0.367,2.47,0.53
			c0.841,0.164,1.687,0.296,2.529,0.445c0.278,0.051,0.556,0.108,0.833,0.17c0.567,0.125,1.132,0.266,1.702,0.375
			c0.603,0.115,1.215,0.184,1.816,0.303c0.813,0.162,1.617,0.369,2.429,0.529c0.605,0.119,1.222,0.19,1.829,0.303
			c0.318,0.058,0.626,0.191,0.944,0.226c0.289,0.03,0.58,0.233,0.887-0.006c1.603-1.247,3.214-2.483,4.82-3.728
			C81.017,84.947,81.308,84.707,81.688,84.402z M75.197,92.26c0.005,0,0.009,0,0.013,0c0-0.394,0.013-0.784-0.009-1.174
			c-0.005-0.082-0.116-0.199-0.203-0.23c-0.246-0.087-0.504-0.154-0.762-0.189c-0.076-0.012-0.246,0.115-0.244,0.176
			c0.02,1.293,0.055,2.586,0.099,3.881c0.004,0.082,0.09,0.205,0.168,0.234c0.209,0.084,0.437,0.11,0.647,0.185
			c0.232,0.079,0.295-0.005,0.294-0.226C75.194,94.029,75.197,93.144,75.197,92.26z M63.225,92.213
			c-0.074-0.188-0.132-0.299-0.16-0.414c-0.099-0.397-0.174-0.803-0.284-1.196c-0.131-0.466-0.301-0.923-0.432-1.388
			c-0.105-0.373-0.165-0.76-0.271-1.131c-0.034-0.123-0.131-0.287-0.233-0.318c-0.357-0.113-0.73-0.178-1.158-0.272
			c0.063,0.171,0.12,0.3,0.158,0.435c0.298,1.056,0.592,2.111,0.886,3.17c0.12,0.43,0.246,0.844,0.797,0.91
			C62.754,92.035,62.972,92.135,63.225,92.213z M70.656,90.861c0.708,0.62,0.708,0.62,0.177,1.516
			c0.259,0.139,0.657-0.086,0.842-0.377c0.222-0.353,0.209-0.697-0.073-1.006C71.328,90.696,71.018,90.568,70.656,90.861z
			 M71.11,91.711c-0.09-0.363-0.133-0.627-0.48-0.637c-0.359-0.01-0.477,0.285-0.486,0.551c-0.009,0.267,0.138,0.582,0.456,0.533
			C70.787,92.131,70.941,91.867,71.11,91.711z M80.144,82.086c-0.043-0.008-0.085-0.017-0.127-0.024
			c-0.099,1.028-0.196,2.057-0.295,3.084c0.043,0.004,0.085,0.009,0.128,0.013C79.947,84.133,80.044,83.109,80.144,82.086z
			 M76.295,93.471c-0.007-0.008-0.011-0.012-0.018-0.019c0.756-0.772,1.512-1.546,2.268-2.317c-0.01-0.01-0.021-0.021-0.03-0.029
			C77.775,91.894,77.036,92.682,76.295,93.471z M64.652,90.297c0.221-0.625-0.092-1.293-0.534-1.246
			C64.665,89.325,64.66,89.809,64.652,90.297z M78.953,89.723c-0.02,0-0.041,0-0.06,0c0,0.223,0,0.443,0,0.666
			c0.019,0.002,0.04,0.002,0.06,0.003C78.953,90.17,78.953,89.945,78.953,89.723z M71.556,92.412c0.021,0.02,0.04,0.035,0.06,0.053
			c0.146-0.193,0.289-0.388,0.436-0.58c-0.025-0.02-0.052-0.036-0.078-0.055C71.833,92.023,71.695,92.217,71.556,92.412z
			 M78.831,90.616c-0.031,0-0.063,0-0.096,0c0.013,0.22,0.025,0.438,0.038,0.659c0.019-0.001,0.039-0.003,0.058-0.004
			C78.831,91.053,78.831,90.836,78.831,90.616z M79.095,88.901c-0.017-0.001-0.031-0.001-0.05-0.002c0,0.188,0,0.375,0,0.563
			c0.019,0,0.033,0,0.05,0C79.095,89.277,79.095,89.088,79.095,88.901z M79.139,88.56c0.031,0.002,0.063,0.006,0.098,0.009
			c0-0.161,0-0.322,0-0.482c-0.021-0.002-0.041-0.002-0.062-0.004C79.161,88.241,79.151,88.399,79.139,88.56z"/>
		<path fill="#FFFFFF" d="M61.583,84.104c0.354,0.456,0.708,0.976,1.134,1.424c0.15,0.158,0.477,0.163,0.727,0.213
			c0.372,0.074,0.747,0.136,1.124,0.179c0.053,0.006,0.159-0.104,0.173-0.176c0.027-0.142,0.031-0.296,0.006-0.439
			c-0.141-0.758,0.287-1.088,0.921-1.338c0.536-0.209,1.031-0.521,1.555-0.77c0.089-0.041,0.256-0.023,0.335,0.034
			c0.763,0.565,1.524,1.133,2.26,1.731c0.13,0.104,0.19,0.36,0.191,0.547c0,0.404-0.067,0.808-0.087,1.211
			c-0.003,0.066,0.083,0.178,0.151,0.201c0.257,0.096,0.521,0.183,0.791,0.233c0.566,0.108,1.137,0.199,1.707,0.285
			c0.06,0.009,0.136-0.05,0.191-0.095c0.373-0.291,0.744-0.586,1.175-0.928c-0.029,0.314-0.054,0.572-0.078,0.832
			c-0.016,0.164-0.071,0.336-0.04,0.49c0.093,0.455-0.169,0.407-0.451,0.352c-1.296-0.262-2.589-0.53-3.884-0.784
			c-0.855-0.166-1.717-0.306-2.572-0.47c-1.052-0.205-2.1-0.426-3.151-0.631c-0.551-0.106-1.105-0.195-1.656-0.3
			c-0.07-0.014-0.179-0.063-0.189-0.114C61.79,85.209,61.682,84.619,61.583,84.104z"/>
		<path fill="#FFFFFF" d="M78.79,79.428c-0.886,0.465-1.542,1.096-1.946,1.92c-0.333,0.681-0.605,1.408-0.778,2.145
			c-0.224,0.947-0.333,1.924-0.465,2.889c-0.083,0.607-0.108,1.225-0.185,1.834c-0.01,0.076-0.175,0.193-0.26,0.186
			c-0.315-0.025-0.631-0.088-0.94-0.158c-0.063-0.015-0.145-0.133-0.141-0.197c0.049-0.996,0.072-1.994,0.183-2.982
			c0.091-0.822,0.203-1.658,0.453-2.439c0.425-1.316,1.098-2.5,2.366-3.212c0.129-0.071,0.298-0.11,0.445-0.104
			C77.924,79.327,78.325,79.381,78.79,79.428z"/>
		<path fill="#FFFFFF" d="M64.596,77.846c-1.062,0.046-1.729,0.711-2.296,1.457c-0.607,0.803-0.956,1.727-1.109,2.744
			c-0.141,0.933-0.044,1.819,0.171,2.719c0.077,0.324,0.104,0.662,0.16,1.025c-0.372-0.065-0.702-0.117-1.029-0.187
			c-0.06-0.013-0.138-0.091-0.149-0.149c-0.151-0.789-0.376-1.576-0.413-2.371c-0.036-0.748,0.033-1.531,0.227-2.254
			c0.396-1.477,1.459-2.756,3.16-3.089C63.722,77.66,64.168,77.803,64.596,77.846z"/>
		<path fill="#FFFFFF" d="M73.803,92.461c0,0.772,0,1.478,0,2.205c-0.434-0.101-0.874-0.197-1.313-0.306
			c-0.883-0.217-1.764-0.438-2.646-0.659c-0.806-0.201-1.611-0.408-2.417-0.611c-0.856-0.217-1.712-0.434-2.568-0.647
			c-0.401-0.103-0.806-0.194-1.206-0.302c-0.065-0.02-0.147-0.088-0.166-0.147c-0.136-0.463-0.258-0.929-0.416-1.513
			c0.179,0.209,0.297,0.316,0.381,0.449c0.275,0.437,0.624,0.75,1.158,0.848c0.691,0.125,1.377,0.273,2.063,0.434
			c0.474,0.108,0.938,0.254,1.408,0.373c0.457,0.115,0.92,0.211,1.378,0.324c0.881,0.221,1.759,0.456,2.644,0.664
			c0.133,0.032,0.324-0.003,0.433-0.084C72.952,93.176,73.347,92.834,73.803,92.461z"/>
		<path fill="#FFFFFF" d="M64.896,88.443c0.603,0.139,1.125,0.254,1.644,0.382c0.054,0.013,0.1,0.103,0.128,0.163
			c0.027,0.061,0.005,0.164,0.045,0.196c0.307,0.241,0.228,0.569,0.208,0.879c-0.021,0.328,0.225,0.327,0.431,0.358
			c0.041,0.006,0.141-0.107,0.143-0.168c0.013-0.399,0.007-0.802,0.007-1.221c0.792,0.188,1.507,0.352,2.218,0.529
			c0.052,0.013,0.079,0.125,0.117,0.191c0.002,0.004-0.011,0.016-0.01,0.023c0.141,0.854-0.592,0.865-1.079,1.096
			c-0.403,0.188-0.824,0.348-1.251,0.479c-0.141,0.044-0.377,0.011-0.478-0.084c-0.647-0.613-1.296-1.229-1.883-1.896
			C64.959,89.172,64.98,88.797,64.896,88.443z"/>
		<path fill="#FFFFFF" d="M59.104,86.004c0.684,0.123,1.349,0.229,2.009,0.362c0.813,0.163,1.622,0.354,2.435,0.521
			c0.571,0.117,1.148,0.203,1.722,0.314c0.59,0.116,1.175,0.254,1.764,0.369c0.589,0.117,1.181,0.215,1.77,0.33
			c0.595,0.117,1.188,0.245,1.78,0.368c0.276,0.059,0.553,0.126,0.829,0.175c0.863,0.156,1.729,0.303,2.589,0.46
			c0.482,0.089,0.957,0.218,1.442,0.285c0.363,0.053,0.382,0.263,0.331,0.558c-0.783-0.16-1.564-0.322-2.35-0.479
			c-0.811-0.159-1.624-0.303-2.433-0.471c-0.75-0.151-1.496-0.33-2.245-0.489c-0.556-0.119-1.114-0.224-1.671-0.339
			c-0.599-0.123-1.195-0.254-1.794-0.375c-0.557-0.113-1.116-0.215-1.672-0.332c-0.571-0.116-1.139-0.246-1.709-0.366
			c-0.757-0.159-1.515-0.312-2.271-0.476C59.385,86.368,59.083,86.357,59.104,86.004z"/>
		<path fill="#FFFFFF" d="M75.762,90.016c0.165,0.57-0.111,0.544-0.489,0.455c-1.46-0.338-2.924-0.653-4.384-0.987
			c-1.544-0.353-3.083-0.722-4.627-1.069c-1.358-0.305-2.722-0.586-4.082-0.884c-0.896-0.196-1.791-0.396-2.682-0.61
			c-0.128-0.033-0.229-0.174-0.272-0.34C64.742,87.725,70.259,88.873,75.762,90.016z"/>
		<path fill="#FFFFFF" d="M81.688,84.402c-0.381,0.305-0.672,0.545-0.971,0.775c-1.606,1.242-3.219,2.479-4.82,3.728
			c-0.307,0.239-0.598,0.036-0.887,0.006c-0.318-0.034-0.626-0.168-0.944-0.226c-0.607-0.111-1.224-0.184-1.829-0.303
			c-0.813-0.16-1.616-0.367-2.429-0.529c-0.602-0.119-1.214-0.188-1.816-0.303c-0.57-0.109-1.135-0.25-1.702-0.375
			c-0.277-0.062-0.555-0.119-0.833-0.17c-0.843-0.149-1.688-0.281-2.529-0.445c-0.826-0.163-1.645-0.363-2.47-0.53
			c-0.428-0.088-0.863-0.142-1.295-0.212c-0.001-0.039-0.002-0.078-0.004-0.117c0.29-0.133,0.579-0.266,0.899-0.41
			c0.064,0.608,0.521,0.59,0.922,0.666c0.881,0.166,1.761,0.346,2.642,0.516c0.568,0.109,1.138,0.203,1.705,0.313
			c0.651,0.126,1.3,0.267,1.951,0.39c0.583,0.113,1.17,0.203,1.753,0.314c0.616,0.118,1.229,0.253,1.846,0.372
			c0.582,0.113,1.168,0.212,1.751,0.326c0.624,0.12,1.246,0.251,1.87,0.376c0.313,0.063,0.627,0.166,0.939,0.16
			c0.196-0.004,0.413-0.145,0.58-0.276c1.465-1.165,2.921-2.341,4.379-3.515c0.073-0.059,0.189-0.126,0.197-0.198
			c0.046-0.563,0.413-0.386,0.731-0.335C81.408,84.414,81.493,84.402,81.688,84.402z"/>
		<path fill="#FFFFFF" d="M75.197,92.26c0,0.884-0.003,1.77,0.003,2.654c0.001,0.223-0.062,0.307-0.294,0.227
			c-0.212-0.073-0.438-0.102-0.647-0.184c-0.078-0.029-0.164-0.152-0.168-0.236c-0.044-1.293-0.079-2.586-0.099-3.879
			c-0.002-0.062,0.168-0.188,0.244-0.178c0.258,0.036,0.516,0.104,0.762,0.19c0.087,0.03,0.198,0.147,0.203,0.231
			c0.021,0.389,0.009,0.779,0.009,1.172C75.205,92.26,75.202,92.26,75.197,92.26z"/>
		<path fill="#FFFFFF" d="M63.225,92.213c-0.253-0.076-0.471-0.178-0.698-0.205c-0.551-0.067-0.677-0.481-0.797-0.912
			c-0.294-1.057-0.588-2.113-0.886-3.17c-0.038-0.133-0.095-0.262-0.158-0.434c0.428,0.096,0.801,0.159,1.158,0.271
			c0.103,0.033,0.199,0.197,0.233,0.318c0.106,0.373,0.166,0.76,0.271,1.133c0.131,0.465,0.301,0.92,0.432,1.387
			c0.11,0.395,0.186,0.799,0.284,1.195C63.093,91.914,63.151,92.023,63.225,92.213z"/>
		<path fill="#FFFFFF" d="M70.656,90.86c0.361-0.292,0.672-0.164,0.944,0.134c0.282,0.309,0.295,0.653,0.073,1.006
			c-0.185,0.291-0.583,0.516-0.842,0.377C71.364,91.481,71.364,91.481,70.656,90.86z"/>
		<path fill="#FFFFFF" d="M71.11,91.711c-0.169,0.156-0.322,0.42-0.511,0.447c-0.318,0.049-0.466-0.268-0.456-0.533
			c0.01-0.265,0.127-0.561,0.486-0.551C70.978,91.084,71.021,91.346,71.11,91.711z"/>
		<path fill="#FFFFFF" d="M63.571,89.279c0.096-0.415,0.386-0.134,0.491-0.076c0.403,0.221,0.563,0.79,0.23,1.191
			c-0.107,0.129-0.385,0.115-0.613,0.111c0.383-0.205,0.5-0.522,0.37-0.867c-0.061-0.159-0.317-0.246-0.485-0.366L63.571,89.279z"/>
		<path fill="#FFFFFF" d="M63.564,89.272c0.106,0.208,0.265,0.407,0.297,0.628c0.017,0.109-0.175,0.288-0.311,0.368
			c-0.047,0.026-0.257-0.122-0.316-0.233c-0.203-0.371-0.134-0.503,0.337-0.756L63.564,89.272z"/>
		<path fill="#FFFFFF" d="M80.144,82.086c-0.1,1.023-0.196,2.047-0.294,3.071c-0.043-0.004-0.085-0.009-0.128-0.013
			c0.099-1.027,0.196-2.057,0.295-3.084C80.059,82.069,80.101,82.078,80.144,82.086z"/>
		<path fill="#FFFFFF" d="M76.295,93.471c0.74-0.789,1.479-1.577,2.22-2.365c0.011,0.01,0.021,0.021,0.03,0.029
			c-0.756,0.771-1.512,1.545-2.268,2.317C76.285,93.459,76.288,93.463,76.295,93.471z"/>
		<path fill="#FFFFFF" d="M64.652,90.297c0.008-0.487,0.014-0.972-0.534-1.246C64.56,89.004,64.872,89.672,64.652,90.297z"/>
		<path fill="#FFFFFF" d="M78.953,89.723c0,0.223,0,0.445,0,0.669c-0.02-0.001-0.041-0.001-0.06-0.003c0-0.223,0-0.443,0-0.666
			C78.912,89.723,78.935,89.723,78.953,89.723z"/>
		<path fill="#FFFFFF" d="M71.556,92.412c0.14-0.193,0.277-0.389,0.416-0.582c0.026,0.019,0.053,0.035,0.078,0.055
			c-0.146,0.192-0.289,0.387-0.436,0.58C71.596,92.447,71.576,92.43,71.556,92.412z"/>
		<path fill="#FFFFFF" d="M78.831,90.616c0,0.22,0,0.437,0,0.655c-0.019,0.001-0.039,0.003-0.058,0.004
			c-0.013-0.221-0.025-0.439-0.038-0.659C78.768,90.616,78.8,90.616,78.831,90.616z"/>
		<path fill="#FFFFFF" d="M79.095,88.901c0,0.188,0,0.376,0,0.563c-0.017-0.002-0.031-0.002-0.05-0.002c0-0.188,0-0.375,0-0.563
			C79.063,88.9,79.078,88.9,79.095,88.901z"/>
		<path fill="#FFFFFF" d="M79.139,88.56c0.013-0.16,0.022-0.318,0.036-0.479c0.021,0.002,0.04,0.004,0.062,0.004
			c0,0.162,0,0.322,0,0.483C79.203,88.565,79.17,88.562,79.139,88.56z"/>
	</g>
</g>
<g>
	<path d="M33.07,60.797c-0.112,1.056-0.352,2.792-0.72,5.208l-0.48,0.504l0.264,0.216c0.032,0.032,0.048,0.08,0.048,0.144
		c-0.304,1.744-0.76,3.656-1.368,5.736l-0.432,0.384l0.264,0.504l-0.192,1.44c-0.032,0.096-0.08,0.144-0.144,0.144h-5.64
		c-0.656,0-1.216-0.056-1.68-0.168c-0.464-0.111-0.696-0.239-0.696-0.384c0-0.319,0.664-0.495,1.992-0.527
		c-0.352-1.072-0.864-2.912-1.536-5.521l0.216-0.456l-0.384-0.288c-0.496-2.191-0.896-4.456-1.2-6.792
		c-0.016-0.128,0.032-0.192,0.144-0.192l6.024-0.264c0.096,0,0.144,0.032,0.144,0.096l0.864,3.288l1.008-3.288
		c0.032-0.064,0.08-0.096,0.144-0.096l3.216,0.12C33.038,60.605,33.086,60.67,33.07,60.797z M32.734,60.917l-2.904-0.12
		l-1.152,3.672c-0.032,0.096-0.088,0.144-0.168,0.144c-0.064,0-0.104-0.048-0.12-0.144l-0.96-3.672l-5.712,0.264
		c0.192,1.313,0.567,3.472,1.128,6.48l0.408,0.287c0.096,0.064,0.12,0.129,0.072,0.192l-0.24,0.48
		c0.112,0.592,0.688,2.672,1.728,6.239h5.352l0.168-1.151l-0.312-0.553c-0.048-0.096-0.024-0.168,0.072-0.216l0.48-0.359
		c0.352-1.376,0.776-3.217,1.272-5.521l-0.312-0.288c-0.096-0.063-0.096-0.144,0-0.24l0.528-0.552
		C32.19,65.03,32.414,63.382,32.734,60.917z M24.478,62.958l-0.72,0.168l-0.144,0.768l-0.144-1.056L24.478,62.958z M25.774,66.726
		c-0.128-0.176-0.328-0.384-0.6-0.624c-0.16-0.08-0.4-0.08-0.72,0c0.304-0.192,0.56-0.256,0.768-0.192
		C25.43,65.974,25.614,66.245,25.774,66.726z M25.822,71.405l-1.008,0.145l0.096-1.008l0.168,0.743L25.822,71.405z M27.67,70.157
		c-0.432,0.032-0.728-0.048-0.888-0.239c-0.112-0.145-0.128-0.456-0.048-0.937c0.016,0.208,0.088,0.48,0.216,0.816
		C27.078,69.926,27.318,70.046,27.67,70.157z M28.654,65.405l-0.384,0.48l0.096,0.792l-0.336-0.696l-0.696-0.216l0.84-0.024
		L28.654,65.405z M28.822,72.894l-0.672,0.096l-0.48,0.553l0.24-0.696l-0.312-0.576l0.576,0.528L28.822,72.894z M30.238,70.109
		c-0.016-0.208-0.081-0.479-0.192-0.815c-0.176-0.176-0.424-0.296-0.744-0.36c0.448-0.032,0.744,0.048,0.888,0.24
		C30.334,69.365,30.35,69.678,30.238,70.109z M31.654,62.981l-0.12,1.008l-0.168-0.72l-0.768-0.144L31.654,62.981z"/>
	<path d="M44.35,71.813c0,0.944-0.168,2-0.504,3.168c-0.016,0.08-0.072,0.12-0.168,0.12h-0.504v0.288l-0.216,0.504
		c-0.032,0.063-0.08,0.096-0.144,0.096h-0.816c-0.896,0-1.344-0.096-1.344-0.288c0-0.16,0.36-0.264,1.08-0.312
		c0-0.08,0.008-0.128,0.024-0.145l0.096-0.144h-1.512l-0.048,0.384c-0.016,0.128-0.064,0.192-0.144,0.192h-0.6l-0.072,0.288
		c-0.016,0.096-0.072,0.144-0.168,0.144h-0.864c-1.185,0-1.776-0.136-1.776-0.408c0-0.224,0.48-0.368,1.44-0.432
		c0-0.096,0.032-0.152,0.096-0.168h-1.8c-0.656,0-1.216-0.056-1.68-0.168c-0.464-0.111-0.696-0.24-0.696-0.384
		c0-0.304,0.672-0.48,2.016-0.528c-0.016-0.048-0.032-0.12-0.048-0.216c0.064-0.112,0.12-0.28,0.168-0.504
		c-0.112-0.097-0.232-0.24-0.36-0.433c-0.416-2.127-0.608-4.296-0.576-6.504c0-0.063,0.064-0.168,0.192-0.312
		c0.128-0.145,0.192-0.256,0.192-0.336c0-0.048-0.064-0.124-0.192-0.229c-0.128-0.104-0.192-0.18-0.192-0.228
		c0.048-1.504,0.248-3.024,0.6-4.56c0.032-0.08,0.072-0.12,0.12-0.12c2.368-0.208,4.336-0.312,5.904-0.312
		c0.672,0,1.224,0.024,1.656,0.072c0.08,0,0.12,0.024,0.12,0.072c0.32,0.848,0.48,1.656,0.48,2.424c0,0.863-0.128,1.359-0.384,1.487
		l-2.28,0.696l2.28,0.744c0.096,0.032,0.144,0.08,0.144,0.144v0.912c0,0.08-0.048,0.137-0.144,0.168l-2.76,0.96l2.808,0.48
		c0.032,0,0.072,0.023,0.12,0.072c0.112,0.271,0.264,1,0.456,2.184c0,0.064-0.072,0.192-0.216,0.384
		c-0.144,0.192-0.216,0.313-0.216,0.36c0,0.064,0.072,0.128,0.216,0.191C44.278,71.686,44.35,71.75,44.35,71.813z M44.062,71.813
		c0-0.063-0.076-0.128-0.228-0.192c-0.152-0.063-0.228-0.127-0.228-0.191c0-0.048,0.072-0.16,0.216-0.336s0.216-0.296,0.216-0.36
		c-0.064-0.735-0.2-1.407-0.408-2.016l-3.336-0.576c-0.096-0.016-0.152-0.063-0.168-0.144c0-0.08,0.048-0.137,0.144-0.169
		l3.264-1.104v-0.696l-2.664-0.863c-0.08-0.032-0.128-0.08-0.144-0.145c0-0.063,0.048-0.111,0.144-0.144l2.688-0.841
		c0.144-0.352,0.216-0.768,0.216-1.247c0-0.673-0.136-1.393-0.408-2.161c-0.304-0.016-0.68-0.024-1.128-0.024
		c-2.145,0-4.184,0.096-6.12,0.288c-0.336,1.488-0.528,2.944-0.576,4.368c0,0.048,0.068,0.124,0.204,0.228
		c0.136,0.104,0.204,0.181,0.204,0.229c0,0.08-0.068,0.191-0.204,0.336c-0.136,0.144-0.204,0.248-0.204,0.312
		c-0.016,2.256,0.176,4.408,0.576,6.456c0.112,0.097,0.224,0.24,0.336,0.433c-0.064,0.096-0.112,0.256-0.144,0.479
		c0.064,0.288,0.152,0.633,0.264,1.032h1.608l-0.072-0.12c0-0.08,0.008-0.128,0.024-0.144c0.208-0.353,0.704-0.568,1.488-0.648
		c0.08,0,0.128,0.017,0.144,0.048l0.552,0.792l0.024,0.072h1.704c0.16-0.192,0.296-0.32,0.408-0.384
		c0.112,0.016,0.296,0.144,0.552,0.384h0.576C43.885,73.661,44.045,72.678,44.062,71.813z M37.75,68.262
		c-0.48,0-0.784-0.088-0.912-0.264c-0.128-0.177-0.136-0.488-0.024-0.937c0.016,0.208,0.08,0.48,0.192,0.816
		C37.118,68.021,37.366,68.149,37.75,68.262z M38.062,72.126l-1.056,0.144l0.12-1.008l0.168,0.72L38.062,72.126z M38.278,64.518
		l-0.576-0.528l-0.648-0.096l0.672-0.096l0.48-0.576l-0.24,0.72L38.278,64.518z M40.03,74.813l-0.48-0.647
		c-0.528,0.048-0.896,0.184-1.104,0.407l0.144,0.36l0.312-0.12l0.672,0.12c0.128,0.016,0.176,0.08,0.144,0.192l-0.072,0.216h0.36
		L40.03,74.813z M39.358,75.176l-0.384-0.074l-0.504,0.224l0.12,0.448h0.6L39.358,75.176z M40.942,69.533l-0.84,0.024l-0.48,0.336
		l0.384-0.48l-0.096-0.792l0.336,0.696L40.942,69.533z M40.774,66.989c0-0.224-0.064-0.504-0.192-0.84
		c-0.144-0.159-0.384-0.271-0.72-0.336c0.432-0.032,0.72,0.04,0.864,0.216C40.87,66.206,40.885,66.525,40.774,66.989z M42.43,61.614
		l-0.12,1.007l-0.168-0.744l-0.744-0.119L42.43,61.614z M42.982,72.462c-0.32,0.208-0.576,0.271-0.768,0.191
		c-0.225-0.063-0.4-0.327-0.528-0.792c0.224,0.336,0.416,0.544,0.576,0.624C42.421,72.582,42.662,72.573,42.982,72.462z
		 M42.838,75.029c-0.064-0.096-0.176-0.199-0.336-0.312c-0.081,0.032-0.168,0.144-0.264,0.336c-0.064,0.111-0.12,0.224-0.168,0.336
		l0.072,0.288h0.552L42.838,75.029z"/>
	<path d="M57.669,74.934c0,0.112-0.056,0.168-0.168,0.168h-4.8c-0.656,0-1.24-0.056-1.752-0.168c0,0.112-0.064,0.168-0.192,0.168
		h-3.12c-0.656,0-1.22-0.056-1.692-0.168c-0.472-0.111-0.708-0.24-0.708-0.384c0-0.32,0.688-0.496,2.064-0.528
		c-0.112-0.592-0.232-1.52-0.36-2.784c0.128-0.191,0.24-0.456,0.336-0.792c0-0.048-0.072-0.088-0.216-0.12
		c-0.144-0.031-0.216-0.079-0.216-0.144c-0.144-1.552-0.2-3.08-0.168-4.584c0-0.063,0.068-0.112,0.204-0.145
		c0.136-0.031,0.204-0.071,0.204-0.119c0-0.049-0.068-0.156-0.204-0.324c-0.136-0.168-0.204-0.284-0.204-0.349
		c0.016-0.783,0.08-1.968,0.192-3.552c0-0.08,0.04-0.12,0.12-0.12l5.688-0.648c0.112,0,0.176,0.024,0.192,0.072l1.2,3.336
		l0.36-3.097c0.016-0.08,0.072-0.12,0.168-0.12l2.544,0.192c0.08,0,0.12,0.048,0.12,0.144l0.168,4.656
		c0,0.064-0.008,0.096-0.024,0.096l-0.408,0.408l0.336,0.288c0.032,0.032,0.048,0.072,0.048,0.12L57.669,74.934z M57.357,74.766
		l-0.288-8.232l-0.408-0.359c-0.08-0.08-0.08-0.16,0-0.24l0.48-0.48l-0.192-4.416l-2.232-0.192l-0.432,3.624
		c-0.016,0.096-0.064,0.152-0.144,0.168s-0.136-0.024-0.168-0.12l-1.368-3.864l-5.448,0.624c-0.048,0.768-0.104,1.896-0.168,3.384
		c0,0.064,0.068,0.181,0.204,0.349c0.136,0.168,0.204,0.275,0.204,0.324c0,0.048-0.068,0.088-0.204,0.119
		c-0.136,0.032-0.204,0.081-0.204,0.145c0,1.744,0.048,3.264,0.144,4.56c0,0.048,0.072,0.089,0.216,0.12
		c0.144,0.032,0.224,0.08,0.24,0.145c0,0.063-0.057,0.191-0.168,0.384s-0.168,0.32-0.168,0.384c0.144,1.664,0.32,2.856,0.528,3.576
		h2.832v-2.808c0-0.097,0.032-0.152,0.096-0.168c0.064-0.032,0.128-0.009,0.192,0.071l1.896,2.904H57.357z M49.558,64.854
		l-0.576-0.312l-0.696,0.239l0.552-0.479l0.096-0.672l0.096,0.647L49.558,64.854z M49.51,71.813l-1.008,0.096l0.12-1.008l0.144,0.72
		L49.51,71.813z M51.333,68.502c-0.48,0.08-0.792,0.063-0.936-0.049c-0.192-0.159-0.272-0.455-0.24-0.888
		c0.112,0.368,0.228,0.608,0.348,0.72C50.625,68.397,50.902,68.47,51.333,68.502z M51.981,63.006
		c-0.112-0.368-0.228-0.608-0.348-0.721c-0.12-0.111-0.396-0.184-0.828-0.216c0.592-0.096,0.952-0.024,1.08,0.216
		C51.981,62.462,52.014,62.702,51.981,63.006z M51.934,74.046l-0.984-1.513v1.681C51.109,74.149,51.438,74.094,51.934,74.046z
		 M54.622,66.342l-0.312,0.479l-0.024,0.816l-0.216-0.696l-0.72-0.336l0.792,0.096L54.622,66.342z M54.598,70.325
		c0.08,0.192,0.016,0.448-0.192,0.769c0.112-0.32,0.12-0.561,0.024-0.72c-0.064-0.128-0.272-0.328-0.624-0.601
		C54.286,69.95,54.55,70.134,54.598,70.325z M56.014,73.325l-1.032-0.12l0.768-0.144l0.168-0.72L56.014,73.325z M56.47,63.27
		l-0.12,1.056l-0.144-0.768l-0.72-0.168L56.47,63.27z"/>
	<path d="M70.173,62.766c0,0.064-0.032,0.144-0.096,0.24c-0.064,0.096-0.096,0.168-0.096,0.216s0.028,0.124,0.084,0.228
		c0.056,0.104,0.076,0.188,0.06,0.252c-0.048,2.049-0.256,4.297-0.624,6.744c-0.032,0.112-0.08,0.168-0.144,0.168H67.75
		c0.032,0.257,0.072,0.648,0.12,1.177c0,0.048-0.048,0.136-0.144,0.264s-0.144,0.224-0.144,0.288c0,0.063,0.056,0.147,0.168,0.252
		c0.112,0.104,0.168,0.188,0.168,0.252l0.072,2.112c0,0.096-0.048,0.144-0.144,0.144h-4.92c-0.656,0-1.216-0.056-1.68-0.168
		c-0.464-0.113-0.696-0.241-0.696-0.386s0.22-0.269,0.66-0.373s0.972-0.156,1.596-0.156l0.12-3.444l-2.376-0.192
		c-0.048,0-0.088-0.04-0.12-0.12c-0.576-2.359-0.864-4.808-0.864-7.345c0-0.722,0.024-1.428,0.072-2.118
		c0-0.081,0.048-0.121,0.144-0.121c0.432-0.048,1.44-0.12,3.024-0.217c0.048,0,0.128,0.112,0.24,0.336
		c0.112,0.225,0.184,0.336,0.216,0.336c0.08,0,0.184-0.112,0.312-0.336c0.128-0.224,0.224-0.336,0.288-0.336
		c2.928-0.144,4.96-0.12,6.096,0.072c0.096,0.032,0.144,0.072,0.144,0.12C70.149,61.374,70.173,62.078,70.173,62.766z
		 M69.861,62.766c0-0.88-0.024-1.528-0.072-1.944c-0.944-0.16-2.92-0.176-5.928-0.048c-0.064,0-0.16,0.116-0.288,0.348
		c-0.128,0.232-0.232,0.348-0.312,0.348c-0.032,0-0.104-0.108-0.216-0.324s-0.192-0.324-0.24-0.324
		c-1.36,0.064-2.313,0.136-2.856,0.216c-0.048,0.624-0.072,1.264-0.072,1.92c0,2.8,0.28,5.176,0.84,7.128l2.376,0.191
		c0.08,0,0.12,0.048,0.12,0.145l-0.12,4.368h4.608c-0.016-0.225-0.048-0.872-0.096-1.944c0-0.063-0.06-0.147-0.18-0.252
		c-0.12-0.104-0.18-0.188-0.18-0.252c0-0.064,0.052-0.152,0.156-0.265c0.104-0.111,0.156-0.191,0.156-0.239
		c-0.016-0.336-0.056-0.8-0.12-1.393c-0.032-0.111,0.016-0.168,0.144-0.168h1.632c0.352-2.352,0.56-4.552,0.624-6.6
		c0.016-0.063-0.012-0.145-0.084-0.24c-0.072-0.096-0.108-0.168-0.108-0.216s0.036-0.12,0.108-0.216
		C69.826,62.909,69.861,62.83,69.861,62.766z M62.085,63.029l-0.72,0.192l-0.144,0.744l-0.144-1.032L62.085,63.029z M62.565,68.237
		l-1.032,0.12l0.12-1.008l0.168,0.744L62.565,68.237z M64.726,62.741c-0.208-0.319-0.408-0.527-0.6-0.624
		c-0.16-0.08-0.4-0.072-0.72,0.024c0.336-0.208,0.592-0.272,0.768-0.192C64.366,61.998,64.549,62.262,64.726,62.741z M65.565,72.846
		l-0.696,0.096l-0.48,0.576l0.24-0.696l-0.288-0.6l0.552,0.528L65.565,72.846z M65.397,69.485c-0.432,0.032-0.72-0.048-0.864-0.24
		c-0.144-0.191-0.16-0.504-0.048-0.936c0.016,0.208,0.08,0.488,0.192,0.84C64.837,69.31,65.077,69.422,65.397,69.485z
		 M66.381,64.758l-0.36,0.479l0.072,0.792l-0.312-0.695l-0.696-0.217l0.816-0.023L66.381,64.758z M68.638,68.67
		c-0.016-0.208-0.081-0.48-0.192-0.816c-0.176-0.176-0.424-0.296-0.744-0.36c0.448-0.048,0.744,0.032,0.888,0.24
		C68.701,67.878,68.717,68.189,68.638,68.67z M69.094,62.285l-0.12,1.009l-0.168-0.721l-0.768-0.144L69.094,62.285z"/>
	<path d="M82.533,66.485c0,0.048-0.064,0.141-0.192,0.276s-0.192,0.236-0.192,0.3c0,0.064,0.061,0.144,0.181,0.24
		c0.12,0.096,0.18,0.176,0.18,0.24c-0.048,1.056-0.152,2.256-0.312,3.6c-0.112,0.112-0.225,0.288-0.336,0.528
		c0.063,0.111,0.127,0.288,0.191,0.527c-0.128,1.041-0.288,1.969-0.48,2.784c0,0.08-0.047,0.12-0.144,0.12h-0.384v0.12l-0.216,0.479
		c-0.032,0.08-0.089,0.12-0.169,0.12h-0.791c-0.912,0-1.368-0.104-1.368-0.312c0-0.048-0.024-0.057-0.072-0.024l-0.096,0.313
		c-0.032,0.096-0.081,0.144-0.144,0.144h-0.889c-0.48,0-0.896-0.044-1.248-0.132s-0.527-0.188-0.527-0.3
		c0-0.225,0.487-0.36,1.463-0.408h-2.951c-0.656,0-1.212-0.056-1.668-0.168c-0.456-0.111-0.684-0.24-0.684-0.384
		c0-0.304,0.6-0.48,1.799-0.528c-0.207-0.464-0.424-1.184-0.647-2.16c0.128-0.128,0.248-0.296,0.36-0.504
		c-0.017-0.063-0.112-0.147-0.289-0.252c-0.176-0.104-0.272-0.195-0.288-0.276c-0.272-1.455-0.408-3.023-0.408-4.703
		c0-1.856,0.144-3.601,0.432-5.232c0.032-0.08,0.08-0.12,0.144-0.12l4.056,0.263c0.112,0,0.168,0.048,0.168,0.143l0.168,4.13
		l0.696-0.335l-0.072-3.988c0-0.111,0.049-0.167,0.145-0.167l4.104-0.382c0.111,0,0.176,0.048,0.191,0.144
		C82.517,62.374,82.613,64.342,82.533,66.485z M82.244,66.485c0.033-2.224-0.063-4.128-0.287-5.712l-3.84,0.336l0.072,4.008
		c0,0.081-0.033,0.129-0.097,0.145l-0.983,0.456c-0.129,0.08-0.201,0.032-0.217-0.145l-0.191-4.248l-3.768-0.264
		c-0.256,1.521-0.384,3.2-0.384,5.04c0,1.68,0.128,3.24,0.384,4.68c0.016,0.064,0.112,0.152,0.288,0.265
		c0.176,0.111,0.271,0.2,0.288,0.264c0.016,0.048-0.04,0.132-0.168,0.252s-0.192,0.204-0.192,0.252
		c0.24,1.056,0.568,2.04,0.984,2.952h2.977l-0.121-0.288c-0.016-0.048-0.008-0.104,0.024-0.168c0.192-0.336,0.681-0.544,1.464-0.624
		c0.08,0,0.129,0.017,0.145,0.048l0.552,0.769v0.264h0.769c0.079-0.063,0.207-0.152,0.383-0.264
		c0.129,0.016,0.265,0.104,0.408,0.264h0.576c0.08-0.416,0.232-1.288,0.456-2.616c-0.063-0.111-0.128-0.288-0.192-0.528
		c0-0.063,0.053-0.151,0.156-0.264c0.104-0.111,0.156-0.191,0.156-0.24c0.145-1.039,0.248-2.231,0.313-3.575
		c0-0.064-0.064-0.145-0.192-0.24c-0.128-0.097-0.192-0.176-0.192-0.24c0-0.063,0.072-0.164,0.217-0.3
		C82.173,66.626,82.244,66.533,82.244,66.485z M75.021,67.109c-0.465-0.111-0.736-0.288-0.816-0.527
		c-0.064-0.208,0-0.464,0.191-0.769c-0.08,0.336-0.088,0.576-0.023,0.72C74.453,66.693,74.669,66.886,75.021,67.109z M75.261,70.901
		l-1.008,0.097l0.12-1.057l0.168,0.769L75.261,70.901z M75.885,62.813l-0.768,0.168l-0.168,0.72l-0.096-1.008L75.885,62.813z
		 M76.917,72.678l-0.576,0.527l-0.071,0.624l-0.121-0.647l-0.527-0.576l0.6,0.313L76.917,72.678z M78.908,74.646l-0.504-0.647
		c-0.527,0.048-0.896,0.184-1.104,0.407l0.168,0.336l0.288-0.096l0.696,0.096c0.111,0.032,0.152,0.104,0.119,0.217l-0.071,0.216
		h0.36L78.908,74.646z M78.213,75.006l-0.384-0.048l-0.505,0.216l0.121,0.432h0.6L78.213,75.006z M79.076,68.981l-0.791-0.096
		l-0.48,0.359l0.336-0.479l0.024-0.816l0.216,0.696L79.076,68.981z M80.373,71.262c0,0.464-0.088,0.764-0.264,0.899
		c-0.177,0.137-0.488,0.148-0.937,0.036c0.208-0.016,0.479-0.079,0.815-0.191C80.133,71.894,80.261,71.646,80.373,71.262z
		 M79.629,75.102h-0.456v0.144c0.192-0.016,0.336-0.023,0.433-0.023C79.605,75.157,79.613,75.117,79.629,75.102z M80.686,75.174
		c-0.064-0.097-0.168-0.208-0.313-0.336c-0.176,0.096-0.328,0.224-0.456,0.384l0.071,0.264h0.576L80.686,75.174z M80.973,62.502
		l-0.119,1.008l-0.145-0.744l-0.744-0.168L80.973,62.502z M81.404,67.014c-0.111-0.368-0.224-0.608-0.336-0.72
		c-0.16-0.128-0.439-0.192-0.84-0.192c0.465-0.111,0.784-0.096,0.961,0.048C81.365,66.294,81.437,66.582,81.404,67.014z"/>
	<path d="M95.396,74.886c0.064,0.144,0.008,0.216-0.168,0.216h-4.512c-0.368,0-0.792-0.032-1.271-0.096
		c-0.017,0.063-0.072,0.096-0.168,0.096H85.82c-0.656,0-1.215-0.056-1.68-0.168c-0.463-0.111-0.695-0.24-0.695-0.384
		c0-0.32,0.728-0.496,2.184-0.528c-0.048-0.783-0.104-2.144-0.168-4.08c0-0.111,0.207-0.248,0.624-0.408
		c-0.224-0.176-0.448-0.407-0.672-0.695c-0.097-3.152-0.104-5.704-0.024-7.656c0-0.08,0.049-0.132,0.145-0.156
		c0.096-0.024,0.384-0.108,0.863-0.252c0.064-0.016,0.156,0.016,0.276,0.096s0.212,0.12,0.276,0.12
		c0.031-0.016,0.115-0.088,0.252-0.216c0.136-0.128,0.236-0.192,0.3-0.192c0.848-0.16,1.704-0.24,2.567-0.24
		c1.232,0,2.425,0.16,3.576,0.48c0.064,0.032,0.104,0.064,0.121,0.096c0.879,2.064,1.319,3.825,1.319,5.28
		c0,0.272-0.017,0.521-0.048,0.744l-1.584,1.152l1.08,3.744l-0.096,0.672l0.383,0.312L95.396,74.886z M95.037,74.766l-0.456-1.776
		l-0.408-0.288c-0.063-0.063-0.088-0.111-0.071-0.144l0.144-0.696l-1.128-3.768c-0.017-0.048,0-0.096,0.048-0.145l1.584-1.128
		c0.016-0.176,0.024-0.367,0.024-0.576c0-0.863-0.201-1.928-0.601-3.191c-0.224-0.656-0.456-1.304-0.696-1.944
		c-1.119-0.288-2.288-0.432-3.504-0.432c-0.816,0-1.624,0.064-2.424,0.192c-0.08,0.016-0.18,0.088-0.3,0.216
		c-0.12,0.128-0.196,0.2-0.228,0.216c-0.064,0-0.156-0.04-0.276-0.12s-0.204-0.12-0.252-0.12c-0.208,0.064-0.472,0.144-0.792,0.24
		c-0.049,1.647-0.041,4.16,0.023,7.536c0,0.063,0.112,0.184,0.336,0.359c0.225,0.177,0.336,0.288,0.336,0.336
		c0,0.064-0.104,0.133-0.312,0.204c-0.208,0.072-0.312,0.141-0.312,0.204c0.063,2.608,0.127,4.225,0.191,4.849h3.191l0.697-2.977
		c0.016-0.096,0.063-0.144,0.144-0.144c0.096,0,0.151,0.048,0.168,0.144l0.696,2.952H95.037z M87.525,65.909
		c-0.209,0.017-0.488,0.081-0.84,0.192c-0.16,0.192-0.273,0.432-0.336,0.72c-0.033-0.432,0.047-0.72,0.239-0.863
		C86.732,65.846,87.045,65.83,87.525,65.909z M88.245,72.342l-0.528,0.576l-0.12,0.647l-0.071-0.672l-0.576-0.48l0.695,0.24
		L88.245,72.342z M88.652,62.262l-0.744,0.168l-0.119,0.744l-0.145-1.032L88.652,62.262z M89.037,69.174
		c0.031,0.448-0.049,0.744-0.24,0.888s-0.504,0.16-0.936,0.048c0.207-0.016,0.479-0.08,0.815-0.191
		C88.854,69.741,88.973,69.494,89.037,69.174z M90.621,63.846l-0.264,1.775c-0.033,0.081-0.08,0.12-0.145,0.12l-1.896,0.192
		c-0.08,0-0.136-0.016-0.168-0.048c-0.031-0.032-0.031-0.088,0-0.168l0.912-2.16c0.032-0.063,0.088-0.096,0.168-0.096l1.248,0.216
		C90.589,63.693,90.637,63.75,90.621,63.846z M90.285,63.941l-0.961-0.144l-0.768,1.823l1.512-0.168L90.285,63.941z M90.357,74.021
		l-0.36-1.464l-0.336,1.512C89.789,74.054,90.021,74.038,90.357,74.021z M91.988,69.174l-0.479-0.384l-0.792,0.096l0.696-0.336
		l0.216-0.696l0.023,0.84L91.988,69.174z M92.9,62.502l-0.096,1.008l-0.191-0.72l-0.744-0.145L92.9,62.502z M92.925,73.014
		l-1.008-0.12l0.72-0.168l0.168-0.768L92.925,73.014z M93.885,65.621c-0.096,0.24-0.368,0.417-0.816,0.528
		c0.336-0.191,0.553-0.384,0.648-0.576c0.08-0.207,0.072-0.447-0.023-0.72C93.9,65.157,93.965,65.414,93.885,65.621z"/>
	<path d="M106.845,71.813c0,0.944-0.168,2-0.504,3.168c-0.017,0.08-0.071,0.12-0.168,0.12h-0.504v0.288l-0.216,0.504
		c-0.033,0.063-0.08,0.096-0.145,0.096h-0.816c-0.896,0-1.344-0.096-1.344-0.288c0-0.16,0.36-0.264,1.08-0.312
		c0-0.08,0.008-0.128,0.024-0.145l0.096-0.144h-1.512l-0.048,0.384c-0.016,0.128-0.064,0.192-0.145,0.192h-0.6l-0.072,0.288
		c-0.016,0.096-0.072,0.144-0.168,0.144h-0.863c-1.186,0-1.776-0.136-1.776-0.408c0-0.224,0.479-0.368,1.44-0.432
		c0-0.096,0.031-0.152,0.096-0.168H98.9c-0.656,0-1.216-0.056-1.68-0.168c-0.464-0.111-0.695-0.24-0.695-0.384
		c0-0.304,0.672-0.48,2.016-0.528c-0.016-0.048-0.032-0.12-0.049-0.216c0.064-0.112,0.121-0.28,0.168-0.504
		c-0.111-0.097-0.231-0.24-0.359-0.433c-0.416-2.127-0.608-4.296-0.576-6.504c0-0.063,0.064-0.168,0.192-0.312
		c0.128-0.145,0.192-0.256,0.192-0.336c0-0.048-0.064-0.124-0.192-0.229c-0.128-0.104-0.192-0.18-0.192-0.228
		c0.049-1.504,0.248-3.024,0.6-4.56c0.033-0.08,0.072-0.12,0.121-0.12c2.367-0.208,4.336-0.312,5.903-0.312
		c0.673,0,1.224,0.024,1.656,0.072c0.079,0,0.12,0.024,0.12,0.072c0.32,0.848,0.48,1.656,0.48,2.424
		c0,0.863-0.129,1.359-0.385,1.487l-2.279,0.696l2.279,0.744c0.096,0.032,0.145,0.08,0.145,0.144v0.912
		c0,0.08-0.049,0.137-0.145,0.168l-2.76,0.96l2.809,0.48c0.031,0,0.071,0.023,0.119,0.072c0.111,0.271,0.264,1,0.456,2.184
		c0,0.064-0.071,0.192-0.216,0.384c-0.145,0.192-0.217,0.313-0.217,0.36c0,0.064,0.072,0.128,0.217,0.191
		C106.773,71.686,106.845,71.75,106.845,71.813z M106.557,71.813c0-0.063-0.076-0.128-0.229-0.192
		c-0.151-0.063-0.227-0.127-0.227-0.191c0-0.048,0.071-0.16,0.215-0.336c0.145-0.176,0.217-0.296,0.217-0.36
		c-0.064-0.735-0.201-1.407-0.408-2.016l-3.336-0.576c-0.096-0.016-0.152-0.063-0.168-0.144c0-0.08,0.048-0.137,0.144-0.169
		l3.265-1.104v-0.696l-2.664-0.863c-0.08-0.032-0.129-0.08-0.145-0.145c0-0.063,0.049-0.111,0.145-0.144l2.688-0.841
		c0.145-0.352,0.217-0.768,0.217-1.247c0-0.673-0.137-1.393-0.408-2.161c-0.305-0.016-0.681-0.024-1.129-0.024
		c-2.145,0-4.184,0.096-6.119,0.288c-0.336,1.488-0.528,2.944-0.576,4.368c0,0.048,0.067,0.124,0.203,0.228
		c0.137,0.104,0.205,0.181,0.205,0.229c0,0.08-0.068,0.191-0.205,0.336c-0.136,0.144-0.203,0.248-0.203,0.312
		c-0.017,2.256,0.176,4.408,0.576,6.456c0.111,0.097,0.224,0.24,0.336,0.433c-0.064,0.096-0.112,0.256-0.145,0.479
		c0.064,0.288,0.152,0.633,0.264,1.032h1.608l-0.071-0.12c0-0.08,0.008-0.128,0.023-0.144c0.207-0.353,0.703-0.568,1.488-0.648
		c0.08,0,0.127,0.017,0.144,0.048l0.552,0.792l0.024,0.072h1.704c0.16-0.192,0.296-0.32,0.408-0.384
		c0.111,0.016,0.295,0.144,0.552,0.384h0.575C106.381,73.661,106.541,72.678,106.557,71.813z M100.244,68.262
		c-0.479,0-0.783-0.088-0.911-0.264c-0.128-0.177-0.136-0.488-0.024-0.937c0.016,0.208,0.08,0.48,0.192,0.816
		C99.613,68.021,99.861,68.149,100.244,68.262z M100.557,72.126l-1.056,0.144l0.12-1.008l0.168,0.72L100.557,72.126z
		 M100.773,64.518l-0.576-0.528l-0.648-0.096l0.672-0.096l0.48-0.576l-0.24,0.72L100.773,64.518z M102.525,74.813l-0.48-0.647
		c-0.528,0.048-0.896,0.184-1.104,0.407l0.144,0.36l0.312-0.12l0.672,0.12c0.129,0.016,0.176,0.08,0.145,0.192l-0.072,0.216h0.36
		L102.525,74.813z M101.854,75.176l-0.385-0.074l-0.504,0.224l0.12,0.448h0.601L101.854,75.176z M103.438,69.533l-0.841,0.024
		l-0.479,0.336l0.384-0.48l-0.097-0.792l0.336,0.696L103.438,69.533z M103.27,66.989c0-0.224-0.064-0.504-0.193-0.84
		c-0.144-0.159-0.383-0.271-0.719-0.336c0.432-0.032,0.719,0.04,0.863,0.216C103.365,66.206,103.381,66.525,103.27,66.989z
		 M104.925,61.614l-0.12,1.007l-0.168-0.744l-0.744-0.119L104.925,61.614z M105.477,72.462c-0.32,0.208-0.576,0.271-0.768,0.191
		c-0.225-0.063-0.4-0.327-0.528-0.792c0.224,0.336,0.416,0.544,0.576,0.624C104.916,72.582,105.156,72.573,105.477,72.462z
		 M105.333,75.029c-0.064-0.096-0.177-0.199-0.336-0.312c-0.081,0.032-0.169,0.144-0.265,0.336
		c-0.063,0.111-0.119,0.224-0.168,0.336l0.072,0.288h0.553L105.333,75.029z"/>
	<path d="M118.196,66.102c0.112,1.809,0.063,3.744-0.144,5.808c0,0.064-0.08,0.173-0.24,0.324c-0.16,0.152-0.24,0.261-0.24,0.324
		c0.288,0.048,0.424,0.168,0.408,0.36c-0.064,0.527-0.168,1.208-0.313,2.04c-0.031,0.096-0.08,0.144-0.144,0.144h-7.08
		c-0.64,0-1.185-0.056-1.632-0.168c-0.448-0.111-0.672-0.24-0.672-0.384c0-0.272,0.567-0.448,1.703-0.528
		c-0.32-0.672-0.567-1.472-0.744-2.4c-0.016-0.063,0.021-0.147,0.109-0.252c0.087-0.104,0.131-0.18,0.131-0.228
		c-0.144-0.128-0.287-0.32-0.432-0.576c-0.048-0.432-0.072-0.864-0.072-1.296c0-1.695,0.376-3.279,1.129-4.752
		c0.031-0.063,0.079-0.096,0.144-0.096c0.88-0.032,1.68,0,2.399,0.096l-0.047-3.6c0-0.096,0.047-0.144,0.144-0.144l2.28-0.144
		c0.063,0,0.111,0.016,0.144,0.048l0.288,0.336l0.288-0.504c0-0.048,0.04-0.072,0.12-0.072l1.775-0.192
		c0.08-0.016,0.137,0.024,0.168,0.12c0.111,0.64,0.271,2.168,0.48,4.583c0,0.064-0.053,0.156-0.156,0.276s-0.156,0.204-0.156,0.252
		C117.948,65.621,118.068,65.83,118.196,66.102z M117.885,66.102c-0.113-0.144-0.232-0.344-0.36-0.6
		c0-0.049,0.052-0.133,0.155-0.252c0.104-0.12,0.156-0.212,0.156-0.276c-0.128-2.096-0.279-3.56-0.455-4.392l-1.513,0.144
		l-0.36,0.672c-0.08,0.144-0.176,0.152-0.287,0.024l-0.408-0.48l-2.064,0.12l0.072,3.648c0,0.063-0.016,0.111-0.048,0.144
		s-0.081,0.04-0.144,0.024c-0.656-0.128-1.457-0.176-2.4-0.145c-0.721,1.425-1.08,2.952-1.08,4.584c0,0.4,0.023,0.801,0.072,1.2
		c0.127,0.128,0.264,0.328,0.408,0.6c-0.097,0.097-0.177,0.24-0.24,0.433c0.303,1.408,0.688,2.48,1.151,3.216h6.841l0.287-1.896
		c0-0.048-0.08-0.1-0.24-0.155c-0.16-0.057-0.239-0.108-0.239-0.156c0-0.063,0.096-0.176,0.288-0.336
		c0.191-0.16,0.287-0.272,0.287-0.336C117.924,69.678,117.965,67.75,117.885,66.102z M111.092,69.149
		c-0.447,0.032-0.744-0.048-0.888-0.24c-0.144-0.191-0.16-0.504-0.048-0.936c0.016,0.208,0.08,0.472,0.191,0.792
		C110.46,68.909,110.709,69.038,111.092,69.149z M112.053,73.661l-1.033,0.12l0.097-0.983l0.168,0.72L112.053,73.661z
		 M114.26,67.277l-2.279,1.488c-0.08,0.048-0.145,0.057-0.192,0.024s-0.063-0.088-0.048-0.169l0.191-2.039
		c0.033-0.112,0.097-0.152,0.192-0.12l2.089,0.527C114.452,67.054,114.468,67.149,114.26,67.277z M113.78,67.205l-1.56-0.384
		l-0.168,1.513L113.78,67.205z M114.549,69.701l-0.84,0.024l-0.48,0.336l0.384-0.479l-0.097-0.792l0.336,0.695L114.549,69.701z
		 M114.692,65.021l-0.552-0.528l-0.672-0.096l0.695-0.096l0.48-0.576l-0.24,0.696L114.692,65.021z M116.324,72.773
		c-0.32,0.208-0.568,0.272-0.744,0.192c-0.208-0.064-0.393-0.336-0.552-0.816c0.224,0.353,0.416,0.568,0.576,0.648
		C115.764,72.846,116.004,72.838,116.324,72.773z M116.805,61.877l-0.096,1.009l-0.169-0.744l-0.743-0.12L116.805,61.877z
		 M116.78,67.542c-0.017-0.225-0.089-0.505-0.216-0.841c-0.129-0.128-0.369-0.247-0.721-0.359c0.48,0,0.776,0.08,0.889,0.24
		C116.844,66.741,116.86,67.062,116.78,67.542z"/>
</g>
</svg>
