<?xml version="1.0" encoding="utf-8"?>
<!-- Generator: Adobe Illustrator 16.0.0, SVG Export Plug-In . SVG Version: 6.00 Build 0)  -->
<!DOCTYPE svg PUBLIC "-//W3C//DTD SVG 1.1//EN" "http://www.w3.org/Graphics/SVG/1.1/DTD/svg11.dtd">
<svg version="1.1" id="Layer_1" xmlns="http://www.w3.org/2000/svg" xmlns:xlink="http://www.w3.org/1999/xlink" x="0px" y="0px"
	 width="100px" height="100px" viewBox="22 22 100 100" enable-background="new 22 22 100 100" xml:space="preserve">
<g>
	<path fill="#FFFFFF" d="M32.275,102.1c0.458,3.563,2.992,5.139,5.302,5.572c2.686,0.504,5.511-0.643,6.889-2.968
		c1.613-2.722,1.083-5.241-1.034-7.515c0.062-0.078,0.104-0.15,0.163-0.205c4.213-3.892,8.435-7.774,12.629-11.686
		c0.466-0.435,0.787-0.148,1.174,0.003c0.385,0.151,0.646,0.327,0.641,0.853c-0.033,3.037-0.016,6.075-0.016,9.113
		c0,0.221,0,0.443,0,0.674c9.746,0,19.396,0,29.087,0c0-0.28,0-0.51,0-0.74c0-2.996-0.003-5.992,0.005-8.988
		c0.001-0.218,0.001-0.505,0.128-0.643c0.561-0.605,1.315-0.575,1.937,0c3.111,2.877,6.229,5.75,9.342,8.625
		c1.064,0.984,2.124,1.973,3.206,2.977c-2.109,2.221-2.658,4.714-1.152,7.37c1.381,2.435,3.682,3.476,6.416,3.179
		c3.316-0.357,5.364-2.236,5.85-5.455c1.063-0.365,2.074-0.609,2.994-1.047c2.611-1.244,3.83-4.454,2.783-7.143
		c-1.135-2.916-4.478-4.621-7.676-3.938c-1.279,0.273-2.412,0.828-3.414,1.709c-4.184-3.861-8.324-7.686-12.416-11.463
		c0.914-1.096,1.832-2.066,2.6-3.143c3.699-5.186,4.664-10.782,2.377-16.819c-0.138-0.364-0.072-0.548,0.206-0.798
		c1.116-0.998,2.202-2.029,3.302-3.044c1.299-1.2,2.601-2.396,3.914-3.605c0.119,0.078,0.209,0.126,0.288,0.19
		c2.547,2.052,6.029,2.176,8.7,0.309c2.725-1.905,3.316-5.568,1.318-8.198c-1.1-1.446-2.57-2.289-4.354-2.564
		c-0.49-0.075-0.658-0.271-0.785-0.761c-0.197-0.761-0.467-1.553-0.908-2.191c-1.566-2.266-4.544-3.215-7.381-2.456
		c-4.402,1.178-6.075,6.332-3.166,9.757c0.158,0.186,0.325,0.365,0.512,0.574c-2.11,1.946-4.183,3.856-6.255,5.768
		c-6.487-6.055-14.271-8.652-22.915-8.652c-8.661,0-16.459,2.611-22.917,8.652c-2.106-1.945-4.174-3.854-6.261-5.782
		c0.928-0.94,1.594-1.946,1.85-3.187c0.756-3.677-1.883-6.552-4.863-7.23c-3.03-0.689-7.428,0.918-8.003,4.991
		c-0.024,0.169-0.274,0.373-0.462,0.442c-0.806,0.295-1.679,0.447-2.436,0.833c-2.337,1.188-3.655,3.693-3.31,5.963
		c0.546,3.591,4.076,5.833,7.762,5.272c1.383-0.211,2.605-0.794,3.667-1.739c0.192,0.17,0.352,0.305,0.505,0.446
		c2.215,2.045,4.422,4.1,6.654,6.128c0.347,0.315,0.442,0.545,0.245,1.004c-0.747,1.744-1.087,3.592-1.154,5.478
		c-0.148,4.209,1.146,7.974,3.658,11.325c0.779,1.038,1.659,2.001,2.525,3.037c-4.127,3.811-8.272,7.637-12.411,11.455
		c-2.51-2.113-5.413-2.233-7.699-1.232c-4.138,1.813-5.216,6.898-1.614,9.959C29.438,101.529,30.798,101.932,32.275,102.1z"/>
	<path d="M32.275,102.1c-1.477-0.168-2.837-0.57-3.974-1.535c-3.603-3.061-2.525-8.146,1.614-9.959
		c2.285-1.001,5.188-0.881,7.699,1.232c4.138-3.819,8.283-7.645,12.411-11.455c-0.867-1.037-1.747-1.999-2.526-3.037
		c-2.511-3.351-3.806-7.116-3.658-11.325c0.066-1.885,0.406-3.733,1.154-5.477c0.197-0.459,0.102-0.689-0.246-1.004
		c-2.231-2.028-4.438-4.083-6.654-6.128c-0.153-0.142-0.312-0.276-0.505-0.446c-1.062,0.944-2.284,1.528-3.667,1.738
		c-3.686,0.562-7.216-1.681-7.762-5.271c-0.345-2.271,0.973-4.775,3.31-5.964c0.757-0.385,1.63-0.537,2.437-0.833
		c0.188-0.069,0.438-0.272,0.462-0.441c0.576-4.073,4.974-5.68,8.004-4.991c2.98,0.678,5.619,3.554,4.862,7.23
		c-0.255,1.241-0.921,2.246-1.85,3.186c2.087,1.928,4.155,3.837,6.261,5.782c6.458-6.041,14.256-8.651,22.917-8.651
		c8.645,0,16.429,2.597,22.915,8.652c2.073-1.911,4.145-3.821,6.255-5.767c-0.187-0.209-0.354-0.388-0.512-0.575
		c-2.908-3.424-1.236-8.579,3.166-9.757c2.838-0.759,5.814,0.19,7.381,2.456c0.441,0.639,0.711,1.43,0.908,2.191
		c0.128,0.491,0.295,0.686,0.785,0.762c1.783,0.275,3.254,1.119,4.354,2.564c1.998,2.63,1.406,6.293-1.318,8.198
		c-2.67,1.868-6.153,1.744-8.699-0.309c-0.08-0.063-0.17-0.112-0.289-0.19c-1.313,1.209-2.615,2.406-3.914,3.605
		c-1.1,1.016-2.186,2.047-3.301,3.045c-0.279,0.249-0.344,0.433-0.206,0.798c2.286,6.038,1.322,11.634-2.378,16.819
		c-0.768,1.076-1.686,2.047-2.599,3.143c4.091,3.777,8.231,7.602,12.415,11.463c1.002-0.881,2.135-1.436,3.415-1.709
		c3.197-0.684,6.54,1.021,7.675,3.938c1.047,2.688-0.171,5.898-2.783,7.142c-0.92,0.438-1.932,0.683-2.994,1.048
		c-0.485,3.218-2.533,5.097-5.849,5.455c-2.735,0.297-5.036-0.745-6.416-3.179c-1.507-2.656-0.958-5.149,1.151-7.37
		c-1.081-1.004-2.142-1.992-3.206-2.977c-3.113-2.875-6.23-5.748-9.342-8.625c-0.621-0.575-1.376-0.605-1.937,0
		c-0.127,0.138-0.127,0.425-0.127,0.643c-0.008,2.996-0.006,5.992-0.006,8.988c0,0.229,0,0.46,0,0.74c-9.691,0-19.342,0-29.087,0
		c0-0.231,0-0.453,0-0.674c0-3.039-0.017-6.076,0.016-9.114c0.005-0.524-0.256-0.7-0.641-0.852
		c-0.387-0.151-0.708-0.438-1.174-0.003c-4.195,3.911-8.417,7.793-12.629,11.686c-0.059,0.055-0.102,0.127-0.163,0.205
		c2.117,2.272,2.646,4.793,1.034,7.515c-1.377,2.325-4.203,3.472-6.889,2.968C35.267,107.238,32.733,105.663,32.275,102.1z
		 M65.843,93.226c1.195,0,2.302,0,3.499,0c0-0.8,0-1.566,0-2.317c0.459,0,0.827,0,1.262,0c0,0.802,0,1.553,0,2.305
		c1.342,0,2.615,0,3.961,0c0-0.796,0-1.545,0-2.315c0.439,0,0.806,0,1.265,0c0,0.802,0,1.567,0,2.315c1.2,0,2.307,0,3.476,0
		c0-0.797,0-1.547,0-2.31c0.432,0,0.797,0,1.232,0c0,0.792,0,1.541,0,2.323c1.219,0,2.366,0,3.59,0c0-0.261,0-0.486,0-0.712
		c0-2.573,0.041-5.147-0.025-7.72c-0.02-0.768,0.285-1.037,0.918-1.305c4.339-1.834,8.088-4.45,10.721-8.438
		c2.727-4.127,3.389-8.573,1.754-13.277c-1.178-3.389-3.385-6.051-6.174-8.239c-3.619-2.84-7.758-4.54-12.248-5.437
		c-5.355-1.07-10.654-0.836-15.886,0.712c-5.086,1.506-9.551,4.024-12.901,8.237c-2.507,3.153-3.784,6.734-3.451,10.813
		c0.336,4.116,2.259,7.447,5.117,10.303c2.405,2.403,5.247,4.151,8.386,5.42c0.503,0.203,0.688,0.457,0.681,1.014
		c-0.033,2.636-0.015,5.272-0.013,7.91c0,0.241,0.02,0.482,0.029,0.699c1.235,0,2.382,0,3.597,0c0-0.805,0-1.555,0-2.299
		c0.438,0,0.803,0,1.21,0C65.843,91.691,65.843,92.426,65.843,93.226z M38.631,97.719c5.177-4.78,10.292-9.504,15.435-14.254
		c-0.647-0.455-1.214-0.854-1.816-1.277c-5.075,4.682-10.131,9.348-15.238,14.059c-0.274-0.504-0.507-0.926-0.734-1.351
		c-1.107-2.077-3.452-2.774-5.502-1.634c-1.907,1.061-2.271,3.514-0.738,5.055c1.021,1.025,2.284,1.18,3.637,0.939
		c0.675-0.121,1.347-0.262,2.109-0.411c-0.14,0.681-0.256,1.273-0.385,1.863c-0.561,2.569,1.094,4.496,3.721,4.327
		c1.601-0.102,2.994-1.318,3.279-2.865c0.275-1.49-0.583-2.971-2.104-3.651C39.761,98.28,39.241,98.014,38.631,97.719z
		 M106.514,97.73c-0.691,0.32-1.264,0.588-1.837,0.851c-1.438,0.657-2.261,2.283-1.897,3.757c0.469,1.892,2.424,3.076,4.352,2.637
		c2.049-0.469,3.073-2.106,2.623-4.189c-0.135-0.626-0.258-1.254-0.4-1.941c0.398,0.079,0.682,0.156,0.972,0.188
		c0.917,0.103,1.846,0.319,2.751,0.249c1.336-0.104,2.332-0.871,2.785-2.161c0.465-1.329,0.104-2.487-0.93-3.44
		c-1.722-1.588-4.707-1.148-5.881,0.871c-0.315,0.542-0.605,1.098-0.933,1.695c-5.11-4.716-10.159-9.375-15.235-14.06
		c-0.604,0.427-1.182,0.835-1.814,1.282c2.596,2.396,5.148,4.754,7.701,7.111S103.877,95.295,106.514,97.73z M47.797,55.55
		c-3.063-2.829-6.091-5.626-9.177-8.476c0.593-0.274,1.104-0.518,1.622-0.748c0.995-0.441,1.719-1.14,2.048-2.193
		c0.414-1.324-0.053-2.705-1.194-3.606c-1.129-0.892-2.89-0.994-4.239-0.245c-1.175,0.651-1.736,1.831-1.524,3.272
		c0.106,0.721,0.264,1.434,0.41,2.216c-0.38-0.074-0.684-0.137-0.988-0.191c-1.078-0.191-2.158-0.464-3.241-0.04
		c-1.208,0.474-2.108,1.256-2.368,2.581c-0.245,1.249,0.192,2.282,1.162,3.091c1.797,1.501,4.636,1,5.811-1.027
		c0.303-0.523,0.583-1.061,0.893-1.627c3.201,2.953,6.344,5.853,9.521,8.783C46.961,56.733,47.359,56.17,47.797,55.55z
		 M108.121,48.555c0.283,0.524,0.521,0.968,0.763,1.409c0.911,1.665,2.441,2.384,4.295,2.02c1.45-0.285,2.597-1.393,2.827-2.73
		c0.24-1.393-0.426-2.689-1.813-3.453c-0.902-0.497-1.87-0.601-2.881-0.388c-0.623,0.131-1.254,0.225-1.928,0.343
		c0.129-0.67,0.23-1.25,0.352-1.827c0.299-1.427,0.01-2.64-1.249-3.508c-1.186-0.816-3.045-0.852-4.195-0.084
		c-2.257,1.503-2.094,4.594,0.314,5.842c0.603,0.313,1.226,0.585,1.896,0.902c-3.108,2.871-6.138,5.67-9.167,8.469
		c0.436,0.618,0.834,1.182,1.264,1.789C101.774,54.411,104.918,51.511,108.121,48.555z"/>
	<path fill="#FFFFFF" d="M65.843,93.226c0-0.8,0-1.533,0-2.316c-0.407,0-0.773,0-1.21,0c0,0.743,0,1.493,0,2.298
		c-1.215,0-2.362,0-3.597,0c-0.009-0.217-0.029-0.458-0.029-0.699c-0.002-2.637-0.019-5.274,0.013-7.91
		c0.007-0.557-0.178-0.811-0.681-1.014c-3.14-1.268-5.981-3.017-8.386-5.42c-2.858-2.855-4.781-6.188-5.117-10.303
		c-0.333-4.079,0.944-7.659,3.451-10.813c3.35-4.213,7.815-6.731,12.901-8.236c5.232-1.549,10.531-1.783,15.886-0.712
		c4.49,0.897,8.629,2.597,12.248,5.437c2.789,2.188,4.996,4.85,6.174,8.239c1.635,4.704,0.973,9.15-1.754,13.277
		c-2.633,3.988-6.382,6.604-10.721,8.438c-0.633,0.268-0.938,0.537-0.918,1.305c0.066,2.572,0.025,5.146,0.025,7.72
		c0,0.226,0,0.451,0,0.712c-1.224,0-2.371,0-3.59,0c0-0.782,0-1.531,0-2.323c-0.436,0-0.801,0-1.232,0c0,0.763,0,1.513,0,2.31
		c-1.169,0-2.275,0-3.476,0c0-0.748,0-1.514,0-2.314c-0.459,0-0.825,0-1.265,0c0,0.77,0,1.52,0,2.314c-1.346,0-2.619,0-3.961,0
		c0-0.752,0-1.503,0-2.304c-0.436,0-0.803,0-1.262,0c0,0.751,0,1.517,0,2.316C68.145,93.226,67.038,93.226,65.843,93.226z
		 M62.335,66.741c-1.364,0-2.23,0.23-3.494,0.926c-3.289,1.809-4.018,6.169-1.494,8.927c2.031,2.218,5.523,2.818,8.181,1.406
		c2.329-1.238,3.674-3.705,3.289-6.031C68.304,68.874,65.658,66.739,62.335,66.741z M82.723,66.576
		c-0.963,0.267-1.982,0.409-2.879,0.821c-4.087,1.88-4.833,6.986-1.472,9.771c2.436,2.018,5.938,2.121,8.497,0.25
		c2.51-1.836,3.19-5.04,1.546-7.677C87.13,67.681,85.168,66.769,82.723,66.576z M77.635,87.003c-1.707-2.729-3.353-5.358-5.07-8.104
		c-1.729,2.765-3.373,5.396-5.065,8.104C70.912,87.003,74.211,87.003,77.635,87.003z"/>
	<path fill="#FFFFFF" d="M38.631,97.719c0.61,0.295,1.13,0.562,1.662,0.8c1.521,0.681,2.379,2.161,2.104,3.651
		c-0.285,1.547-1.678,2.764-3.279,2.865c-2.626,0.169-4.281-1.758-3.721-4.327c0.129-0.59,0.245-1.183,0.385-1.863
		c-0.762,0.149-1.434,0.29-2.109,0.411c-1.354,0.24-2.617,0.086-3.637-0.939c-1.534-1.541-1.168-3.994,0.738-5.055
		c2.05-1.141,4.395-0.443,5.502,1.634c0.227,0.425,0.459,0.847,0.734,1.351c5.107-4.711,10.164-9.377,15.238-14.059
		c0.603,0.424,1.169,0.822,1.816,1.277C48.922,88.215,43.808,92.938,38.631,97.719z"/>
	<path fill="#FFFFFF" d="M106.514,97.73c-2.637-2.436-5.191-4.793-7.744-7.15s-5.105-4.715-7.701-7.111
		c0.633-0.447,1.209-0.855,1.814-1.282c5.076,4.685,10.125,9.343,15.235,14.059c0.327-0.597,0.617-1.152,0.933-1.694
		c1.174-2.02,4.159-2.459,5.881-0.871c1.032,0.953,1.395,2.111,0.93,3.439c-0.453,1.291-1.449,2.058-2.785,2.162
		c-0.905,0.07-1.834-0.146-2.751-0.249c-0.29-0.032-0.573-0.109-0.972-0.188c0.142,0.688,0.266,1.314,0.4,1.941
		c0.449,2.083-0.574,3.721-2.623,4.189c-1.928,0.439-3.883-0.745-4.352-2.637c-0.363-1.474,0.459-3.1,1.897-3.757
		C105.25,98.318,105.822,98.051,106.514,97.73z"/>
	<path fill="#FFFFFF" d="M47.797,55.55c-0.438,0.62-0.836,1.184-1.265,1.791c-3.176-2.931-6.32-5.831-9.52-8.783
		c-0.311,0.567-0.59,1.104-0.894,1.627c-1.175,2.027-4.014,2.528-5.811,1.027c-0.969-0.81-1.406-1.842-1.162-3.091
		c0.259-1.325,1.16-2.107,2.368-2.581c1.083-0.424,2.163-0.152,3.241,0.039c0.305,0.054,0.608,0.117,0.988,0.191
		c-0.146-0.782-0.303-1.495-0.41-2.216c-0.213-1.441,0.349-2.62,1.523-3.272c1.35-0.749,3.11-0.647,4.239,0.245
		c1.141,0.901,1.608,2.283,1.194,3.606c-0.329,1.053-1.053,1.751-2.048,2.193c-0.518,0.229-1.029,0.474-1.622,0.748
		C41.706,49.923,44.733,52.721,47.797,55.55z"/>
	<path fill="#FFFFFF" d="M108.121,48.555c-3.203,2.956-6.347,5.855-9.521,8.785c-0.43-0.607-0.828-1.171-1.264-1.789
		c3.029-2.799,6.059-5.598,9.167-8.468c-0.671-0.318-1.294-0.59-1.896-0.902c-2.408-1.249-2.571-4.339-0.314-5.843
		c1.15-0.767,3.01-0.732,4.195,0.084c1.259,0.868,1.548,2.081,1.249,3.508c-0.121,0.576-0.223,1.156-0.352,1.827
		c0.674-0.118,1.305-0.212,1.928-0.343c1.01-0.213,1.979-0.109,2.881,0.388c1.387,0.764,2.053,2.061,1.813,3.453
		c-0.23,1.338-1.377,2.445-2.827,2.73c-1.854,0.364-3.384-0.355-4.295-2.02C108.643,49.523,108.404,49.079,108.121,48.555z"/>
	<path d="M62.335,66.741c3.323-0.001,5.969,2.133,6.482,5.228c0.385,2.326-0.96,4.793-3.289,6.031
		c-2.657,1.412-6.15,0.812-8.181-1.406c-2.524-2.758-1.795-7.118,1.494-8.927C60.105,66.971,60.971,66.741,62.335,66.741z"/>
	<path d="M82.723,66.576c2.445,0.193,4.407,1.105,5.692,3.166c1.645,2.637,0.964,5.841-1.546,7.677
		c-2.559,1.871-6.062,1.768-8.496-0.25c-3.362-2.785-2.616-7.891,1.472-9.771C80.74,66.985,81.76,66.842,82.723,66.576z"/>
	<path d="M77.635,87.003c-3.424,0-6.723,0-10.135,0c1.692-2.708,3.336-5.34,5.065-8.104C74.282,81.645,75.928,84.274,77.635,87.003z
		"/>
</g>
</svg>
