<?xml version="1.0" encoding="utf-8"?>
<!-- Generator: Adobe Illustrator 16.0.0, SVG Export Plug-In . SVG Version: 6.00 Build 0)  -->
<!DOCTYPE svg PUBLIC "-//W3C//DTD SVG 1.1//EN" "http://www.w3.org/Graphics/SVG/1.1/DTD/svg11.dtd">
<svg version="1.1" id="Layer_1" xmlns="http://www.w3.org/2000/svg" xmlns:xlink="http://www.w3.org/1999/xlink" x="0px" y="0px"
	 width="466.672px" height="490px" viewBox="0 0 466.672 490" enable-background="new 0 0 466.672 490" xml:space="preserve">
<rect fill="#565F61" width="466.666" height="490.004"/>
<g>
	<g>
		<path fill="#FFFFFF" d="M138.803,433.961c0.723-0.173,1.42-0.367,2.053-0.611h-1.658
			C139.051,433.536,138.936,433.758,138.803,433.961z"/>
	</g>
	<g>
		<path fill="#AFB1B3" d="M26.387,118.438c9.953,9.544,29.861,0,41.473,0c18.25,1.591,28.201,19.086,44.793,19.086
			c14.932,0,24.887-6.361,26.545-20.675c0.988-7.586-1.572-15.168-5.549-22.417c-0.549,8.314-1.668,16.667-7.025,24.004
			c-14.379,20.146-28.758,0-42.031-7.423c-16.59-9.544-33.182-3.182-49.771-2.121c-5.701,0.421-10.527,0.17-14.213-1.271
			C21.627,112.541,23.328,116.679,26.387,118.438z"/>
	</g>
	<g>
		<path fill="#BCBEC0" d="M34.82,108.892c16.59-1.061,33.182-7.423,49.771,2.121c13.273,7.423,27.652,27.569,42.031,7.423
			c5.357-7.337,6.477-15.689,7.025-24.004c-2.693-4.91-6.033-9.668-9.383-14.164C112.652,65.953,102.699,65.953,87.768,58
			C69.52,46.867,51.27,26.191,28.045,26.191v1.591c-4.977-1.591-6.637,1.591-8.295,4.771l-1.658-3.181
			c-8.297,11.133-1.662,41.352,0,54.075c1.047,5.021,0.773,15.745,2.516,24.172C24.293,109.062,29.119,109.313,34.82,108.892z"/>
	</g>
	<g>
		<path fill="#AFB1B3" d="M60.172,236.521c-16.128-2.107-32.808-9.148-41.941-20.533c-1.428-1.74-2.6-3.404-3.58-5.016
			c0.842,8.362,2.012,17.432,5.1,20.389C25.787,237.147,49.658,237.671,60.172,236.521z"/>
	</g>
	<g>
		<path fill="#BCBEC0" d="M60.172,236.521c1.045-0.114,1.961-0.244,2.711-0.389c9.652-3.364,16.52-7.617,23.791-9.938
			c12.992-9.417,30.172-10.939,45.479-7.026c4.426,1.061,7.742,4.241,12.168,2.121c5.529-2.121,6.637-19.087,6.637-24.389
			c0-15.905,1.105-26.509,8.848-40.294c5.406-10.367,15.213-24.251,4.904-27.892c-15.592,4.423-37.035,22.306-47.081,24.713
			c-11.61,3.182-23.224,1.591-33.179-3.181c-6.635-4.772-13.271-11.134-21.566-12.725l4.977-1.59
			c-4.977-4.771-21.567-4.771-29.861-3.181c-24.885,6.361-28.203,46.122-24.885,65.209c0.631,3.022,1.021,7.885,1.537,13.011
			c0.98,1.611,2.152,3.275,3.58,5.016C27.364,227.373,44.044,234.414,60.172,236.521z"/>
	</g>
	<g>
		<path fill="#AFB1B3" d="M159.805,156.607c-7.742,13.785-8.848,24.389-8.848,40.294c0,5.302-1.107,22.268-6.637,24.389
			c-4.426,2.12-7.742-1.061-12.168-2.121c-15.307-3.913-32.486-2.391-45.479,7.026c6.48-2.068,13.281-2.604,22.66,0.395
			c14.932,3.181,28.205,17.495,43.135,7.953c13.273-7.953,6.635-15.904,6.635-27.039c-1.656-9.542,1.66-12.723,6.639-23.856
			c1.656-7.952,19.906-47.714,11.611-54.075c-3.227-2.321-7.635-2.278-12.645-0.856C175.018,132.356,165.211,146.24,159.805,156.607
			z"/>
	</g>
	<g>
		<path fill="#BCBEC0" d="M132.563,51.64c2.227,1.601,4.189,3.321,5.971,5.12c2.902,0.775,5.799,1.452,7.998,2.295
			c8.848,4.241,14.379,5.302,19.908,12.725c8.85,11.664,16.592,31.811,34.289,32.871s19.91-13.785,24.332-25.449
			c2.893-6.934,6.264-12.05,10.102-16.543c0.078-0.49,0.162-0.982,0.256-1.477c3.318-12.723,16.59-25.447,3.318-34.99
			c-8.295-7.952-24.885-6.361-34.838-4.771c-18.25,1.591-114.471-9.542-117.789,7.953l4.979,1.59
			C101.038,37.324,120.947,42.096,132.563,51.64z"/>
	</g>
	<g>
		<path fill="#AFB1B3" d="M200.729,104.65c-17.697-1.061-25.439-21.207-34.289-32.871c-5.529-7.423-11.061-8.483-19.908-12.725
			c-2.199-0.843-5.096-1.52-7.998-2.295c19.453,19.642,15.061,49.489,45.455,55.317c16.592,3.181,26.546,7.951,41.475-4.772
			c12.9-12.363,6.998-27.733,9.699-44.646c-3.838,4.493-7.209,9.609-10.102,16.543C220.639,90.865,218.426,105.711,200.729,104.65z"
			/>
	</g>
	<g>
		<path fill="#AFB1B3" d="M263.623,77.086l1.658-1.59c9.955,7.952,41.475,1.59,56.406,3.181c13.27,1.591,28.203,6.362,41.475,7.952
			c16.59,1.591,16.59-4.771,21.566-19.085c2.66-8.93,8.516-21.946,8.168-32.495c-3.9,5.934-8.279,12.319-10.775,18.704
			c-4.425,8.483-5.531,16.966-16.592,18.026c-5.529,1.061-8.848,0-13.271,1.061c-4.424,1.06-6.637,2.12-12.166,2.12
			c-9.957,0-18.805-5.302-28.758-6.362c-8.848-1.061-17.697,3.182-26.547,2.121c-8.848-1.061-15.484-9.543-18.801-15.905
			c-3.186-6.866-1.213-18.675,2.201-27.522C258.605,41.375,256.707,63.83,263.623,77.086z"/>
	</g>
	<g>
		<path fill="#BCBEC0" d="M265.986,54.813c3.316,6.362,9.953,14.844,18.801,15.905c8.85,1.061,17.699-3.182,26.547-2.121
			c9.953,1.06,18.801,6.362,28.758,6.362c5.529,0,7.742-1.06,12.166-2.12c4.424-1.061,7.742,0,13.271-1.061
			c11.061-1.061,12.167-9.543,16.592-18.026c2.496-6.385,6.875-12.771,10.775-18.704c-0.086-2.604-0.545-5.063-1.531-7.267
			c-4.979-11.134-9.955-7.952-21.569-9.543c-13.271-1.591-26.542-1.591-41.474-1.591s-29.862-4.771-43.133-1.591
			c-7.094,1.458-12.787,6.04-17.002,12.233C264.773,36.139,262.801,47.947,265.986,54.813z"/>
	</g>
	<g>
		<path fill="#AFB1B3" d="M438.531,225.531c-6.639,11.664-17.697,7.423-28.76,7.423c-15.482-1.061-38.711,5.302-45.348-11.664
			c-6.635-15.905-1.105-34.992-5.529-51.958c-1.105-7.422-2.213-16.966-5.531-24.388c-2.213-8.483-8.848-13.785-5.529-23.328
			c3.531-9.481,10.674-10.745,17.967-12.077c-7.734-0.858-15.701,0.041-24.205,0.947c0,3.182-1.66,4.771-1.66,7.951l1.66-1.589
			c-4.979,9.542,3.316,27.037,6.635,36.58c4.978,23.857,3.318,44.533,4.978,68.39c1.657,27.038,31.521,19.086,51.429,20.676
			c14.93,0,29.861,1.591,41.475-3.18c-4.008-7.688,0.592-20.53,3.4-31.055c-1.848,1.855-3.893,3.614-5.451,5.607
			C440.742,217.049,440.742,221.29,438.531,225.531z"/>
	</g>
	<g>
		<path fill="#BCBEC0" d="M449.43,180.466c-3.318-9.542,0-6.36-11.613-7.951c-16.59-3.182-41.475,1.591-48.109-17.495
			c-1.66-6.362,0-15.905-1.66-23.857c-1.661-4.771-4.979-9.543-4.979-15.904c-5.711-3.422-11.422-5.07-17.268-5.719
			c-7.293,1.332-14.436,2.596-17.967,12.077c-3.318,9.543,3.316,14.845,5.529,23.328c3.318,7.422,4.426,16.966,5.531,24.388
			c4.424,16.966-1.105,36.053,5.529,51.958c6.637,16.966,29.865,10.604,45.348,11.664c11.063,0,22.121,4.241,28.76-7.423
			c2.211-4.241,2.211-8.482,5.529-11.664c1.559-1.993,3.604-3.752,5.451-5.607c0.68-2.543,1.254-4.952,1.576-7.117
			C451.088,194.781,452.748,185.238,449.43,180.466z"/>
	</g>
	<g>
		<path fill="#BCBEC0" d="M403.137,88.745c-1.107,14.845-11.061,33.931,2.211,46.655c11.133,11.644,35.217,12.623,42.623-0.289
			c-0.391-3.716-1.242-7.346-1.859-10.311c-3.318-27.04,6.637-50.895,4.977-77.934c0-9.543-3.316-20.676-6.635-28.628
			c-8.295,0-28.203-3.182-31.521,4.771l-4.977,1.591c0,13.205-0.947,24.598-3.551,36.229
			C404.473,69.971,403.807,79.745,403.137,88.745z"/>
	</g>
	<g>
		<path fill="#AFB1B3" d="M404.637,147.066c6.637,6.362,29.861,11.135,38.156,4.771c5.201-3.989,5.836-10.48,5.178-16.727
			c-7.406,12.912-31.49,11.933-42.623,0.289c-13.271-12.725-3.318-31.811-2.211-46.655c0.67-9,1.336-18.774,1.268-27.915
			c-0.848,3.78-1.865,7.584-3.086,11.485C396.342,91.4,386.386,129.572,404.637,147.066z"/>
	</g>
	<g>
		<path fill="#BCBEC0" d="M165.578,274.304c-7.041-14.313-29.912-7.952-43.99-9.543c-15.836-1.591-33.432-1.591-49.266-4.771
			c-11.063-2.857-36.309-8.271-46.439-1.281c-2.781,8.353-1.217,20.764,2.012,25.143c8.213,12.725,41.057,11.664,55.135,12.725
			c22.289,1.06,41.059,1.06,50.443,22.268c3.52,7.422,3.52,20.146,15.25,20.146c4.66,0,9.313-2.795,12.613-6.219
			C169.496,314.132,170.232,284.824,165.578,274.304z"/>
	</g>
	<g>
		<path fill="#AFB1B3" d="M148.723,338.99c-11.73,0-11.73-12.725-15.25-20.146c-9.385-21.208-28.154-21.208-50.443-22.268
			c-14.078-1.061-46.922,0-55.135-12.725c-3.229-4.379-4.793-16.79-2.012-25.143c-1.148,0.793-2.113,1.736-2.83,2.871v-1.59
			c-10.557,9.542-7.037,33.399,5.279,41.352c12.318,7.952,38.709,6.361,54.545,6.361c15.838,0,31.672-3.181,40.471,12.725
			c7.039,11.133,1.76,28.628,19.355,28.628c8.338,0,14.455-6.748,18.633-16.284C158.036,336.195,153.383,338.99,148.723,338.99z"/>
	</g>
	<g>
		<path fill="#AFB1B3" d="M281.87,267.941c-9.954-4.771-26.544,9.544-34.839,12.725c-0.746,0.385-1.475,0.744-2.193,1.087
			c2.133,0.368,4.336,0.704,6.77,1.038c7.74,1.061,13.271,2.121,14.379,10.604c0,4.241-2.213,8.482-2.213,13.785
			c0,4.241,2.213,8.482,3.318,12.724c1.105,9.544,3.318,19.087,3.318,28.63c0,18.026,6.637,33.932-16.59,39.233
			c-19.91,4.241-33.182,1.061-51.986-4.241c-8.195-1.965-16.381-6.66-20.184-13.24c0.012,4.032,0.207,8.102,0.68,12.17
			c1.658,14.314,18.25,15.905,33.182,17.496c28.203,3.181,59.725,9.542,69.678-22.268c8.293-28.628,3.316-55.666,3.316-84.294
			C288.506,285.437,291.826,272.713,281.87,267.941z"/>
	</g>
	<g>
		<path fill="#BCBEC0" d="M201.834,383.525c18.805,5.302,32.076,8.482,51.986,4.241c23.227-5.302,16.59-21.207,16.59-39.233
			c0-9.543-2.213-19.086-3.318-28.63c-1.105-4.241-3.318-8.482-3.318-12.724c0-5.303,2.213-9.544,2.213-13.785
			c-1.107-8.482-6.639-9.543-14.379-10.604c-2.434-0.334-4.637-0.67-6.77-1.038c-20.072,9.599-30.072,3.408-50.895-4.268
			l-1.658,6.36c6.637,7.953-6.637,46.124-8.297,57.258c-1.186,9.106-2.367,19.028-2.338,29.182
			C185.453,376.865,193.639,381.561,201.834,383.525z"/>
	</g>
	<g>
		<path fill="#BCBEC0" d="M349.141,343.231c24.609,1.061,51.682-7.423,76.293-8.482c4.48-22.205,25.275-50.56,1.105-65.862
			c-18.348-1.985-37.531-7.053-54.809-10.487c-20.305-3.181-40.607,3.181-57.219-4.771c-7.383,3.181-9.227,11.133-11.074,17.495
			h2.76c-3.916,1.397,0.932,22.573,0.932,27.038c0.924,7.178,1.852,13.156,3.241,18.937
			C318.373,331.046,329.01,342.59,349.141,343.231z"/>
	</g>
	<g>
		<path fill="#AFB1B3" d="M353.273,350.646c20.301-1.59,71.982,4.772,86.748-7.951c12.922-11.134,14.768-58.849,7.385-73.162
			c-6.719,0.445-13.732,0.126-20.867-0.646c24.17,15.303,3.375,43.657-1.105,65.862c-24.611,1.06-51.684,9.543-76.293,8.482
			c-20.131-0.642-30.768-12.186-38.771-26.134c1.386,5.748,3.226,11.301,5.987,17.644
			C325.588,352.236,331.123,353.827,353.273,350.646z"/>
	</g>
	<g>
		<path fill="#AFB1B3" d="M447.771,375.038c-4.979-13.854-24.887-1.731-34.84,0c-2.234,0.583-4.521,1.009-6.834,1.331
			c3.344,1.729,8.719,1.132,12.523,2.721c3.316,2.309,8.848,6.928,11.061,11.545c4.424,8.082,4.424,25.4,4.424,34.637
			c0,20.783-11.061,36.946-30.969,35.793c-8.848,0-16.592-3.465-25.44-3.465c-8.849-1.154-18.802,1.154-28.757,1.154
			c-16.592-1.154-38.711,3.464-42.032-19.627c-0.55-4.037-0.002-13.255-0.687-21.761c-0.963,10.366-2.039,20.911-2.783,28.675
			c-1.658,22.513,4.977,25.977,24.885,24.244c18.248-1.731,31.521-1.731,48.111,1.732c18.25,3.463,53.088,1.732,66.359-10.393
			c14.931-12.121,4.979-29.438,3.318-45.024C444.453,406.211,451.088,383.697,447.771,375.038z"/>
	</g>
	<g>
		<path fill="#BCBEC0" d="M348.939,458.754c9.955,0,19.908-2.309,28.757-1.154c8.849,0,16.593,3.465,25.44,3.465
			c19.908,1.153,30.969-15.01,30.969-35.793c0-9.236,0-26.555-4.424-34.637c-2.213-4.617-7.744-9.236-11.061-11.545
			c-3.805-1.589-9.18-0.992-12.523-2.721c-11.424,1.588-23.605,0.401-34.641,0.401c-13.271,0-28.203-3.464-41.475-3.464
			c-6.637,0-31.522-3.464-23.227,12.123h1.658c0,6.688-1.01,19.176-2.193,31.937c0.685,8.506,0.137,17.724,0.687,21.761
			C310.229,462.218,332.348,457.6,348.939,458.754z"/>
	</g>
	<g>
		<path fill="#BCBEC0" d="M202.938,461.992c12.169,1.061,22.122,3.181,35.396,1.061c13.273-2.121,21.014-3.182,26.545-16.966
			c4.547-9.589,6.844-18.462,1.988-27.207c-14.068-2.268-33.311,1.409-46.379,0.156c-8.295,0-44.793-11.134-48.112,0v-6.362
			c0,11.134-4.978,19.086-8.294,28.629c-3.865,13.899,4.1,20.774,15.355,24.411C187.98,463.941,197.559,461.418,202.938,461.992z"/>
	</g>
	<g>
		<path fill="#AFB1B3" d="M266.867,418.88c4.855,8.745,2.559,17.618-1.988,27.207c-5.531,13.784-13.271,14.845-26.545,16.966
			c-13.273,2.12-23.227,0-35.396-1.061c-5.38-0.574-14.958,1.949-23.501,3.722c8.063,2.605,17.811,3.553,26.119,4.217
			c16.59,1.589,48.111,4.771,63.041-1.591c11.613-4.771,19.908-34.99,8.295-46.123C274.076,420.529,270.658,419.49,266.867,418.88z"
			/>
	</g>
	<g>
		<path fill="#BCBEC0" d="M28.183,467.294c4.425,1.061,11.061-2.121,16.593-2.121c8.848-1.06,15.484,4.241,24.333,5.302
			c17.696,2.121,33.183,2.121,46.453-10.604c4.521-4.333,13.464-17.158,11.759-25.176c-7.379-0.262-15.477-1.346-21.303-1.346
			c-18.25,0-38.158-3.181-58.064-1.59c-13.273,1.59-29.861,6.361-34.84,19.085c-0.523,1.629-0.873,3.147-1.102,4.584
			C14.674,461.393,20.244,466.123,28.183,467.294z"/>
	</g>
	<g>
		<path fill="#AFB1B3" d="M127.32,434.695c1.705,8.018-7.238,20.843-11.759,25.176c-13.271,12.725-28.757,12.725-46.453,10.604
			c-8.849-1.061-15.485-6.361-24.333-5.302c-5.532,0-12.168,3.182-16.593,2.121c-7.938-1.171-13.509-5.901-16.171-11.865
			c-2.652,16.793,14.021,20.738,29.305,19.273c21.566-1.591,76.312,7.952,89.586-9.542c6.441-9.263,3.525-24.493,7.9-31.199
			C135.6,434.727,131.578,434.846,127.32,434.695z"/>
	</g>
	<g>
		<path fill="#BCBEC0" d="M186.351,219.169c4.423,3.182,8.849,2.121,12.165,5.302c3.318,3.182,7.742,9.544,11.063,13.785
			c7.74,7.422,7.74,12.725,19.906,10.604c9.955-2.121,22.123-6.362,32.076-9.543c23.227-8.483,42.031-21.207,39.817-46.656
			c-2.21-22.268,4.425-43.475,14.38-63.621c3.027-5.808,5.584-11.838,7.059-17.986c0.447-7.164-0.207-14.29-6.107-18.062
			c-8.295-6.362-33.178-3.181-43.133-6.362c-19.908-4.771-21.568,1.591-28.203,17.495c-3.316,11.134-4.977,33.399-14.932,39.762
			c-11.613,4.771-16.59-4.771-28.203-3.181v-1.591c-1.658,0-1.658-1.591-3.316-1.591c-9.955,9.543-14.934,30.219-16.592,42.942
			c-1.389,10.673-2.784,20.224-4.174,29.597C180.139,213.985,183.039,217.355,186.351,219.169z"/>
	</g>
	<g>
		<path fill="#AFB1B3" d="M326.664,156.61c-1.658-9.544-4.977-22.267-4.977-31.81c0-3.886,0.824-8.826,1.129-13.748
			c-1.475,6.148-4.031,12.179-7.059,17.986c-9.955,20.146-16.59,41.354-14.38,63.621c2.214,25.449-16.591,38.173-39.817,46.656
			c-9.953,3.181-22.121,7.422-32.076,9.543c-12.166,2.121-12.166-3.182-19.906-10.604c-3.32-4.241-7.744-10.604-11.063-13.785
			c-3.316-3.181-7.742-2.12-12.165-5.302c-3.312-1.813-6.212-5.184-8.194-9.106c-0.266,1.803-0.533,3.6-0.803,5.395
			c-3.316,15.904,1.662,20.676,14.932,31.809c8.295,4.771,23.227,17.495,33.178,19.086c8.297,0,23.227-9.543,31.521-12.724
			c9.957-3.181,16.592-7.952,24.886-12.724c11.612-4.771,28.204-1.59,33.18-14.314C325.006,202.732,333.301,182.057,326.664,156.61z
			"/>
	</g>
	<g>
		<path fill="#BCBEC0" d="M55.086,406.854c20.707,3.181,40.262,4.241,60.969,0c16.104-3.182,14.953-7.423,24.156-19.087
			c5.365-7.419,3.781-13.558,6.051-20.407c-6.441-0.681-14.248-0.541-21.732-3.989c-12.076-6.362-12.076-15.905-17.254-27.038
			c-6.9-11.134-13.805-11.134-27.605-12.724c-10.354,0-53.488-6.362-55.213,6.361c0,0-5.176,33.654-5.176,39.762
			c-1.725,9.543-6.9,31.81-1.725,41.352c0.113,0.184,0.25,0.352,0.377,0.526C28.893,405.975,45.391,405.364,55.086,406.854z"/>
	</g>
	<g>
		<path fill="#AFB1B3" d="M146.262,367.359c-2.27,6.85-0.686,12.988-6.051,20.407c-9.203,11.664-8.053,15.905-24.156,19.087
			c-20.707,4.241-40.262,3.181-60.969,0c-9.695-1.489-26.193-0.879-37.152,4.756c7.559,10.441,37.809,5.836,51.383,5.836
			c13.805-1.59,27.607,0,43.137,0c8.627,0,18.98,1.591,27.605,1.591c17.256-1.591,20.705-20.676,20.705-34.99
			C160.764,370.536,154.674,368.248,146.262,367.359z"/>
	</g>
</g>
</svg>
