<?xml version="1.0" encoding="utf-8"?>
<!-- Generator: Adobe Illustrator 16.0.0, SVG Export Plug-In . SVG Version: 6.00 Build 0)  -->
<!DOCTYPE svg PUBLIC "-//W3C//DTD SVG 1.1//EN" "http://www.w3.org/Graphics/SVG/1.1/DTD/svg11.dtd">
<svg version="1.1" id="Layer_1" xmlns="http://www.w3.org/2000/svg" xmlns:xlink="http://www.w3.org/1999/xlink" x="0px" y="0px"
	 width="25px" height="25px" viewBox="0 0 25 25" enable-background="new 0 0 25 25" xml:space="preserve">
<rect x="-0.13" fill="#8E4B02" width="25.13" height="25"/>
<g>
	<g>
		<path fill="#FFFFFF" d="M7.306,22.143c0.039-0.011,0.076-0.021,0.11-0.031H7.327C7.319,22.12,7.313,22.131,7.306,22.143z"/>
	</g>
	<g>
		<path fill="#AFB1B3" d="M1.284,6.043c0.533,0.487,1.6,0,2.222,0c0.978,0.082,1.511,0.974,2.399,0.974
			c0.8,0,1.333-0.325,1.422-1.055C7.38,5.575,7.243,5.188,7.03,4.818C7,5.243,6.94,5.669,6.653,6.043
			c-0.771,1.028-1.54,0-2.252-0.378C3.513,5.177,2.624,5.502,1.735,5.556C1.43,5.578,1.172,5.565,0.974,5.491
			C1.028,5.742,1.12,5.954,1.284,6.043z"/>
	</g>
	<g>
		<path fill="#BCBEC0" d="M1.735,5.556c0.889-0.054,1.777-0.379,2.666,0.108C5.113,6.042,5.882,7.07,6.653,6.042
			C6.94,5.669,7,5.243,7.03,4.818c-0.145-0.25-0.323-0.493-0.503-0.723c-0.622-0.73-1.155-0.73-1.955-1.136
			c-0.978-0.568-1.955-1.623-3.2-1.623v0.081c-0.267-0.08-0.355,0.082-0.444,0.245L0.839,1.499c-0.444,0.568-0.089,2.11,0,2.759
			c0.057,0.256,0.042,0.804,0.135,1.233C1.172,5.565,1.43,5.578,1.735,5.556z"/>
	</g>
	<g>
		<path fill="#AFB1B3" d="M3.094,12.068c-0.864-0.107-1.758-0.467-2.247-1.048c-0.076-0.088-0.14-0.173-0.191-0.256
			c0.045,0.427,0.107,0.89,0.272,1.041C1.252,12.1,2.53,12.126,3.094,12.068z"/>
	</g>
	<g>
		<path fill="#BCBEC0" d="M3.094,12.068c0.056-0.006,0.104-0.013,0.146-0.02c0.517-0.171,0.885-0.389,1.274-0.507
			c0.695-0.48,1.616-0.558,2.437-0.358c0.236,0.054,0.414,0.216,0.651,0.108c0.296-0.108,0.355-0.974,0.355-1.244
			c0-0.812,0.06-1.353,0.474-2.056c0.29-0.529,0.815-1.237,0.263-1.423C7.858,6.793,6.71,7.706,6.172,7.829
			C5.55,7.991,4.928,7.91,4.395,7.666C4.039,7.423,3.684,7.098,3.239,7.017l0.267-0.081C3.239,6.692,2.35,6.692,1.905,6.773
			C0.572,7.098,0.394,9.126,0.572,10.1c0.034,0.154,0.055,0.402,0.083,0.664c0.052,0.083,0.115,0.167,0.191,0.256
			C1.336,11.601,2.229,11.96,3.094,12.068z"/>
	</g>
	<g>
		<path fill="#AFB1B3" d="M8.431,7.991c-0.414,0.703-0.474,1.244-0.474,2.056c0,0.271-0.06,1.136-0.355,1.244
			c-0.237,0.108-0.415-0.054-0.651-0.108c-0.82-0.2-1.741-0.122-2.437,0.358c0.347-0.105,0.711-0.133,1.214,0.02
			c0.8,0.162,1.511,0.893,2.311,0.406c0.711-0.406,0.355-0.812,0.355-1.379c-0.089-0.487,0.088-0.65,0.355-1.218
			c0.089-0.406,1.066-2.434,0.622-2.759C9.198,6.493,8.962,6.495,8.693,6.567C9.246,6.753,8.721,7.461,8.431,7.991z"/>
	</g>
	<g>
		<path fill="#BCBEC0" d="M6.972,2.635c0.119,0.082,0.225,0.169,0.32,0.261C7.447,2.936,7.603,2.97,7.72,3.014
			c0.474,0.216,0.77,0.27,1.066,0.649c0.475,0.595,0.89,1.623,1.837,1.677c0.948,0.054,1.067-0.704,1.304-1.298
			c0.155-0.354,0.336-0.615,0.541-0.844c0.005-0.025,0.009-0.05,0.014-0.075c0.178-0.649,0.889-1.298,0.178-1.785
			c-0.444-0.406-1.333-0.325-1.866-0.244C9.816,1.175,4.662,0.607,4.484,1.5L4.75,1.58C5.283,1.905,6.35,2.148,6.972,2.635z"/>
	</g>
	<g>
		<path fill="#AFB1B3" d="M10.623,5.34C9.676,5.286,9.261,4.258,8.786,3.663C8.49,3.284,8.194,3.23,7.72,3.014
			C7.603,2.97,7.447,2.936,7.292,2.896c1.042,1.002,0.807,2.525,2.435,2.822c0.889,0.162,1.422,0.406,2.222-0.244
			c0.691-0.631,0.375-1.415,0.52-2.278c-0.205,0.229-0.386,0.49-0.541,0.844C11.69,4.636,11.571,5.394,10.623,5.34z"/>
	</g>
	<g>
		<path fill="#AFB1B3" d="M13.993,3.934l0.089-0.082c0.533,0.406,2.223,0.082,3.021,0.163c0.711,0.081,1.51,0.325,2.222,0.406
			c0.889,0.081,0.889-0.244,1.155-0.974c0.143-0.456,0.455-1.12,0.438-1.658c-0.209,0.303-0.443,0.628-0.577,0.955
			c-0.237,0.433-0.296,0.865-0.889,0.919c-0.296,0.054-0.474,0-0.711,0.054c-0.237,0.054-0.354,0.108-0.652,0.108
			c-0.532,0-1.007-0.271-1.54-0.324c-0.474-0.054-0.947,0.162-1.422,0.108c-0.475-0.054-0.83-0.487-1.008-0.812
			c-0.17-0.35-0.064-0.953,0.117-1.404C13.725,2.111,13.622,3.257,13.993,3.934z"/>
	</g>
	<g>
		<path fill="#BCBEC0" d="M14.119,2.797c0.178,0.325,0.533,0.757,1.008,0.812c0.475,0.054,0.948-0.162,1.422-0.108
			c0.533,0.054,1.008,0.324,1.54,0.324c0.298,0,0.415-0.054,0.652-0.108c0.237-0.054,0.415,0,0.711-0.054
			c0.593-0.054,0.651-0.487,0.889-0.919c0.134-0.326,0.368-0.652,0.577-0.955c-0.005-0.133-0.029-0.258-0.082-0.371
			c-0.268-0.568-0.533-0.406-1.154-0.487C18.971,0.85,18.259,0.85,17.459,0.85s-1.6-0.244-2.311-0.082
			c-0.381,0.075-0.687,0.308-0.912,0.625C14.055,1.844,13.949,2.447,14.119,2.797z"/>
	</g>
	<g>
		<path fill="#AFB1B3" d="M23.363,11.507c-0.356,0.595-0.948,0.378-1.541,0.378c-0.829-0.054-2.074,0.271-2.43-0.595
			c-0.355-0.812-0.06-1.785-0.297-2.651c-0.06-0.378-0.117-0.865-0.296-1.244c-0.118-0.433-0.475-0.703-0.297-1.19
			c0.188-0.484,0.572-0.548,0.963-0.616c-0.414-0.044-0.842,0.002-1.297,0.048c0,0.162-0.089,0.243-0.089,0.405l0.089-0.081
			c-0.267,0.487,0.179,1.379,0.354,1.867c0.268,1.217,0.179,2.272,0.268,3.489c0.089,1.379,1.688,0.974,2.755,1.055
			c0.8,0,1.601,0.081,2.222-0.162c-0.213-0.393,0.032-1.047,0.184-1.584c-0.1,0.095-0.209,0.184-0.292,0.286
			C23.48,11.074,23.48,11.291,23.363,11.507z"/>
	</g>
	<g>
		<path fill="#BCBEC0" d="M23.945,9.208c-0.178-0.487,0-0.325-0.621-0.406c-0.889-0.163-2.223,0.081-2.577-0.893
			c-0.089-0.325,0-0.812-0.089-1.217c-0.09-0.244-0.268-0.487-0.268-0.812c-0.306-0.174-0.611-0.259-0.925-0.292
			c-0.391,0.068-0.772,0.132-0.963,0.616c-0.178,0.487,0.179,0.757,0.297,1.19c0.179,0.379,0.236,0.866,0.296,1.244
			c0.237,0.866-0.06,1.839,0.297,2.651c0.354,0.866,1.601,0.541,2.43,0.595c0.593,0,1.185,0.216,1.541-0.378
			c0.117-0.217,0.117-0.433,0.296-0.595c0.083-0.102,0.192-0.191,0.292-0.286c0.035-0.13,0.066-0.253,0.084-0.363
			C24.035,9.938,24.125,9.451,23.945,9.208z"/>
	</g>
	<g>
		<path fill="#BCBEC0" d="M21.467,4.528c-0.06,0.757-0.593,1.731,0.118,2.38c0.597,0.594,1.888,0.644,2.283-0.015
			c-0.021-0.19-0.066-0.375-0.101-0.526c-0.178-1.379,0.356-2.597,0.268-3.976c0-0.487-0.178-1.055-0.355-1.46
			c-0.443,0-1.511-0.163-1.688,0.243l-0.268,0.082c0,0.673-0.051,1.255-0.189,1.848C21.538,3.57,21.503,4.069,21.467,4.528z"/>
	</g>
	<g>
		<path fill="#AFB1B3" d="M21.547,7.504c0.355,0.325,1.6,0.568,2.044,0.243c0.279-0.203,0.313-0.535,0.277-0.853
			c-0.396,0.659-1.687,0.608-2.283,0.015c-0.711-0.649-0.178-1.623-0.118-2.38c0.036-0.459,0.071-0.958,0.067-1.424
			c-0.046,0.193-0.101,0.387-0.165,0.586C21.104,4.664,20.568,6.611,21.547,7.504z"/>
	</g>
	<g>
		<path fill="#BCBEC0" d="M8.74,13.996c-0.377-0.73-1.603-0.406-2.356-0.487c-0.849-0.082-1.791-0.082-2.64-0.243
			C3.152,13.12,1.8,12.843,1.257,13.2c-0.149,0.426-0.065,1.06,0.107,1.282c0.44,0.649,2.199,0.596,2.954,0.649
			c1.193,0.054,2.199,0.054,2.702,1.136c0.188,0.379,0.188,1.028,0.817,1.028c0.249,0,0.498-0.144,0.675-0.317
			C8.95,16.027,8.989,14.532,8.74,13.996z"/>
	</g>
	<g>
		<path fill="#AFB1B3" d="M7.838,17.296c-0.629,0-0.629-0.649-0.817-1.028c-0.503-1.082-1.509-1.082-2.702-1.136
			c-0.755-0.054-2.514,0-2.954-0.649C1.192,14.26,1.108,13.627,1.258,13.2c-0.062,0.041-0.113,0.089-0.151,0.146v-0.08
			c-0.565,0.486-0.377,1.703,0.282,2.109C2.048,15.781,3.462,15.7,4.31,15.7c0.849,0,1.697-0.163,2.169,0.649
			c0.377,0.567,0.094,1.459,1.036,1.459c0.447,0,0.774-0.344,0.998-0.83C8.336,17.152,8.087,17.296,7.838,17.296z"/>
	</g>
	<g>
		<path fill="#AFB1B3" d="M14.971,13.671c-0.533-0.244-1.423,0.487-1.867,0.649c-0.039,0.02-0.078,0.037-0.117,0.056
			c0.115,0.019,0.232,0.036,0.363,0.054c0.414,0.053,0.711,0.107,0.771,0.541c0,0.217-0.118,0.432-0.118,0.703
			c0,0.217,0.118,0.434,0.178,0.649c0.061,0.487,0.178,0.974,0.178,1.461c0,0.919,0.355,1.731-0.889,2.001
			c-1.066,0.217-1.777,0.054-2.785-0.217c-0.439-0.1-0.878-0.34-1.081-0.674c0,0.205,0.011,0.412,0.036,0.621
			c0.089,0.729,0.978,0.812,1.777,0.892c1.512,0.163,3.2,0.487,3.732-1.136c0.444-1.461,0.179-2.84,0.179-4.301
			C15.326,14.563,15.504,13.915,14.971,13.671z"/>
	</g>
	<g>
		<path fill="#BCBEC0" d="M10.683,19.568c1.008,0.271,1.719,0.433,2.785,0.216c1.244-0.271,0.89-1.082,0.89-2.001
			c0-0.487-0.119-0.975-0.178-1.461c-0.061-0.217-0.179-0.434-0.179-0.649c0-0.271,0.118-0.487,0.118-0.704
			c-0.059-0.433-0.355-0.486-0.771-0.541c-0.13-0.017-0.248-0.033-0.362-0.053c-1.075,0.49-1.611,0.174-2.727-0.218l-0.089,0.325
			c0.355,0.406-0.355,2.353-0.444,2.92c-0.063,0.465-0.127,0.972-0.125,1.49C9.805,19.229,10.243,19.468,10.683,19.568z"/>
	</g>
	<g>
		<path fill="#BCBEC0" d="M18.574,17.512c1.318,0.055,2.769-0.379,4.087-0.433c0.239-1.134,1.354-2.58,0.06-3.36
			c-0.982-0.102-2.011-0.359-2.937-0.535c-1.089-0.162-2.177,0.162-3.065-0.244c-0.396,0.164-0.494,0.568-0.593,0.893h0.147
			c-0.211,0.071,0.05,1.151,0.05,1.38c0.05,0.366,0.1,0.671,0.174,0.967C16.926,16.891,17.496,17.479,18.574,17.512z"/>
	</g>
	<g>
		<path fill="#AFB1B3" d="M18.796,17.891c1.087-0.082,3.854,0.243,4.646-0.406c0.692-0.567,0.791-3.002,0.396-3.732
			c-0.359,0.023-0.734,0.006-1.117-0.033c1.295,0.781,0.182,2.227-0.06,3.36c-1.318,0.054-2.769,0.487-4.087,0.433
			c-1.078-0.033-1.648-0.621-2.077-1.332c0.073,0.293,0.173,0.576,0.319,0.899C17.313,17.973,17.607,18.053,18.796,17.891z"/>
	</g>
	<g>
		<path fill="#AFB1B3" d="M23.857,19.135c-0.268-0.707-1.334-0.088-1.866,0c-0.119,0.03-0.242,0.053-0.366,0.068
			c0.18,0.088,0.468,0.058,0.671,0.139c0.179,0.118,0.476,0.354,0.593,0.59c0.237,0.411,0.237,1.295,0.237,1.768
			c0,1.061-0.593,1.885-1.659,1.826c-0.474,0-0.889-0.178-1.363-0.178c-0.474-0.06-1.006,0.06-1.539,0.06
			c-0.89-0.06-2.074,0.177-2.252-1.001c-0.029-0.207,0-0.678-0.037-1.111c-0.051,0.529-0.108,1.066-0.148,1.463
			c-0.089,1.149,0.268,1.326,1.333,1.238c0.978-0.089,1.688-0.089,2.577,0.088c0.979,0.176,2.844,0.088,3.555-0.529
			c0.801-0.619,0.268-1.503,0.178-2.299C23.68,20.727,24.035,19.577,23.857,19.135z"/>
	</g>
	<g>
		<path fill="#BCBEC0" d="M18.563,23.406c0.533,0,1.066-0.118,1.541-0.061c0.475,0,0.89,0.178,1.362,0.178
			c1.066,0.06,1.659-0.766,1.659-1.825c0-0.472,0-1.355-0.236-1.769c-0.119-0.234-0.416-0.471-0.594-0.589
			c-0.203-0.081-0.49-0.051-0.671-0.139c-0.61,0.081-1.265,0.021-1.854,0.021c-0.711,0-1.512-0.177-2.223-0.177
			c-0.355,0-1.688-0.177-1.244,0.619h0.09c0,0.342-0.056,0.979-0.119,1.629c0.037,0.435,0.009,0.904,0.037,1.11
			C16.488,23.583,17.675,23.348,18.563,23.406z"/>
	</g>
	<g>
		<path fill="#BCBEC0" d="M10.742,23.57c0.651,0.056,1.185,0.162,1.896,0.056c0.711-0.108,1.125-0.163,1.422-0.866
			c0.244-0.488,0.366-0.941,0.106-1.388c-0.754-0.116-1.785,0.071-2.485,0.008c-0.444,0-2.399-0.567-2.577,0v-0.323
			c0,0.566-0.267,0.973-0.444,1.459c-0.207,0.711,0.22,1.061,0.822,1.245C9.94,23.671,10.454,23.542,10.742,23.57z"/>
	</g>
	<g>
		<path fill="#AFB1B3" d="M14.167,21.372c0.26,0.444,0.138,0.897-0.106,1.388c-0.297,0.703-0.711,0.758-1.422,0.866
			c-0.711,0.106-1.244,0-1.896-0.056c-0.288-0.028-0.802,0.101-1.26,0.189c0.433,0.133,0.954,0.182,1.399,0.217
			c0.889,0.08,2.578,0.242,3.378-0.082c0.622-0.244,1.066-1.785,0.444-2.354C14.553,21.456,14.37,21.402,14.167,21.372z"/>
	</g>
	<g>
		<path fill="#BCBEC0" d="M1.38,23.842c0.237,0.055,0.593-0.107,0.889-0.107c0.475-0.055,0.83,0.217,1.304,0.271
			c0.948,0.108,1.777,0.108,2.488-0.541c0.242-0.221,0.722-0.875,0.63-1.284c-0.395-0.015-0.83-0.07-1.141-0.07
			c-0.978,0-2.044-0.161-3.11-0.082c-0.712,0.082-1.601,0.326-1.867,0.976c-0.027,0.082-0.047,0.16-0.059,0.233
			C0.656,23.54,0.955,23.782,1.38,23.842z"/>
	</g>
	<g>
		<path fill="#AFB1B3" d="M6.69,22.18c0.092,0.408-0.388,1.063-0.63,1.283c-0.711,0.648-1.54,0.648-2.488,0.541
			c-0.474-0.054-0.829-0.324-1.304-0.271c-0.296,0-0.651,0.162-0.889,0.108c-0.425-0.06-0.724-0.302-0.866-0.604
			c-0.143,0.855,0.751,1.058,1.57,0.982c1.155-0.08,4.088,0.406,4.799-0.486c0.345-0.473,0.188-1.25,0.423-1.592
			C7.135,22.182,6.919,22.188,6.69,22.18z"/>
	</g>
	<g>
		<path fill="#BCBEC0" d="M9.854,11.183c0.236,0.162,0.474,0.108,0.651,0.271c0.178,0.162,0.415,0.487,0.593,0.703
			c0.414,0.379,0.414,0.649,1.066,0.541c0.533-0.108,1.186-0.325,1.718-0.487c1.245-0.433,2.252-1.082,2.134-2.38
			c-0.117-1.136,0.236-2.218,0.771-3.246c0.162-0.296,0.299-0.604,0.378-0.917c0.022-0.366-0.013-0.729-0.327-0.921
			c-0.445-0.327-1.777-0.164-2.313-0.327c-1.065-0.244-1.155,0.081-1.512,0.893c-0.177,0.568-0.267,1.704-0.8,2.028
			c-0.622,0.244-0.889-0.243-1.511-0.162V7.098c-0.089,0-0.089-0.081-0.178-0.081c-0.533,0.487-0.8,1.542-0.889,2.191
			c-0.074,0.544-0.149,1.032-0.224,1.51C9.521,10.918,9.676,11.09,9.854,11.183z"/>
	</g>
	<g>
		<path fill="#AFB1B3" d="M17.37,7.991c-0.089-0.487-0.267-1.136-0.267-1.623c0-0.198,0.043-0.45,0.061-0.701
			c-0.079,0.313-0.216,0.621-0.378,0.917c-0.534,1.028-0.89,2.11-0.771,3.246c0.117,1.298-0.89,1.948-2.135,2.38
			c-0.533,0.162-1.185,0.378-1.718,0.487c-0.652,0.108-0.652-0.162-1.066-0.541c-0.178-0.216-0.415-0.541-0.593-0.703
			c-0.178-0.163-0.415-0.108-0.651-0.271c-0.178-0.093-0.333-0.265-0.439-0.465C9.4,10.81,9.386,10.901,9.371,10.993
			c-0.178,0.812,0.089,1.055,0.8,1.623c0.444,0.243,1.244,0.893,1.777,0.974c0.444,0,1.243-0.486,1.688-0.649
			c0.533-0.162,0.889-0.406,1.334-0.649c0.621-0.244,1.51-0.081,1.776-0.73C17.281,10.344,17.727,9.289,17.37,7.991z"/>
	</g>
	<g>
		<path fill="#BCBEC0" d="M2.821,20.759c1.109,0.162,2.157,0.216,3.266,0c0.863-0.163,0.802-0.379,1.295-0.975
			c0.287-0.378,0.202-0.691,0.324-1.041c-0.346-0.035-0.764-0.028-1.165-0.204c-0.646-0.325-0.646-0.813-0.924-1.379
			c-0.37-0.568-0.739-0.568-1.479-0.649c-0.554,0-2.865-0.325-2.957,0.324c0,0-0.277,1.717-0.277,2.029
			c-0.093,0.487-0.37,1.622-0.093,2.108c0.006,0.01,0.014,0.019,0.021,0.027C1.418,20.714,2.302,20.684,2.821,20.759z"/>
	</g>
	<g>
		<path fill="#AFB1B3" d="M7.706,18.743c-0.122,0.35-0.037,0.663-0.324,1.041c-0.493,0.596-0.432,0.812-1.295,0.975
			c-1.108,0.216-2.156,0.162-3.266,0c-0.52-0.075-1.403-0.045-1.99,0.242c0.404,0.533,2.025,0.297,2.753,0.297
			c0.739-0.08,1.479,0,2.311,0c0.462,0,1.017,0.082,1.479,0.082c0.925-0.082,1.109-1.055,1.109-1.784
			C8.482,18.904,8.156,18.789,7.706,18.743z"/>
	</g>
</g>
</svg>
