<?xml version="1.0" encoding="utf-8"?>
<!-- Generator: Adobe Illustrator 16.0.0, SVG Export Plug-In . SVG Version: 6.00 Build 0)  -->
<!DOCTYPE svg PUBLIC "-//W3C//DTD SVG 1.1//EN" "http://www.w3.org/Graphics/SVG/1.1/DTD/svg11.dtd">
<svg version="1.1" id="Layer_1" xmlns="http://www.w3.org/2000/svg" xmlns:xlink="http://www.w3.org/1999/xlink" x="0px" y="0px"
	 width="35px" height="35px" viewBox="-5 -5 35 35" enable-background="new -5 -5 35 35" xml:space="preserve">
<rect x="-5.062" y="-5" fill="#8E4B02" width="35" height="35"/>
<g>
	<g>
		<path fill="#FFFFFF" d="M5.295,26c0.055-0.016,0.105-0.029,0.153-0.044H5.324C5.313,25.968,5.305,25.983,5.295,26z"/>
	</g>
	<g>
		<path fill="#AFB1B3" d="M-3.092,3.46c0.742,0.682,2.228,0,3.094,0c1.362,0.115,2.105,1.364,3.341,1.364
			c1.115,0,1.856-0.455,1.981-1.477C5.398,2.805,5.208,2.263,4.91,1.745C4.869,2.34,4.785,2.937,4.385,3.46
			c-1.074,1.439-2.145,0-3.137-0.529C0.012,2.248-1.226,2.703-2.464,2.779c-0.425,0.031-0.784,0.012-1.06-0.091
			C-3.449,3.039-3.321,3.336-3.092,3.46z"/>
	</g>
	<g>
		<path fill="#BCBEC0" d="M-2.464,2.779c1.238-0.076,2.475-0.531,3.713,0.151C2.24,3.459,3.312,4.898,4.385,3.459
			c0.4-0.522,0.483-1.119,0.525-1.714c-0.202-0.35-0.45-0.69-0.701-1.012C3.343-0.289,2.601-0.289,1.487-0.857
			C0.125-1.652-1.236-3.13-2.97-3.13v0.114c-0.372-0.112-0.495,0.115-0.618,0.343l-0.125-0.229c-0.618,0.795-0.124,2.954,0,3.862
			c0.08,0.359,0.059,1.126,0.188,1.727C-3.249,2.791-2.889,2.81-2.464,2.779z"/>
	</g>
	<g>
		<path fill="#AFB1B3" d="M-0.572,11.895c-1.203-0.15-2.448-0.653-3.129-1.467c-0.106-0.123-0.195-0.242-0.266-0.358
			c0.063,0.598,0.149,1.246,0.379,1.458C-3.137,11.94-1.357,11.977-0.572,11.895z"/>
	</g>
	<g>
		<path fill="#BCBEC0" d="M-0.572,11.895c0.078-0.008,0.146-0.018,0.204-0.028c0.719-0.239,1.232-0.544,1.774-0.71
			c0.968-0.672,2.25-0.781,3.395-0.501c0.328,0.075,0.577,0.302,0.906,0.151c0.412-0.151,0.495-1.364,0.495-1.742
			c0-1.137,0.083-1.894,0.66-2.878c0.404-0.741,1.135-1.732,0.366-1.993C6.063,4.51,4.465,5.789,3.715,5.961
			C2.849,6.188,1.983,6.074,1.24,5.732c-0.496-0.34-0.99-0.795-1.61-0.909L0.002,4.71c-0.372-0.342-1.61-0.342-2.23-0.229
			C-4.084,4.938-4.332,7.776-4.084,9.14c0.047,0.215,0.077,0.563,0.116,0.93c0.073,0.116,0.16,0.234,0.267,0.358
			C-3.02,11.242-1.776,11.744-0.572,11.895z"/>
	</g>
	<g>
		<path fill="#AFB1B3" d="M6.862,6.188c-0.577,0.984-0.66,1.741-0.66,2.878c0,0.379-0.083,1.591-0.495,1.742
			c-0.33,0.151-0.578-0.076-0.906-0.151c-1.143-0.28-2.425-0.171-3.395,0.501c0.483-0.147,0.99-0.186,1.691,0.028
			c1.114,0.227,2.104,1.25,3.219,0.568c0.99-0.568,0.494-1.137,0.494-1.93c-0.124-0.682,0.123-0.91,0.495-1.705
			C7.429,7.549,8.789,4.71,8.171,4.255C7.93,4.09,7.601,4.093,7.227,4.194C7.997,4.454,7.266,5.445,6.862,6.188z"/>
	</g>
	<g>
		<path fill="#BCBEC0" d="M4.83-1.312c0.165,0.115,0.313,0.237,0.445,0.366C5.491-0.89,5.708-0.842,5.872-0.78
			c0.66,0.302,1.073,0.378,1.485,0.909C8.018,0.961,8.596,2.4,9.915,2.476c1.32,0.076,1.486-0.985,1.815-1.817
			c0.216-0.496,0.469-0.861,0.754-1.181c0.007-0.036,0.013-0.07,0.02-0.105c0.248-0.908,1.237-1.817,0.248-2.499
			c-0.619-0.568-1.856-0.455-2.599-0.342C8.791-3.355,1.612-4.15,1.364-2.9l0.371,0.112C2.478-2.333,3.963-1.993,4.83-1.312z"/>
	</g>
	<g>
		<path fill="#AFB1B3" d="M9.915,2.476C8.596,2.4,8.018,0.961,7.356,0.128C6.944-0.402,6.531-0.478,5.872-0.78
			C5.708-0.842,5.491-0.89,5.275-0.946c1.451,1.403,1.124,3.535,3.392,3.951c1.238,0.227,1.98,0.569,3.095-0.341
			c0.962-0.884,0.522-1.981,0.724-3.189c-0.285,0.321-0.537,0.687-0.753,1.182C11.401,1.49,11.235,2.552,9.915,2.476z"/>
	</g>
	<g>
		<path fill="#AFB1B3" d="M14.608,0.508l0.123-0.115c0.743,0.568,3.096,0.115,4.209,0.228c0.99,0.114,2.103,0.455,3.094,0.568
			c1.238,0.113,1.238-0.342,1.609-1.364c0.198-0.638,0.634-1.568,0.609-2.321c-0.291,0.424-0.617,0.879-0.804,1.337
			c-0.331,0.605-0.412,1.21-1.238,1.287c-0.412,0.075-0.659,0-0.99,0.075c-0.33,0.076-0.493,0.152-0.908,0.152
			c-0.741,0-1.402-0.379-2.145-0.454c-0.66-0.076-1.319,0.227-1.98,0.151c-0.661-0.075-1.156-0.681-1.404-1.137
			c-0.236-0.49-0.09-1.334,0.163-1.965C14.234-2.045,14.091-0.44,14.608,0.508z"/>
	</g>
	<g>
		<path fill="#BCBEC0" d="M14.783-1.084c0.248,0.456,0.743,1.061,1.404,1.137s1.32-0.227,1.98-0.151
			c0.742,0.076,1.403,0.454,2.145,0.454c0.415,0,0.578-0.076,0.908-0.152c0.331-0.075,0.578,0,0.99-0.075
			c0.826-0.076,0.907-0.682,1.238-1.287c0.187-0.457,0.513-0.913,0.804-1.337c-0.007-0.186-0.041-0.361-0.114-0.52
			c-0.373-0.795-0.743-0.568-1.607-0.682c-0.99-0.114-1.982-0.114-3.096-0.114c-1.114,0-2.229-0.342-3.219-0.115
			c-0.53,0.104-0.957,0.432-1.271,0.875C14.693-2.419,14.547-1.575,14.783-1.084z"/>
	</g>
	<g>
		<path fill="#AFB1B3" d="M27.658,11.109c-0.496,0.833-1.32,0.529-2.146,0.529c-1.155-0.075-2.89,0.38-3.385-0.833
			c-0.495-1.137-0.084-2.5-0.413-3.711c-0.084-0.53-0.163-1.211-0.413-1.742c-0.164-0.606-0.661-0.984-0.414-1.666
			c0.262-0.677,0.797-0.767,1.341-0.863c-0.576-0.062-1.172,0.003-1.806,0.068c0,0.226-0.124,0.34-0.124,0.567l0.124-0.114
			c-0.373,0.682,0.25,1.931,0.492,2.614c0.374,1.704,0.25,3.181,0.374,4.884c0.124,1.93,2.352,1.364,3.837,1.477
			c1.115,0,2.23,0.114,3.096-0.227c-0.297-0.55,0.044-1.465,0.256-2.217c-0.139,0.133-0.291,0.258-0.407,0.4
			C27.822,10.504,27.822,10.808,27.658,11.109z"/>
	</g>
	<g>
		<path fill="#BCBEC0" d="M28.47,7.891c-0.248-0.682,0-0.455-0.865-0.569c-1.238-0.228-3.096,0.114-3.59-1.25
			c-0.124-0.455,0-1.137-0.124-1.704c-0.125-0.341-0.372-0.682-0.372-1.137c-0.428-0.244-0.852-0.362-1.29-0.409
			c-0.544,0.096-1.074,0.185-1.341,0.862c-0.247,0.682,0.25,1.06,0.414,1.666c0.25,0.531,0.329,1.212,0.413,1.742
			c0.329,1.212-0.084,2.575,0.413,3.711c0.493,1.212,2.229,0.757,3.385,0.833c0.825,0,1.649,0.303,2.146-0.529
			c0.164-0.304,0.164-0.606,0.412-0.833c0.116-0.143,0.269-0.267,0.407-0.4c0.049-0.182,0.093-0.354,0.117-0.508
			C28.595,8.913,28.72,8.231,28.47,7.891z"/>
	</g>
	<g>
		<path fill="#BCBEC0" d="M25.018,1.339c-0.083,1.061-0.826,2.423,0.164,3.333c0.831,0.832,2.629,0.901,3.181-0.021
			c-0.029-0.266-0.093-0.525-0.141-0.736c-0.249-1.931,0.495-3.636,0.373-5.566c0-0.682-0.248-1.478-0.495-2.044
			c-0.618,0-2.104-0.229-2.351,0.34l-0.373,0.115c0,0.942-0.071,1.757-0.264,2.587C25.116-0.002,25.067,0.696,25.018,1.339z"/>
	</g>
	<g>
		<path fill="#AFB1B3" d="M25.129,5.505c0.495,0.456,2.228,0.795,2.847,0.34c0.389-0.284,0.437-0.749,0.387-1.194
			c-0.552,0.923-2.35,0.851-3.181,0.021c-0.99-0.909-0.247-2.272-0.164-3.333c0.05-0.643,0.099-1.341,0.094-1.993
			c-0.064,0.27-0.141,0.542-0.23,0.82C24.512,1.53,23.766,4.255,25.129,5.505z"/>
	</g>
	<g>
		<path fill="#BCBEC0" d="M7.292,14.595c-0.526-1.022-2.233-0.569-3.282-0.683c-1.182-0.114-2.494-0.114-3.676-0.34
			c-0.825-0.204-2.708-0.592-3.464-0.092c-0.208,0.596-0.09,1.483,0.149,1.795c0.613,0.908,3.063,0.834,4.114,0.908
			c1.662,0.076,3.063,0.076,3.764,1.591c0.262,0.53,0.262,1.438,1.138,1.438c0.347,0,0.694-0.202,0.941-0.443
			C7.585,17.438,7.639,15.345,7.292,14.595z"/>
	</g>
	<g>
		<path fill="#AFB1B3" d="M6.036,19.214c-0.876,0-0.876-0.909-1.138-1.439c-0.701-1.515-2.102-1.515-3.764-1.59
			c-1.051-0.075-3.501,0-4.114-0.909c-0.241-0.312-0.358-1.197-0.149-1.795c-0.086,0.058-0.157,0.124-0.21,0.203v-0.111
			c-0.787,0.681-0.525,2.384,0.393,2.953c0.917,0.568,2.887,0.455,4.068,0.455c1.183,0,2.363-0.229,3.021,0.909
			c0.525,0.793,0.131,2.042,1.443,2.042c0.623,0,1.078-0.482,1.39-1.162C6.729,19.014,6.382,19.214,6.036,19.214z"/>
	</g>
	<g>
		<path fill="#AFB1B3" d="M15.97,14.14c-0.743-0.342-1.982,0.682-2.601,0.909c-0.055,0.027-0.109,0.052-0.162,0.077
			c0.159,0.026,0.322,0.051,0.505,0.075c0.576,0.074,0.99,0.15,1.074,0.758c0,0.304-0.164,0.604-0.164,0.984
			c0,0.304,0.164,0.607,0.248,0.909c0.085,0.683,0.248,1.363,0.248,2.045c0,1.287,0.493,2.425-1.238,2.802
			c-1.485,0.304-2.475,0.075-3.879-0.304c-0.611-0.141-1.223-0.476-1.505-0.943c0,0.287,0.016,0.577,0.05,0.87
			c0.124,1.02,1.362,1.136,2.475,1.248c2.106,0.229,4.457,0.682,5.196-1.59c0.619-2.046,0.251-3.977,0.251-6.021
			C16.465,15.388,16.712,14.481,15.97,14.14z"/>
	</g>
	<g>
		<path fill="#BCBEC0" d="M9.999,22.396c1.404,0.379,2.394,0.605,3.877,0.303c1.733-0.379,1.239-1.516,1.239-2.802
			c0-0.683-0.166-1.364-0.247-2.045c-0.085-0.304-0.249-0.607-0.249-0.909c0-0.379,0.164-0.683,0.164-0.986
			c-0.081-0.605-0.495-0.681-1.074-0.757c-0.181-0.023-0.346-0.047-0.503-0.074c-1.497,0.687-2.244,0.243-3.798-0.305l-0.124,0.455
			c0.495,0.568-0.495,3.294-0.618,4.088c-0.088,0.65-0.177,1.36-0.174,2.086C8.776,21.92,9.386,22.255,9.999,22.396z"/>
	</g>
	<g>
		<path fill="#BCBEC0" d="M20.988,19.517c1.836,0.076,3.856-0.53,5.692-0.605c0.333-1.588,1.887-3.612,0.083-4.705
			c-1.368-0.142-2.801-0.503-4.09-0.749c-1.517-0.227-3.032,0.227-4.27-0.341c-0.551,0.229-0.688,0.795-0.826,1.25h0.206
			c-0.294,0.1,0.069,1.612,0.069,1.932c0.069,0.513,0.139,0.939,0.242,1.354C18.692,18.646,19.487,19.47,20.988,19.517z"/>
	</g>
	<g>
		<path fill="#AFB1B3" d="M21.297,20.047c1.515-0.115,5.369,0.341,6.471-0.568c0.964-0.793,1.102-4.203,0.552-5.225
			c-0.5,0.031-1.022,0.009-1.556-0.045c1.804,1.093,0.253,3.117-0.083,4.703c-1.836,0.075-3.856,0.681-5.692,0.607
			c-1.501-0.047-2.296-0.87-2.893-1.865c0.102,0.41,0.24,0.806,0.444,1.258C19.231,20.162,19.642,20.273,21.297,20.047z"/>
	</g>
	<g>
		<path fill="#AFB1B3" d="M28.347,21.789c-0.374-0.99-1.857-0.123-2.599,0c-0.166,0.042-0.338,0.073-0.511,0.096
			c0.251,0.123,0.651,0.08,0.935,0.193c0.249,0.166,0.662,0.495,0.826,0.826c0.33,0.575,0.33,1.813,0.33,2.476
			c0,1.485-0.825,2.639-2.311,2.556c-0.66,0-1.238-0.249-1.899-0.249c-0.659-0.083-1.4,0.085-2.144,0.085
			c-1.239-0.085-2.888,0.247-3.137-1.401c-0.039-0.29,0-0.95-0.051-1.556c-0.071,0.741-0.15,1.491-0.206,2.048
			c-0.124,1.609,0.374,1.856,1.856,1.733c1.363-0.124,2.351-0.124,3.59,0.123c1.364,0.246,3.961,0.123,4.951-0.739
			c1.116-0.867,0.374-2.105,0.249-3.22C28.1,24.018,28.595,22.408,28.347,21.789z"/>
	</g>
	<g>
		<path fill="#BCBEC0" d="M20.972,27.769c0.743,0,1.485-0.165,2.146-0.085c0.663,0,1.241,0.249,1.897,0.249
			c1.485,0.084,2.312-1.073,2.312-2.555c0-0.661,0-1.898-0.329-2.477c-0.166-0.328-0.58-0.66-0.827-0.825
			c-0.283-0.114-0.683-0.071-0.935-0.194c-0.851,0.113-1.762,0.03-2.583,0.03c-0.99,0-2.105-0.249-3.096-0.249
			c-0.495,0-2.351-0.248-1.732,0.866h0.125c0,0.479-0.078,1.37-0.166,2.281c0.052,0.609,0.014,1.266,0.052,1.553
			C18.083,28.017,19.735,27.687,20.972,27.769z"/>
	</g>
	<g>
		<path fill="#BCBEC0" d="M10.081,27.998c0.907,0.078,1.65,0.228,2.641,0.078c0.99-0.151,1.566-0.229,1.98-1.213
			c0.34-0.684,0.509-1.317,0.146-1.942c-1.05-0.163-2.485,0.1-3.46,0.011c-0.619,0-3.341-0.794-3.589,0v-0.452
			c0,0.793-0.372,1.361-0.618,2.042c-0.289,0.996,0.306,1.486,1.145,1.743C8.963,28.14,9.68,27.959,10.081,27.998z"/>
	</g>
	<g>
		<path fill="#AFB1B3" d="M14.851,24.921c0.361,0.622,0.191,1.257-0.148,1.942c-0.414,0.984-0.99,1.062-1.979,1.213
			c-0.99,0.149-1.732,0-2.641-0.078c-0.401-0.039-1.117,0.142-1.755,0.265c0.604,0.187,1.329,0.255,1.949,0.305
			c1.238,0.112,3.59,0.338,4.704-0.115c0.866-0.342,1.485-2.499,0.619-3.296C15.388,25.038,15.133,24.963,14.851,24.921z"/>
	</g>
	<g>
		<path fill="#BCBEC0" d="M-2.959,28.379c0.331,0.076,0.826-0.15,1.238-0.15c0.662-0.077,1.156,0.305,1.816,0.38
			c1.32,0.151,2.475,0.151,3.465-0.758c0.337-0.309,1.006-1.225,0.877-1.796c-0.55-0.022-1.156-0.099-1.589-0.099
			c-1.362,0-2.847-0.226-4.331-0.115c-0.992,0.115-2.23,0.457-2.6,1.366c-0.038,0.114-0.066,0.224-0.082,0.326
			C-3.967,27.956-3.551,28.295-2.959,28.379z"/>
	</g>
	<g>
		<path fill="#AFB1B3" d="M4.437,26.052c0.128,0.571-0.541,1.488-0.877,1.796c-0.99,0.908-2.145,0.908-3.466,0.758
			c-0.66-0.075-1.154-0.454-1.816-0.38c-0.412,0-0.906,0.227-1.238,0.151c-0.592-0.083-1.008-0.422-1.206-0.846
			c-0.199,1.197,1.046,1.481,2.187,1.375c1.608-0.112,5.693,0.568,6.684-0.681c0.481-0.662,0.262-1.75,0.59-2.229
			C5.056,26.055,4.756,26.063,4.437,26.052z"/>
	</g>
	<g>
		<path fill="#BCBEC0" d="M8.844,10.656c0.329,0.227,0.66,0.151,0.906,0.379c0.249,0.227,0.578,0.682,0.827,0.984
			c0.577,0.531,0.577,0.909,1.484,0.757c0.742-0.151,1.651-0.455,2.392-0.682c1.734-0.606,3.137-1.515,2.972-3.332
			c-0.163-1.591,0.329-3.106,1.074-4.545c0.227-0.414,0.417-0.845,0.526-1.284c0.031-0.513-0.018-1.021-0.455-1.289
			c-0.62-0.458-2.476-0.23-3.221-0.458c-1.484-0.342-1.609,0.113-2.105,1.25c-0.247,0.795-0.373,2.386-1.115,2.839
			c-0.866,0.342-1.237-0.34-2.104-0.227V4.938C9.9,4.938,9.9,4.824,9.777,4.824C9.035,5.505,8.663,6.983,8.539,7.891
			c-0.103,0.762-0.208,1.445-0.312,2.114C8.38,10.285,8.596,10.526,8.844,10.656z"/>
	</g>
	<g>
		<path fill="#AFB1B3" d="M19.312,6.188c-0.124-0.682-0.371-1.59-0.371-2.272c0-0.278,0.06-0.63,0.084-0.982
			c-0.11,0.438-0.301,0.87-0.526,1.284c-0.744,1.439-1.239,2.954-1.073,4.544c0.162,1.817-1.24,2.727-2.975,3.332
			c-0.741,0.227-1.65,0.529-2.392,0.682c-0.909,0.152-0.909-0.226-1.485-0.757c-0.248-0.303-0.578-0.757-0.826-0.984
			c-0.248-0.228-0.578-0.151-0.907-0.379c-0.248-0.13-0.464-0.371-0.611-0.651c-0.018,0.131-0.037,0.258-0.059,0.387
			c-0.248,1.137,0.124,1.477,1.114,2.272c0.619,0.339,1.733,1.25,2.476,1.363c0.618,0,1.73-0.681,2.351-0.908
			c0.741-0.227,1.238-0.568,1.858-0.908c0.863-0.342,2.103-0.114,2.473-1.022C19.188,9.481,19.808,8.005,19.312,6.188z"/>
	</g>
	<g>
		<path fill="#BCBEC0" d="M-0.952,24.063c1.545,0.227,3.004,0.302,4.549,0c1.202-0.229,1.117-0.53,1.803-1.364
			c0.4-0.529,0.282-0.969,0.452-1.458c-0.482-0.049-1.064-0.039-1.623-0.285c-0.9-0.456-0.9-1.138-1.287-1.931
			c-0.516-0.796-1.03-0.796-2.06-0.909c-0.772,0-3.991-0.455-4.119,0.454c0,0-0.386,2.403-0.386,2.841
			c-0.129,0.682-0.515,2.271-0.129,2.951c0.008,0.014,0.02,0.026,0.029,0.037C-2.906,23.999-1.675,23.957-0.952,24.063z"/>
	</g>
	<g>
		<path fill="#AFB1B3" d="M5.852,21.24C5.682,21.729,5.8,22.169,5.4,22.698c-0.686,0.834-0.601,1.136-1.803,1.364
			c-1.543,0.302-3.003,0.227-4.549,0c-0.724-0.105-1.954-0.063-2.771,0.339c0.562,0.746,2.82,0.416,3.834,0.416
			c1.03-0.112,2.06,0,3.219,0c0.644,0,1.417,0.114,2.06,0.114c1.288-0.114,1.544-1.477,1.544-2.498
			C6.933,21.466,6.479,21.305,5.852,21.24z"/>
	</g>
</g>
</svg>
