<?xml version="1.0" encoding="utf-8"?>
<!-- Generator: Adobe Illustrator 16.0.0, SVG Export Plug-In . SVG Version: 6.00 Build 0)  -->
<!DOCTYPE svg PUBLIC "-//W3C//DTD SVG 1.1//EN" "http://www.w3.org/Graphics/SVG/1.1/DTD/svg11.dtd">
<svg version="1.1" id="Layer_0_xA0_Image_1_" xmlns="http://www.w3.org/2000/svg" xmlns:xlink="http://www.w3.org/1999/xlink"
	 x="0px" y="0px" width="25px" height="25px" viewBox="0 0 25 25" enable-background="new 0 0 25 25" xml:space="preserve">
<g>
	
		<image overflow="visible" opacity="0.75" width="30" height="25" xlink:href="7B334C15.png"  transform="matrix(1 0 0 1 -1.5 1.6396)">
	</image>
	<g>
		<g>
			<path fill-rule="evenodd" clip-rule="evenodd" fill="#FFFFFF" d="M6.006,3.876C4.84,4.01,4.02,4.481,3.354,5.194
				c-1.475,1.584-1.646,3.486-1.205,5.49c0.174,0.789,0.225,0.776-0.456,1.106c-0.666,0.324-0.715,0.393-0.488,0.995
				c0.018,0.049,0.022,0.104,0.023,0.154c0.009,0.432,0.207,0.622,0.654,0.702c0.385,0.069,0.877,0.015,1.026,0.625
				c0.292,1.191,0.658,2.365,1.011,3.54c0.069,0.231,0.173,0.58,0.338,0.634c0.54,0.175,1.028,0.66,1.674,0.379
				c0.029-0.013,0.079,0.026,0.12,0.036c1.022,0.258,2.046,0.511,3.067,0.772c0.626,0.16,1.248,0.337,1.874,0.502
				c0.609,0.16,1.221,0.314,1.832,0.47c0.678,0.171,1.362,0.318,2.033,0.514c0.746,0.217,1.491,0.45,2.217,0.729
				c0.466,0.179,0.789,0.051,1.071-0.306c0.188-0.236,0.328-0.523,0.553-0.716c0.826-0.704,1.405-1.654,2.383-2.225
				c0.493-0.287,0.758-0.882,0.85-1.507c0.131-0.89,0.315-1.772,0.467-2.659c0.07-0.419,0.178-0.8,0.558-1.063
				c0.327-0.227,0.629-0.49,0.935-0.745c0.06-0.05,0.111-0.135,0.124-0.21c0.06-0.333,0.107-0.666,0.15-1.001
				c0.101-0.806,0.099-0.813-0.7-0.905c-0.239-0.026-0.315-0.097-0.296-0.356c0.067-0.846,0.131-1.693,0.134-2.542
				c0.004-0.804-0.576-1.683-1.211-1.839c-0.568-0.142-1.156-0.243-1.738-0.272c-0.473-0.023-0.954,0.156-1.424,0.129
				c-1.063-0.062-2.125-0.185-3.184-0.3C14.17,5.156,12.59,5.005,11.02,4.782C9.971,4.633,8.895,4.736,7.874,4.236
				C7.278,3.945,6.529,3.967,6.006,3.876z"/>
			<path fill-rule="evenodd" clip-rule="evenodd" d="M6.006,3.876c0.523,0.091,1.272,0.069,1.868,0.36
				c1.021,0.5,2.097,0.396,3.146,0.546c1.57,0.223,3.15,0.374,4.727,0.545c1.059,0.115,2.12,0.238,3.184,0.3
				c0.47,0.027,0.951-0.152,1.424-0.129c0.582,0.029,1.17,0.131,1.738,0.272c0.635,0.156,1.215,1.035,1.211,1.839
				c-0.003,0.849-0.066,1.696-0.134,2.542c-0.02,0.26,0.057,0.33,0.296,0.356c0.799,0.093,0.801,0.1,0.7,0.905
				c-0.043,0.335-0.091,0.668-0.15,1.001c-0.013,0.075-0.064,0.16-0.124,0.21c-0.306,0.255-0.607,0.519-0.935,0.745
				c-0.38,0.263-0.487,0.644-0.558,1.063c-0.151,0.887-0.336,1.77-0.467,2.659c-0.092,0.625-0.356,1.22-0.85,1.507
				c-0.978,0.57-1.557,1.521-2.383,2.225c-0.225,0.192-0.365,0.479-0.553,0.716c-0.282,0.356-0.605,0.484-1.071,0.306
				c-0.726-0.279-1.471-0.513-2.217-0.729c-0.671-0.195-1.355-0.343-2.033-0.514c-0.611-0.155-1.223-0.31-1.832-0.47
				c-0.626-0.165-1.248-0.342-1.874-0.502c-1.021-0.262-2.045-0.515-3.067-0.772c-0.041-0.01-0.091-0.049-0.12-0.036
				c-0.646,0.281-1.134-0.204-1.674-0.379c-0.165-0.054-0.269-0.402-0.338-0.634c-0.353-1.175-0.719-2.349-1.011-3.54
				c-0.149-0.61-0.642-0.556-1.026-0.625c-0.447-0.08-0.646-0.271-0.654-0.702c-0.001-0.051-0.006-0.105-0.023-0.154
				c-0.227-0.603-0.178-0.671,0.488-0.995c0.681-0.33,0.63-0.317,0.456-1.106c-0.441-2.004-0.27-3.906,1.205-5.49
				C4.02,4.481,4.84,4.01,6.006,3.876z M5.924,15.705c0.168,0.12,0.425,0.207,0.485,0.367c0.13,0.344,0.013,0.662-0.37,0.866
				c0.229,0.004,0.506,0.018,0.613-0.111c0.333-0.401,0.173-0.972-0.23-1.191c-0.105-0.058-0.396-0.339-0.491,0.076
				c-0.471,0.253-0.54,0.384-0.337,0.756c0.06,0.111,0.27,0.261,0.316,0.233c0.136-0.08,0.327-0.258,0.311-0.368
				C6.188,16.113,6.03,15.913,5.924,15.705z M3.943,10.537c0.099,0.515,0.207,1.104,0.331,1.689
				c0.011,0.051,0.119,0.102,0.189,0.115c0.551,0.104,1.105,0.192,1.656,0.3c1.052,0.205,2.1,0.426,3.151,0.63
				c0.855,0.164,1.717,0.304,2.572,0.47c1.295,0.254,2.588,0.522,3.884,0.784c0.282,0.057,0.544,0.104,0.451-0.351
				c-0.031-0.155,0.024-0.327,0.04-0.491c0.024-0.259,0.049-0.517,0.078-0.831c-0.431,0.341-0.802,0.636-1.175,0.928
				c-0.056,0.044-0.133,0.103-0.191,0.094c-0.57-0.086-1.141-0.176-1.707-0.285c-0.271-0.052-0.534-0.139-0.791-0.233
				c-0.068-0.024-0.154-0.135-0.151-0.202c0.02-0.403,0.087-0.806,0.087-1.21c-0.001-0.187-0.062-0.442-0.191-0.548
				c-0.735-0.599-1.497-1.166-2.26-1.731C9.838,9.605,9.671,9.589,9.582,9.63c-0.523,0.247-1.019,0.56-1.555,0.77
				c-0.634,0.249-1.062,0.579-0.921,1.338c0.025,0.144,0.021,0.298-0.006,0.439c-0.014,0.07-0.12,0.181-0.173,0.176
				c-0.377-0.044-0.752-0.104-1.124-0.179c-0.25-0.05-0.576-0.055-0.727-0.213C4.651,11.512,4.298,10.993,3.943,10.537z
				 M21.15,5.861c-0.466-0.048-0.867-0.102-1.268-0.123c-0.147-0.008-0.316,0.031-0.445,0.104c-1.27,0.711-1.942,1.895-2.366,3.212
				c-0.25,0.781-0.363,1.617-0.454,2.439c-0.109,0.988-0.133,1.986-0.182,2.982c-0.004,0.065,0.078,0.184,0.14,0.198
				c0.311,0.07,0.625,0.133,0.941,0.158c0.085,0.009,0.25-0.109,0.26-0.186c0.075-0.609,0.101-1.226,0.184-1.833
				c0.132-0.966,0.241-1.941,0.465-2.889c0.173-0.736,0.445-1.464,0.778-2.145C19.608,6.956,20.265,6.325,21.15,5.861z M6.956,4.279
				C6.528,4.236,6.082,4.093,5.678,4.174c-1.701,0.333-2.764,1.612-3.16,3.089C2.324,7.985,2.255,8.768,2.29,9.517
				c0.037,0.795,0.262,1.582,0.413,2.371c0.012,0.059,0.09,0.137,0.149,0.149c0.327,0.069,0.657,0.12,1.029,0.186
				c-0.056-0.363-0.083-0.7-0.16-1.025C3.507,10.299,3.41,9.411,3.551,8.479c0.153-1.017,0.502-1.94,1.109-2.742
				C5.227,4.989,5.894,4.324,6.956,4.279z M16.162,18.894c-0.456,0.372-0.851,0.716-1.27,1.026c-0.108,0.081-0.3,0.116-0.433,0.084
				c-0.885-0.208-1.762-0.443-2.643-0.664c-0.458-0.114-0.921-0.209-1.378-0.325c-0.471-0.118-0.935-0.264-1.408-0.373
				c-0.685-0.158-1.37-0.308-2.062-0.433c-0.534-0.097-0.883-0.411-1.158-0.848c-0.084-0.132-0.202-0.24-0.381-0.449
				c0.158,0.584,0.28,1.05,0.416,1.513c0.019,0.061,0.101,0.128,0.166,0.147c0.4,0.107,0.805,0.2,1.206,0.302
				c0.856,0.215,1.712,0.432,2.568,0.648c0.806,0.203,1.611,0.409,2.417,0.611c0.882,0.222,1.763,0.442,2.646,0.659
				c0.438,0.107,0.88,0.205,1.313,0.305C16.162,20.37,16.162,19.666,16.162,18.894z M7.256,14.876
				c0.084,0.354,0.063,0.728,0.239,0.928c0.587,0.668,1.235,1.284,1.883,1.897c0.101,0.095,0.337,0.128,0.478,0.084
				c0.427-0.13,0.848-0.29,1.251-0.479c0.487-0.229,1.22-0.241,1.079-1.095c-0.001-0.009,0.012-0.02,0.01-0.024
				c-0.038-0.066-0.065-0.179-0.117-0.191c-0.711-0.178-1.426-0.342-2.218-0.529c0,0.419,0.006,0.82-0.007,1.221
				c-0.002,0.06-0.102,0.173-0.143,0.167c-0.206-0.031-0.451-0.03-0.431-0.358c0.02-0.309,0.099-0.637-0.208-0.879
				c-0.04-0.032-0.018-0.136-0.045-0.196c-0.028-0.062-0.074-0.15-0.128-0.163C8.381,15.13,7.858,15.014,7.256,14.876z
				 M1.464,12.437c-0.021,0.354,0.281,0.364,0.526,0.417c0.757,0.163,1.515,0.315,2.271,0.475c0.57,0.12,1.138,0.25,1.709,0.367
				c0.556,0.116,1.115,0.218,1.672,0.331c0.599,0.122,1.195,0.253,1.794,0.376c0.557,0.115,1.115,0.219,1.671,0.338
				c0.749,0.159,1.495,0.338,2.245,0.49c0.808,0.167,1.622,0.311,2.432,0.47c0.785,0.155,1.566,0.317,2.35,0.478
				c0.051-0.294,0.032-0.504-0.331-0.557c-0.485-0.068-0.96-0.196-1.442-0.285c-0.861-0.158-1.726-0.304-2.589-0.46
				c-0.277-0.049-0.553-0.116-0.829-0.175c-0.593-0.123-1.186-0.251-1.78-0.368c-0.589-0.115-1.181-0.213-1.77-0.33
				c-0.589-0.116-1.174-0.253-1.764-0.369c-0.573-0.111-1.15-0.198-1.722-0.314c-0.813-0.165-1.621-0.357-2.435-0.521
				C2.813,12.666,2.147,12.559,1.464,12.437z M18.121,16.448c-5.502-1.144-11.02-2.291-16.536-3.437
				c0.044,0.167,0.145,0.308,0.272,0.34c0.891,0.217,1.786,0.415,2.682,0.611c1.36,0.298,2.724,0.579,4.082,0.884
				c1.544,0.349,3.083,0.718,4.627,1.069c1.46,0.334,2.924,0.65,4.384,0.988C18.01,16.992,18.286,17.02,18.121,16.448z
				 M24.048,10.835c-0.195,0-0.28,0.011-0.362-0.002c-0.319-0.051-0.687-0.229-0.732,0.335c-0.007,0.072-0.124,0.14-0.197,0.198
				c-1.458,1.174-2.914,2.35-4.379,3.515c-0.167,0.132-0.384,0.272-0.58,0.276c-0.313,0.006-0.627-0.099-0.939-0.16
				c-0.624-0.125-1.246-0.256-1.87-0.376c-0.583-0.114-1.169-0.213-1.751-0.326c-0.616-0.119-1.229-0.254-1.846-0.372
				c-0.583-0.111-1.17-0.202-1.753-0.314c-0.651-0.123-1.3-0.264-1.951-0.39c-0.567-0.11-1.137-0.205-1.705-0.314
				c-0.881-0.169-1.761-0.349-2.642-0.515c-0.4-0.077-0.857-0.058-0.922-0.667c-0.32,0.146-0.609,0.278-0.899,0.411
				c0.002,0.039,0.003,0.078,0.004,0.117c0.432,0.07,0.867,0.124,1.295,0.212c0.825,0.167,1.644,0.367,2.47,0.53
				c0.841,0.164,1.687,0.296,2.529,0.446c0.278,0.05,0.556,0.108,0.833,0.169c0.567,0.125,1.132,0.266,1.702,0.376
				c0.603,0.114,1.215,0.183,1.816,0.302c0.813,0.162,1.616,0.369,2.429,0.529c0.605,0.12,1.222,0.191,1.829,0.303
				c0.318,0.058,0.626,0.191,0.944,0.226c0.289,0.03,0.58,0.233,0.887-0.006c1.603-1.247,3.214-2.484,4.82-3.727
				C23.376,11.38,23.667,11.14,24.048,10.835z M17.557,18.692c0.005,0,0.009,0,0.013,0c0-0.393,0.012-0.784-0.009-1.173
				c-0.005-0.083-0.116-0.2-0.203-0.231c-0.246-0.087-0.504-0.154-0.762-0.19c-0.076-0.011-0.246,0.116-0.244,0.177
				c0.019,1.293,0.054,2.586,0.098,3.88c0.004,0.083,0.09,0.206,0.168,0.235c0.209,0.083,0.437,0.11,0.648,0.184
				c0.232,0.08,0.295-0.004,0.294-0.226C17.554,20.462,17.557,19.576,17.557,18.692z M5.585,18.646
				c-0.074-0.189-0.132-0.299-0.16-0.415c-0.099-0.397-0.174-0.802-0.284-1.196c-0.131-0.466-0.301-0.922-0.432-1.387
				c-0.105-0.373-0.165-0.76-0.271-1.132c-0.034-0.122-0.131-0.286-0.233-0.318c-0.357-0.113-0.73-0.178-1.158-0.272
				c0.063,0.171,0.12,0.3,0.158,0.434c0.298,1.056,0.592,2.112,0.886,3.17c0.12,0.43,0.246,0.844,0.797,0.911
				C5.114,18.468,5.332,18.568,5.585,18.646z M13.016,17.294c0.708,0.62,0.708,0.62,0.177,1.515
				c0.258,0.139,0.657-0.085,0.841-0.377c0.222-0.352,0.209-0.696-0.073-1.005C13.688,17.129,13.377,17.001,13.016,17.294z
				 M13.47,18.144c-0.09-0.364-0.133-0.628-0.48-0.637c-0.359-0.01-0.477,0.285-0.486,0.551s0.138,0.581,0.456,0.533
				C13.147,18.563,13.301,18.3,13.47,18.144z M22.503,8.518c-0.043-0.007-0.085-0.016-0.127-0.024
				c-0.098,1.028-0.196,2.057-0.295,3.084c0.043,0.004,0.085,0.009,0.128,0.013C22.307,10.565,22.404,9.542,22.503,8.518z
				 M18.655,19.903c-0.007-0.007-0.011-0.012-0.018-0.018c0.756-0.772,1.512-1.546,2.268-2.317c-0.01-0.01-0.021-0.021-0.031-0.03
				C20.135,18.326,19.396,19.114,18.655,19.903z M7.012,16.729c0.221-0.624-0.092-1.292-0.534-1.245
				C7.025,15.758,7.02,16.241,7.012,16.729z M21.313,16.155c-0.02,0-0.041,0-0.06,0c0,0.223,0,0.444,0,0.666
				c0.019,0.002,0.04,0.002,0.06,0.003C21.313,16.602,21.313,16.378,21.313,16.155z M13.915,18.845
				c0.021,0.019,0.04,0.035,0.06,0.052c0.146-0.193,0.289-0.387,0.435-0.58c-0.025-0.019-0.051-0.036-0.078-0.055
				C14.193,18.456,14.055,18.65,13.915,18.845z M21.191,17.049c-0.032,0-0.064,0-0.096,0c0.013,0.22,0.025,0.438,0.038,0.659
				c0.019-0.001,0.039-0.003,0.058-0.004C21.191,17.485,21.191,17.268,21.191,17.049z M21.454,15.334
				c-0.016-0.001-0.031-0.001-0.049-0.002c0,0.188,0,0.375,0,0.563c0.018,0,0.033,0,0.049,0.001
				C21.454,15.71,21.454,15.521,21.454,15.334z M21.498,14.992c0.032,0.002,0.064,0.006,0.098,0.009c0-0.161,0-0.322,0-0.483
				c-0.021-0.001-0.041-0.002-0.062-0.004C21.521,14.674,21.511,14.832,21.498,14.992z"/>
			<path fill-rule="evenodd" clip-rule="evenodd" fill="#FFFFFF" d="M3.943,10.537c0.354,0.456,0.708,0.975,1.134,1.424
				c0.15,0.158,0.477,0.163,0.727,0.213c0.372,0.074,0.747,0.135,1.124,0.179c0.053,0.005,0.159-0.105,0.173-0.176
				c0.027-0.142,0.031-0.296,0.006-0.439c-0.141-0.759,0.287-1.089,0.921-1.338c0.536-0.21,1.031-0.522,1.555-0.77
				c0.089-0.041,0.256-0.024,0.335,0.034c0.763,0.565,1.524,1.133,2.26,1.731c0.13,0.105,0.19,0.361,0.191,0.548
				c0,0.404-0.067,0.807-0.087,1.21c-0.003,0.067,0.083,0.178,0.151,0.202c0.257,0.095,0.521,0.182,0.791,0.233
				c0.566,0.109,1.137,0.199,1.707,0.285c0.059,0.009,0.136-0.05,0.191-0.094c0.373-0.292,0.744-0.587,1.175-0.928
				c-0.029,0.314-0.054,0.572-0.078,0.831c-0.016,0.164-0.071,0.336-0.04,0.491c0.093,0.455-0.169,0.407-0.451,0.351
				c-1.296-0.262-2.589-0.53-3.884-0.784c-0.855-0.166-1.717-0.306-2.572-0.47c-1.052-0.204-2.1-0.425-3.151-0.63
				c-0.551-0.107-1.105-0.195-1.656-0.3c-0.07-0.014-0.179-0.064-0.189-0.115C4.15,11.642,4.042,11.052,3.943,10.537z"/>
			<path fill-rule="evenodd" clip-rule="evenodd" fill="#FFFFFF" d="M21.15,5.861c-0.886,0.464-1.542,1.095-1.947,1.919
				c-0.333,0.681-0.605,1.408-0.778,2.145c-0.224,0.947-0.333,1.923-0.465,2.889c-0.083,0.607-0.108,1.224-0.184,1.833
				c-0.01,0.076-0.175,0.194-0.26,0.186c-0.316-0.025-0.631-0.088-0.941-0.158c-0.062-0.015-0.144-0.133-0.14-0.198
				c0.049-0.996,0.072-1.994,0.182-2.982c0.091-0.822,0.204-1.658,0.454-2.439c0.424-1.317,1.097-2.501,2.366-3.212
				c0.129-0.072,0.298-0.111,0.445-0.104C20.283,5.76,20.685,5.813,21.15,5.861z"/>
			<path fill-rule="evenodd" clip-rule="evenodd" fill="#FFFFFF" d="M6.956,4.279C5.894,4.324,5.227,4.989,4.66,5.736
				C4.053,6.538,3.704,7.462,3.551,8.479c-0.141,0.933-0.044,1.82,0.171,2.719c0.077,0.325,0.104,0.662,0.16,1.025
				c-0.372-0.065-0.702-0.116-1.029-0.186c-0.06-0.013-0.138-0.091-0.149-0.149c-0.151-0.789-0.376-1.576-0.413-2.371
				C2.255,8.768,2.324,7.985,2.518,7.263c0.396-1.477,1.459-2.756,3.16-3.089C6.082,4.093,6.528,4.236,6.956,4.279z"/>
			<path fill-rule="evenodd" clip-rule="evenodd" fill="#FFFFFF" d="M16.162,18.894c0,0.772,0,1.477,0,2.204
				c-0.433-0.1-0.874-0.197-1.313-0.305c-0.883-0.217-1.764-0.438-2.646-0.659c-0.806-0.202-1.611-0.408-2.417-0.611
				c-0.856-0.217-1.712-0.434-2.568-0.648c-0.401-0.102-0.806-0.194-1.206-0.302c-0.065-0.02-0.147-0.087-0.166-0.147
				c-0.136-0.463-0.258-0.929-0.416-1.513c0.179,0.209,0.297,0.317,0.381,0.449c0.275,0.437,0.624,0.751,1.158,0.848
				c0.691,0.125,1.377,0.274,2.062,0.433c0.474,0.109,0.938,0.255,1.408,0.373c0.457,0.116,0.92,0.211,1.378,0.325
				c0.881,0.221,1.758,0.456,2.643,0.664c0.133,0.032,0.324-0.003,0.433-0.084C15.312,19.609,15.706,19.266,16.162,18.894z"/>
			<path fill-rule="evenodd" clip-rule="evenodd" fill="#FFFFFF" d="M7.256,14.876c0.603,0.138,1.125,0.254,1.644,0.382
				c0.054,0.013,0.1,0.102,0.128,0.163c0.027,0.061,0.005,0.164,0.045,0.196c0.307,0.242,0.228,0.57,0.208,0.879
				c-0.021,0.328,0.225,0.327,0.431,0.358c0.041,0.006,0.141-0.107,0.143-0.167c0.013-0.4,0.007-0.802,0.007-1.221
				c0.792,0.188,1.507,0.352,2.218,0.529c0.052,0.013,0.079,0.125,0.117,0.191c0.002,0.005-0.011,0.016-0.01,0.024
				c0.141,0.854-0.592,0.865-1.079,1.095c-0.403,0.188-0.824,0.349-1.251,0.479c-0.141,0.044-0.377,0.011-0.478-0.084
				c-0.647-0.613-1.296-1.229-1.883-1.897C7.319,15.604,7.34,15.23,7.256,14.876z"/>
			<path fill-rule="evenodd" clip-rule="evenodd" fill="#FFFFFF" d="M1.464,12.437c0.684,0.122,1.349,0.229,2.009,0.362
				c0.813,0.163,1.622,0.355,2.435,0.521c0.571,0.116,1.148,0.203,1.722,0.314c0.59,0.116,1.175,0.253,1.764,0.369
				c0.589,0.117,1.181,0.215,1.77,0.33c0.595,0.117,1.188,0.245,1.78,0.368c0.276,0.059,0.552,0.126,0.829,0.175
				c0.863,0.156,1.728,0.302,2.589,0.46c0.482,0.089,0.957,0.217,1.442,0.285c0.363,0.053,0.382,0.263,0.331,0.557
				c-0.783-0.16-1.564-0.322-2.35-0.478c-0.81-0.159-1.624-0.303-2.432-0.47c-0.75-0.152-1.496-0.331-2.245-0.49
				c-0.556-0.119-1.114-0.223-1.671-0.338c-0.599-0.123-1.195-0.254-1.794-0.376c-0.557-0.113-1.116-0.215-1.672-0.331
				c-0.571-0.117-1.139-0.247-1.709-0.367c-0.757-0.159-1.515-0.312-2.271-0.475C1.745,12.801,1.443,12.79,1.464,12.437z"/>
			<path fill-rule="evenodd" clip-rule="evenodd" fill="#FFFFFF" d="M18.121,16.448c0.165,0.571-0.111,0.544-0.489,0.456
				c-1.46-0.338-2.924-0.654-4.384-0.988c-1.544-0.352-3.083-0.721-4.627-1.069c-1.358-0.305-2.722-0.586-4.082-0.884
				c-0.896-0.196-1.791-0.395-2.682-0.611c-0.128-0.032-0.229-0.173-0.272-0.34C7.102,14.157,12.619,15.305,18.121,16.448z"/>
			<path fill-rule="evenodd" clip-rule="evenodd" fill="#FFFFFF" d="M24.048,10.835c-0.381,0.305-0.672,0.545-0.971,0.776
				c-1.606,1.242-3.218,2.479-4.82,3.727c-0.307,0.239-0.598,0.036-0.887,0.006c-0.318-0.034-0.626-0.168-0.944-0.226
				c-0.607-0.111-1.224-0.183-1.829-0.303c-0.813-0.16-1.616-0.367-2.429-0.529c-0.602-0.119-1.214-0.188-1.816-0.302
				c-0.57-0.11-1.135-0.251-1.702-0.376c-0.277-0.061-0.555-0.119-0.833-0.169c-0.843-0.15-1.688-0.282-2.529-0.446
				c-0.826-0.163-1.645-0.363-2.47-0.53c-0.428-0.088-0.863-0.142-1.295-0.212c-0.001-0.039-0.002-0.078-0.004-0.117
				c0.29-0.133,0.579-0.266,0.899-0.411c0.064,0.609,0.521,0.59,0.922,0.667c0.881,0.166,1.761,0.346,2.642,0.515
				c0.568,0.109,1.138,0.204,1.705,0.314c0.651,0.126,1.3,0.267,1.951,0.39c0.583,0.112,1.17,0.203,1.753,0.314
				c0.616,0.118,1.229,0.253,1.846,0.372c0.582,0.113,1.168,0.212,1.751,0.326c0.624,0.12,1.246,0.251,1.87,0.376
				c0.313,0.062,0.627,0.166,0.939,0.16c0.196-0.004,0.413-0.145,0.58-0.276c1.465-1.165,2.921-2.341,4.379-3.515
				c0.073-0.059,0.19-0.126,0.197-0.198c0.046-0.564,0.413-0.386,0.732-0.335C23.768,10.846,23.853,10.835,24.048,10.835z"/>
			<path fill-rule="evenodd" clip-rule="evenodd" fill="#FFFFFF" d="M17.557,18.692c0,0.884-0.003,1.77,0.003,2.655
				c0.001,0.222-0.062,0.306-0.294,0.226c-0.212-0.073-0.439-0.101-0.648-0.184c-0.078-0.029-0.164-0.152-0.168-0.235
				c-0.044-1.294-0.079-2.587-0.098-3.88c-0.002-0.061,0.168-0.188,0.244-0.177c0.258,0.036,0.516,0.104,0.762,0.19
				c0.087,0.031,0.198,0.148,0.203,0.231c0.021,0.389,0.009,0.78,0.009,1.173C17.565,18.692,17.562,18.692,17.557,18.692z"/>
			<path fill-rule="evenodd" clip-rule="evenodd" fill="#FFFFFF" d="M5.585,18.646c-0.253-0.077-0.471-0.178-0.698-0.206
				c-0.551-0.067-0.677-0.481-0.797-0.911c-0.294-1.058-0.588-2.114-0.886-3.17c-0.038-0.134-0.095-0.263-0.158-0.434
				c0.428,0.095,0.801,0.159,1.158,0.272c0.103,0.032,0.199,0.196,0.233,0.318c0.106,0.372,0.166,0.759,0.271,1.132
				c0.131,0.465,0.301,0.921,0.432,1.387c0.11,0.395,0.186,0.799,0.284,1.196C5.453,18.347,5.511,18.456,5.585,18.646z"/>
			<path fill-rule="evenodd" clip-rule="evenodd" fill="#FFFFFF" d="M13.016,17.293c0.361-0.292,0.672-0.164,0.944,0.134
				c0.282,0.309,0.295,0.653,0.073,1.005c-0.184,0.292-0.583,0.516-0.841,0.377C13.724,17.914,13.724,17.914,13.016,17.293z"/>
			<path fill-rule="evenodd" clip-rule="evenodd" fill="#FFFFFF" d="M13.47,18.144c-0.169,0.156-0.322,0.42-0.511,0.447
				c-0.318,0.048-0.466-0.268-0.456-0.533s0.127-0.561,0.486-0.551C13.337,17.516,13.38,17.779,13.47,18.144z"/>
			<path fill-rule="evenodd" clip-rule="evenodd" fill="#FFFFFF" d="M5.931,15.712c0.096-0.415,0.386-0.134,0.491-0.076
				c0.403,0.22,0.563,0.79,0.23,1.191c-0.107,0.129-0.385,0.115-0.613,0.111c0.383-0.204,0.5-0.522,0.37-0.866
				c-0.061-0.16-0.317-0.247-0.485-0.367L5.931,15.712z"/>
			<path fill-rule="evenodd" clip-rule="evenodd" fill="#FFFFFF" d="M5.924,15.705c0.106,0.208,0.265,0.408,0.297,0.628
				c0.017,0.11-0.175,0.288-0.311,0.368c-0.047,0.027-0.257-0.122-0.316-0.233c-0.203-0.372-0.134-0.503,0.337-0.756L5.924,15.705z"
				/>
			<path fill-rule="evenodd" clip-rule="evenodd" fill="#FFFFFF" d="M22.503,8.518c-0.099,1.024-0.196,2.048-0.294,3.072
				c-0.043-0.004-0.085-0.009-0.128-0.013c0.099-1.027,0.197-2.056,0.295-3.084C22.418,8.502,22.46,8.511,22.503,8.518z"/>
			<path fill-rule="evenodd" clip-rule="evenodd" fill="#FFFFFF" d="M18.655,19.903c0.74-0.789,1.479-1.577,2.219-2.365
				c0.011,0.01,0.021,0.021,0.031,0.03c-0.756,0.771-1.512,1.545-2.268,2.317C18.645,19.892,18.648,19.896,18.655,19.903z"/>
			<path fill-rule="evenodd" clip-rule="evenodd" fill="#FFFFFF" d="M7.012,16.729c0.008-0.487,0.014-0.971-0.534-1.245
				C6.92,15.437,7.232,16.104,7.012,16.729z"/>
			<path fill-rule="evenodd" clip-rule="evenodd" fill="#FFFFFF" d="M21.313,16.155c0,0.223,0,0.446,0,0.669
				c-0.02-0.001-0.041-0.001-0.06-0.003c0-0.222,0-0.443,0-0.666C21.272,16.155,21.294,16.155,21.313,16.155z"/>
			<path fill-rule="evenodd" clip-rule="evenodd" fill="#FFFFFF" d="M13.915,18.845c0.14-0.194,0.278-0.389,0.416-0.583
				c0.027,0.019,0.053,0.036,0.078,0.055c-0.146,0.193-0.289,0.387-0.435,0.58C13.955,18.88,13.936,18.863,13.915,18.845z"/>
			<path fill-rule="evenodd" clip-rule="evenodd" fill="#FFFFFF" d="M21.191,17.049c0,0.219,0,0.437,0,0.655
				c-0.019,0.001-0.039,0.003-0.058,0.004c-0.013-0.221-0.025-0.439-0.038-0.659C21.127,17.049,21.159,17.049,21.191,17.049z"/>
			<path fill-rule="evenodd" clip-rule="evenodd" fill="#FFFFFF" d="M21.454,15.334c0,0.188,0,0.376,0,0.563
				c-0.016-0.001-0.031-0.001-0.049-0.001c0-0.188,0-0.376,0-0.563C21.423,15.333,21.438,15.333,21.454,15.334z"/>
			<path fill-rule="evenodd" clip-rule="evenodd" fill="#FFFFFF" d="M21.498,14.992c0.013-0.16,0.023-0.318,0.036-0.479
				c0.021,0.002,0.04,0.003,0.062,0.004c0,0.161,0,0.322,0,0.483C21.563,14.998,21.53,14.994,21.498,14.992z"/>
		</g>
	</g>
</g>
</svg>
